<svg width="64" height="64" viewBox="0 0 64 64" fill="none" xmlns="http://www.w3.org/2000/svg">
<path d="M13.8408 60.6395C13.6569 60.6382 13.477 60.5863 13.3208 60.4895C11.1687 59.1267 9.36702 57.2773 8.06081 55.0904C6.7546 52.9036 5.98045 50.4404 5.80076 47.8995C5.71076 46.5595 5.59076 45.2095 5.47076 43.8395C4.89076 37.1695 4.29076 30.2795 7.34076 23.8395C11.0726 16.0128 17.5442 9.82578 25.5308 6.4495C31.6234 3.74926 38.4685 3.26462 44.8808 5.0795C51.5508 7.1395 56.8808 12.2095 58.8808 18.3095C61.0608 25.0295 59.1308 33.2095 53.9608 39.1595C48.3508 45.6095 40.5408 48.3695 34.9608 49.5495C33.6008 49.8395 32.2208 50.0695 30.8808 50.2895C28.1586 50.6635 25.4771 51.2895 22.8708 52.1595C18.6508 53.7195 15.6308 56.6095 14.8108 59.8795C14.7738 60.0329 14.7011 60.1754 14.5986 60.2953C14.496 60.4152 14.3666 60.5092 14.2208 60.5695C14.0998 60.6173 13.9708 60.6411 13.8408 60.6395Z" fill="white"/>
<path d="M13.8408 60.6395C13.6569 60.6382 13.477 60.5863 13.3208 60.4895C11.1687 59.1267 9.36702 57.2773 8.06081 55.0904C6.7546 52.9036 5.98045 50.4404 5.80076 47.8995C5.71076 46.5595 5.59076 45.2095 5.47076 43.8395C4.89076 37.1695 4.29076 30.2795 7.34076 23.8395C11.0726 16.0128 17.5442 9.82578 25.5308 6.4495C31.6234 3.74926 38.4685 3.26462 44.8808 5.0795C51.5508 7.1395 56.8808 12.2095 58.8808 18.3095C61.0608 25.0295 59.1308 33.2095 53.9608 39.1595C48.3508 45.6095 40.5408 48.3695 34.9608 49.5495C33.6008 49.8395 32.2208 50.0695 30.8808 50.2895C28.1586 50.6635 25.4771 51.2895 22.8708 52.1595C18.6508 53.7195 15.6308 56.6095 14.8108 59.8795C14.7738 60.0329 14.7011 60.1754 14.5986 60.2953C14.496 60.4152 14.3666 60.5092 14.2208 60.5695C14.0998 60.6173 13.9708 60.6411 13.8408 60.6395ZM7.79076 47.7695C7.93572 49.7764 8.50227 51.7301 9.45342 53.5032C10.4046 55.2762 11.719 56.8288 13.3108 58.0595C14.6808 54.7195 17.8908 51.8695 22.1808 50.2895C24.9216 49.3591 27.7441 48.6895 30.6108 48.2895C31.9308 48.0695 33.2908 47.8395 34.6108 47.5595C39.8808 46.4495 47.2508 43.8495 52.5008 37.8195C57.2208 32.3895 59.0008 24.9595 57.0208 18.8995C55.9856 16.0527 54.2932 13.4904 52.0812 11.4209C49.8692 9.35139 47.2001 7.83311 44.2908 6.9895C38.3222 5.31543 31.9568 5.77516 26.2908 8.2895C18.7692 11.4738 12.6726 17.3 9.15076 24.6695C6.33076 30.6695 6.91076 37.2695 7.47076 43.6695C7.59076 45.0495 7.71076 46.4195 7.79076 47.7695Z" fill="black"/>
<path d="M22.9413 42.7296C20.9671 42.7941 19.0474 42.0752 17.6013 40.7296C17.0356 40.95 16.4539 41.1272 15.8613 41.2596C15.73 41.2891 15.5942 41.2925 15.4615 41.2695C15.3289 41.2466 15.2021 41.1977 15.0883 41.1258C14.8586 40.9804 14.696 40.7498 14.6363 40.4846C14.5767 40.2193 14.6248 39.9413 14.7701 39.7115C14.9155 39.4818 15.1461 39.3192 15.4113 39.2596C15.7013 39.1996 15.9913 39.1196 16.2813 39.0296C15.2612 37.2634 14.7523 35.2483 14.8113 33.2096C14.7603 31.9845 14.9582 30.7618 15.393 29.6154C15.8279 28.469 16.4907 27.4226 17.3413 26.5396C19.2213 24.8096 22.5913 24.2896 24.6213 26.2896C26.6513 28.2896 26.2013 31.5496 25.1813 33.7196C23.9613 36.2313 22.0181 38.3208 19.6013 39.7196C20.4548 40.2292 21.4115 40.5413 22.4013 40.633C23.391 40.7247 24.3888 40.5937 25.3213 40.2496C27.3371 39.5109 29.1569 38.3205 30.6413 36.7696C31.3337 36.1066 31.9849 35.4019 32.5913 34.6596C30.1713 32.8396 29.5913 29.1896 30.3713 26.3296C30.9813 24.1496 32.3013 22.7796 33.9113 22.6496C34.6299 22.624 35.3395 22.8155 35.9477 23.199C36.5559 23.5825 37.0346 24.1402 37.3213 24.7996C37.7983 25.9294 37.9271 27.176 37.6913 28.3796C37.4014 30.2913 36.7206 32.1227 35.6913 33.7596C37.1116 33.7835 38.5139 33.439 39.7613 32.7596C40.8387 32.2412 41.8466 31.5894 42.7613 30.8196C40.1713 29.6696 39.8913 26.3096 40.4413 23.8196C40.6111 22.8015 41.1099 21.8671 41.8613 21.1596C42.5358 20.6694 43.3623 20.4345 44.1937 20.4968C45.0251 20.559 45.8074 20.9144 46.4013 21.4996C46.9083 22.0285 47.2991 22.6576 47.5488 23.3464C47.7985 24.0352 47.9016 24.7686 47.8513 25.4996C47.8177 26.5348 47.5834 27.5537 47.1613 28.4996C48.8371 27.6704 50.2624 26.4107 51.2913 24.8496C51.3632 24.7388 51.4563 24.6434 51.5652 24.5688C51.6741 24.4943 51.7967 24.442 51.9259 24.415C52.0551 24.3881 52.1884 24.387 52.3181 24.4118C52.4477 24.4366 52.5712 24.4868 52.6813 24.5596C52.7913 24.6322 52.8857 24.7259 52.9594 24.8351C53.033 24.9444 53.0843 25.0672 53.1103 25.1964C53.1363 25.3255 53.1365 25.4586 53.111 25.5878C53.0854 25.7171 53.0346 25.84 52.9613 25.9496C51.5149 28.1422 49.4161 29.8248 46.9613 30.7596C46.4652 30.9411 45.9529 31.075 45.4313 31.1596C44.0853 32.6189 42.4643 33.7982 40.6613 34.6296C38.7907 35.7012 36.5944 36.0566 34.4813 35.6296C33.7417 36.5719 32.9363 37.4608 32.0713 38.2896C30.3715 40.0469 28.2916 41.3913 25.9913 42.2196C25.0084 42.5514 23.9787 42.7236 22.9413 42.7296ZM21.3213 27.0396C20.3559 27.0458 19.4254 27.401 18.7013 28.0396C17.4138 29.4619 16.7352 31.3325 16.8113 33.2496C16.7466 35.0129 17.2135 36.7549 18.1513 38.2496C20.4222 37.0657 22.2522 35.183 23.3713 32.8796C24.1713 31.1796 24.4313 28.8796 23.2213 27.7196C22.7019 27.2521 22.0194 27.0079 21.3213 27.0396ZM34.1913 24.7196H34.1013C33.2313 24.7896 32.6013 25.9496 32.3313 26.9296C31.7413 29.1596 32.1613 31.8596 33.8013 33.1596C34.805 31.6544 35.4672 29.9478 35.7413 28.1596C35.9105 27.3406 35.841 26.4903 35.5413 25.7096C35.4225 25.4409 35.2353 25.2081 34.9984 25.0344C34.7615 24.8607 34.4833 24.7521 34.1913 24.7196ZM43.8513 22.4596C43.5946 22.4476 43.3423 22.5294 43.1413 22.6896C42.7491 23.1432 42.5018 23.704 42.4313 24.2996C42.0113 26.2296 42.2213 28.4496 43.6213 29.0796C43.8683 29.1849 44.1329 29.2426 44.4013 29.2496C45.2865 28.158 45.8013 26.8131 45.8713 25.4096C45.9111 24.9613 45.8579 24.5097 45.715 24.083C45.5722 23.6562 45.3429 23.2636 45.0413 22.9296C44.7193 22.6266 44.2935 22.4584 43.8513 22.4596Z" fill="black"/>
</svg>
