<svg width="280" height="280" viewBox="0 0 280 280" fill="none" xmlns="http://www.w3.org/2000/svg">
<path d="M37.566 266.31C37.1645 266.311 36.7686 266.219 36.4107 266.041C36.0527 265.864 35.7428 265.607 35.5064 265.291C28.1666 255.513 21.2331 246.256 17.7396 233.732C17.5737 233.493 17.4614 233.222 17.4099 232.938C11.8467 208.561 5.57584 180.861 5.1823 153.591C4.76767 123.271 11.9307 96.5823 25.9042 76.1006C39.1382 56.8077 59.7462 41.1448 85.4357 30.8687C105.804 22.6922 129.323 17.7182 159.251 15.2572C180.399 13.5025 204.929 13.017 226.417 22.6169C258.839 37.0914 279.397 74.7528 275.271 112.354C271.585 146.014 249.731 178.558 216.622 199.384C188.759 216.946 153.757 226.713 112.558 228.389C110.013 228.509 107.316 228.58 104.669 228.65C91.9461 229.029 78.8409 229.407 66.9519 233.554C53.8663 238.048 40.4659 249.184 40.0123 263.909C39.9936 264.422 39.8118 264.917 39.4922 265.325C39.1725 265.733 38.7308 266.034 38.2278 266.187C38.0138 266.257 37.7912 266.298 37.566 266.31Z" fill="white"/>
<path d="M37.566 266.31C37.1645 266.311 36.7686 266.219 36.4107 266.041C36.0527 265.864 35.7428 265.607 35.5064 265.291C28.1666 255.513 21.2331 246.256 17.7396 233.732C17.5737 233.493 17.4614 233.222 17.4099 232.938C11.8467 208.561 5.57584 180.861 5.1823 153.591C4.76767 123.271 11.9307 96.5823 25.9042 76.1006C39.1382 56.8077 59.7462 41.1448 85.4357 30.8687C105.804 22.6922 129.323 17.7182 159.251 15.2572C180.399 13.5025 204.929 13.017 226.417 22.6169C258.839 37.0914 279.397 74.7528 275.271 112.354C271.585 146.014 249.731 178.558 216.622 199.384C188.759 216.946 153.757 226.713 112.558 228.389C110.013 228.509 107.316 228.58 104.669 228.65C91.9461 229.029 78.8409 229.407 66.9519 233.554C53.8663 238.048 40.4659 249.184 40.0123 263.909C39.9936 264.422 39.8118 264.917 39.4922 265.325C39.1725 265.733 38.7308 266.034 38.2278 266.187C38.0138 266.257 37.7912 266.298 37.566 266.31ZM22.1709 231.086C22.2814 231.281 22.3666 231.49 22.4245 231.706C25.1782 241.05 29.7626 249.786 35.9248 257.433C39.4307 243.58 52.5245 233.335 65.3554 228.916C78.1864 224.497 91.5459 224.169 104.626 223.791C107.17 223.795 109.842 223.65 112.438 223.53C152.721 221.902 186.882 212.406 213.956 195.315C245.69 175.305 266.753 144.123 270.259 111.95C274.152 76.4807 254.839 40.8538 224.349 27.225C204.006 18.0977 180.213 18.6091 159.727 20.2903C130.283 22.7272 107.273 27.6524 87.3628 35.5569C62.59 45.4376 42.7971 60.4819 30.1241 78.9575C16.7117 98.498 9.85529 124.32 10.2459 153.623C10.6152 180.075 16.7089 207.155 22.1709 231.086Z" fill="black"/>
<path d="M54.0706 148.802C50.9062 148.767 47.831 147.775 45.2705 145.963C42.0431 143.767 39.8279 140.426 39.1004 136.658C38.5372 132.858 39.5297 128.995 41.864 125.903C44.1223 122.757 47.5635 120.606 51.4402 119.917C51.7712 119.864 52.1096 119.876 52.4359 119.951C52.7623 120.027 53.0702 120.164 53.3418 120.356C53.6135 120.547 53.8436 120.789 54.0189 121.068C54.1943 121.346 54.3114 121.656 54.3635 121.979C54.4174 122.301 54.4055 122.631 54.3282 122.949C54.251 123.267 54.1099 123.567 53.9133 123.831C53.7166 124.096 53.4682 124.32 53.1823 124.491C52.8964 124.662 52.5787 124.776 52.2474 124.827C49.7138 125.294 47.4717 126.716 46.0075 128.784C44.4485 130.804 43.7684 133.342 44.1144 135.847C44.6149 138.32 46.0921 140.503 48.2279 141.926C50.2979 143.431 52.8951 144.077 55.452 143.722C57.9927 143.239 60.2352 141.799 61.6919 139.714C62.8794 138.125 63.5553 136.228 63.6335 134.263C63.2821 134.061 62.9857 133.78 62.7692 133.443C62.5527 133.107 62.4225 132.724 62.3895 132.328C62.3033 130.597 62.662 128.872 63.4329 127.311C64.2039 125.749 65.3627 124.4 66.8044 123.385C68.4727 122.116 70.4773 121.337 72.5838 121.137C73.1394 119.318 74.0017 117.602 75.1357 116.059C76.0929 114.903 77.3145 113.981 78.7028 113.368C80.091 112.754 81.6074 112.466 83.1307 112.525C84.1939 112.563 85.2299 112.864 86.1415 113.398C87.0531 113.933 87.8105 114.684 88.3427 115.582C89.3125 117.531 89.561 119.747 89.0462 121.855C88.7984 122.882 88.7969 123.951 89.0417 124.978C89.1862 125.244 89.4085 125.461 89.6802 125.602C89.9519 125.744 90.2607 125.804 90.5673 125.774C91.3014 125.772 92.0239 125.595 92.6719 125.259C93.3199 124.923 93.8737 124.438 94.2851 123.846C94.6958 123.076 94.9395 122.233 95.0012 121.368C94.7177 120.981 94.4632 120.574 94.2395 120.152C93.5352 118.902 93.1669 117.498 93.169 116.072C93.171 114.646 93.5433 113.244 94.2512 111.996C94.501 111.566 94.8768 111.219 95.3305 110.999C95.7842 110.778 96.295 110.695 96.7975 110.76C97.2977 110.822 97.7676 111.027 98.1477 111.35C98.5278 111.673 98.8009 112.098 98.9324 112.573C99.6296 114.85 100.07 117.195 100.246 119.565C100.967 120.171 101.848 120.567 102.788 120.709C104.574 120.696 106.308 120.127 107.738 119.086C109.168 118.044 110.218 116.584 110.736 114.92C111.709 111.886 111.714 108.635 110.749 105.599C110.291 105.708 109.811 105.692 109.362 105.551C108.912 105.411 108.512 105.151 108.206 104.802C107.91 104.465 107.711 104.058 107.631 103.622C107.551 103.186 107.593 102.737 107.751 102.322C108.189 101.302 109.022 100.493 110.07 100.069C111.044 99.6988 112.125 99.7004 113.098 100.074L123.789 97.6098C124.193 97.5136 124.616 97.5156 125.02 97.6155C125.423 97.7155 125.795 97.9105 126.104 98.1833C126.408 98.4525 126.64 98.7894 126.781 99.1652C126.923 99.541 126.968 99.9445 126.915 100.341C126.301 103.077 126.366 105.916 127.106 108.622C127.816 110.457 129.926 112.171 131.657 111.677C133.388 111.184 134.613 108.682 135.052 104.245L138.56 70.6837C138.625 70.0701 138.921 69.5019 139.392 69.0901C139.863 68.6782 140.475 68.4522 141.108 68.4562C141.783 68.4571 142.43 68.7193 142.906 69.1849C143.383 69.6504 143.65 70.2814 143.649 70.9389L144.933 98.359C144.696 100.932 145.395 103.504 146.908 105.625C147.361 106.057 147.905 106.387 148.502 106.593C149.099 106.799 149.736 106.877 150.366 106.82C153.239 106.547 155.884 105.178 157.726 103.013C159.229 101.146 160.552 99.1481 161.678 97.0443C163.148 94.2698 164.963 91.6828 167.084 89.3422C167.561 88.8811 168.207 88.6229 168.879 88.6239C169.551 88.6248 170.196 88.8849 170.672 89.3473C171.145 89.8125 171.41 90.4412 171.409 91.0961C171.408 91.751 171.141 92.379 170.667 92.8428C168.836 94.8947 167.269 97.1569 166.001 99.5791C164.731 101.952 163.228 104.2 161.512 106.291C160.139 107.883 158.455 109.195 156.558 110.15C154.661 111.104 152.589 111.683 150.461 111.853C149.124 111.937 147.784 111.743 146.53 111.284C145.276 110.825 144.136 110.111 143.187 109.19C141.626 107.557 140.594 105.512 140.219 103.31L140.064 104.946C139.806 107.425 139.006 114.861 132.998 116.588C130.759 117.021 128.435 116.644 126.46 115.527C124.485 114.411 122.995 112.632 122.269 110.524C121.444 108.243 121.144 105.814 121.389 103.407L115.585 104.763C116.832 108.713 116.826 112.938 115.568 116.885C114.68 119.605 112.902 121.966 110.505 123.606C108.108 125.246 105.225 126.074 102.298 125.964C101.313 125.864 100.351 125.612 99.4487 125.216C99.2823 125.614 99.0949 126.002 98.8872 126.381C98.0353 127.805 96.8053 128.979 95.3265 129.779C93.8477 130.58 92.1747 130.977 90.4836 130.93C89.221 130.94 87.9825 130.593 86.9178 129.931C85.8532 129.27 85.0078 128.322 84.4837 127.203C83.7901 125.353 83.6517 123.35 84.0848 121.426C84.379 120.397 84.3806 119.308 84.0894 118.278C84.0896 118.129 83.7848 117.757 82.9197 117.706C82.2356 117.692 81.5572 117.829 80.9354 118.108C80.3136 118.386 79.7645 118.798 79.3295 119.312C78.6384 120.212 78.1039 121.216 77.7477 122.285C79.094 123.018 80.2597 124.028 81.1634 125.245C82.0671 126.463 82.6869 127.858 82.9794 129.333C83.365 130.997 83.2966 132.731 82.7808 134.361C82.2651 135.991 81.3201 137.461 80.0398 138.625C78.6411 139.751 76.9509 140.479 75.155 140.73C73.3591 140.981 71.5269 140.745 69.8595 140.048C69.1193 139.776 68.4117 139.426 67.749 139.004C67.257 140.279 66.5966 141.487 65.7845 142.596C63.5476 145.75 60.1254 147.918 56.2592 148.631C55.5344 148.736 54.8032 148.793 54.0706 148.802ZM69.6644 134.123C70.2555 134.695 70.9667 135.136 71.7491 135.415C72.5428 135.773 73.4212 135.914 74.2906 135.823C75.16 135.733 75.988 135.414 76.6863 134.902C77.2891 134.3 77.725 133.56 77.9532 132.749C78.1814 131.938 78.1943 131.085 77.9907 130.268C77.7664 128.936 77.0539 127.728 75.9853 126.869C75.8066 127.29 75.6533 127.686 75.4492 128.107C74.3015 130.709 72.2549 132.838 69.6644 134.123ZM70.3107 127.034L69.9032 127.306C69.1695 127.844 68.5614 128.528 68.1191 129.312C68.9915 128.71 69.7214 127.933 70.2598 127.034L70.3107 127.034Z" fill="black"/>
<path d="M140.282 94.9312C139.803 94.9292 139.333 94.7952 138.928 94.5446C138.524 94.294 138.2 93.9371 137.994 93.5149C137.707 92.9225 137.671 92.2433 137.896 91.6257C138.121 91.0082 138.588 90.5026 139.195 90.2195L151.773 84.4117C152.076 84.2691 152.404 84.1863 152.739 84.168C153.075 84.1497 153.411 84.1963 153.727 84.305C154.044 84.4138 154.336 84.5827 154.585 84.8018C154.835 85.0209 155.037 85.286 155.181 85.5817C155.327 85.8778 155.411 86.1991 155.428 86.527C155.445 86.8548 155.395 87.1827 155.281 87.4915C155.166 87.8004 154.991 88.0841 154.763 88.3262C154.536 88.5684 154.261 88.764 153.955 88.9019L141.377 94.6849C141.037 94.8505 140.662 94.9349 140.282 94.9312Z" fill="black"/>
<path d="M176.714 82.0179C176.249 82.0206 175.793 81.8992 175.394 81.667C174.995 81.4349 174.669 81.1007 174.451 80.7008C174.139 80.1184 174.076 79.4389 174.277 78.8116C174.479 78.1843 174.927 77.6606 175.525 77.3556L187.722 71.1011C188.32 70.7964 189.018 70.7354 189.661 70.9316C190.305 71.1277 190.843 71.565 191.156 72.1472C191.469 72.7295 191.531 73.409 191.33 74.0363C191.129 74.6636 190.68 75.1874 190.082 75.4924L177.885 81.7469C177.519 81.9182 177.12 82.0106 176.714 82.0179Z" fill="black"/>
<path d="M63.2179 194.504C62.6434 194.522 62.0794 194.35 61.6178 194.017C61.1563 193.683 60.8243 193.207 60.6759 192.666L57.4612 180.836C57.3443 180.24 57.1025 179.674 56.7511 179.174C56.3422 179.25 55.9588 179.424 55.6346 179.678C55.3103 179.933 55.0552 180.261 54.8915 180.634C54.5273 181.521 54.2615 182.443 54.0987 183.384C53.8492 184.721 53.4462 186.026 52.8973 187.275C52.6095 187.869 52.0911 188.328 51.4562 188.55C50.8212 188.773 50.1216 188.74 49.5113 188.46C48.901 188.18 48.43 187.675 48.2018 187.056C47.9737 186.437 48.007 185.756 48.2946 185.161C48.6675 184.258 48.9418 183.32 49.1129 182.361C49.3532 181.049 49.7477 179.769 50.2888 178.545C50.7834 177.537 51.4942 176.645 52.3732 175.927C53.2521 175.21 54.2788 174.685 55.3839 174.387C56.1521 174.184 56.9574 174.15 57.7409 174.288C58.5243 174.426 59.2662 174.734 59.9121 175.187C60.8705 175.916 61.5934 176.898 61.9946 178.016C62.3906 176.671 62.8596 175.348 63.3998 174.052C64.8807 170.509 68.2186 167.34 72.0588 168.833C73.3447 169.381 74.3957 170.346 75.0321 171.565C76.2583 168.17 78.6274 166.339 81.2734 166.615C82.7583 166.926 84.0768 167.751 84.9833 168.938C85.8898 170.126 86.3224 171.593 86.2006 173.068L86.1989 174.258C86.0807 175.096 86.1846 175.95 86.5007 176.737C86.5847 176.846 86.6918 176.935 86.8147 177C86.9376 177.064 87.0734 177.102 87.2126 177.11C87.9553 177.209 88.7089 177.033 89.3253 176.617C90.7337 175.304 91.7852 173.67 92.3856 171.862C92.5165 171.56 92.7076 171.286 92.9478 171.056C93.1881 170.827 93.4728 170.646 93.7854 170.524C94.0979 170.402 94.4322 170.342 94.7688 170.347C95.1054 170.352 95.4377 170.422 95.7463 170.553C96.3619 170.815 96.8461 171.304 97.0931 171.913C97.3401 172.522 97.3299 173.201 97.0649 173.802C96.1501 176.451 94.5102 178.806 92.3222 180.613C91.4739 181.218 90.51 181.652 89.4871 181.889C88.4643 182.126 87.4031 182.161 86.3659 181.993C85.5503 181.869 84.7691 181.585 84.0697 181.158C83.3704 180.731 82.7676 180.169 82.2982 179.508C81.307 177.853 80.8903 175.931 81.1101 174.028L81.1115 173.036C81.0967 172.511 80.9674 171.995 80.732 171.523C80.2712 172.04 79.9317 172.649 79.737 173.307C78.5084 177.002 77.826 180.849 77.7105 184.732L77.7085 186.145C77.7075 186.803 77.4385 187.433 76.9607 187.897C76.4828 188.361 75.8352 188.622 75.1603 188.621C74.4855 188.62 73.8386 188.358 73.3621 187.892C72.8856 187.426 72.6184 186.795 72.6193 186.138C72.62 185.667 72.6206 185.221 72.6213 184.75C72.5757 181.468 72.0403 178.211 71.0321 175.079C70.5508 173.566 70.1693 173.392 70.1693 173.392C69.1728 173.92 68.4307 174.81 68.1046 175.868C66.0107 180.856 65.267 186.284 65.9447 191.632C66.0269 192.257 65.8618 192.889 65.483 193.399C65.1041 193.91 64.5399 194.261 63.9051 194.381L63.2179 194.504Z" fill="black"/>
<path d="M101.105 177.403C100.698 177.427 100.29 177.426 99.8834 177.401C98.0744 176.97 96.4244 176.056 95.1184 174.763C93.8123 173.469 92.9019 171.847 92.4892 170.077C91.7471 167.525 91.6603 164.834 92.2364 162.241C92.8125 159.648 94.0338 157.233 95.793 155.208C98.1888 152.484 102.186 150.903 105.211 153.164C106.342 154.109 107.08 155.426 107.284 156.864C107.488 158.303 107.145 159.765 106.319 160.974C105.01 162.768 103.158 164.118 101.021 164.834L99.8754 165.279C98.8707 165.602 97.9057 166.033 96.9981 166.564C97.0478 167.285 97.1747 168 97.3768 168.696C97.8833 170.383 99.1021 172.219 100.705 172.469C102.308 172.719 104.345 171.359 106.64 168.362C109.31 165.113 111.491 161.51 113.118 157.662C113.647 156.218 114.016 154.722 114.219 153.201C113.289 152.51 112.547 151.606 112.059 150.57C111.699 149.787 111.524 148.935 111.547 148.077C111.57 147.218 111.791 146.376 112.194 145.613C112.526 144.98 113.001 144.428 113.584 144C114.166 143.571 114.84 143.277 115.556 143.138C116.15 143.035 116.763 143.14 117.285 143.436C117.806 143.732 118.203 144.199 118.404 144.754C119.05 146.574 119.399 148.482 119.439 150.407L119.998 150.631C121.615 151.177 123.108 152.021 124.397 153.117C125.587 154.335 126.465 155.811 126.958 157.423C127.451 159.035 127.546 160.738 127.234 162.392C127.154 163.808 126.739 165.185 126.022 166.419C125.305 167.652 124.306 168.707 123.101 169.501C122.217 169.995 121.226 170.277 120.208 170.323C119.19 170.369 118.175 170.178 117.248 169.766C116.525 169.466 115.879 169.011 115.36 168.435C114.841 167.86 114.462 167.178 114.251 166.44C113.103 168.223 111.879 169.882 110.706 171.393C109.534 172.903 105.99 177.41 101.105 177.403ZM116.673 163.022C117.275 163.013 117.861 163.213 118.327 163.586C118.792 163.959 119.107 164.481 119.214 165.058C119.419 165.161 119.646 165.215 119.876 165.215C120.106 165.215 120.333 165.162 120.538 165.06C121.051 164.629 121.466 164.097 121.757 163.5C122.047 162.902 122.205 162.253 122.222 161.592C122.404 160.726 122.385 159.831 122.167 158.972C121.948 158.114 121.534 157.314 120.957 156.632C120.367 156.17 119.707 155.801 118.999 155.538C118.736 156.82 118.368 158.08 117.899 159.305C117.413 160.603 116.841 161.869 116.189 163.096L116.673 163.022ZM101.948 156.977C101.039 157.158 100.226 157.649 99.6563 158.362C99.0907 159.025 98.6032 159.748 98.2028 160.516L99.1193 160.171C100.245 159.816 101.244 159.155 101.997 158.266C102.1 158.075 102.154 157.862 102.154 157.646C102.155 157.431 102.101 157.218 101.999 157.026L101.948 156.977Z" fill="black"/>
<path d="M137.664 164.638C136.575 164.638 135.501 164.381 134.535 163.89C133.759 163.525 133.077 162.994 132.54 162.337C132.004 161.679 131.626 160.912 131.437 160.093C131.366 159.774 131.361 159.444 131.422 159.123C131.482 158.802 131.607 158.496 131.79 158.222C131.972 157.948 132.208 157.712 132.485 157.527C132.761 157.342 133.072 157.213 133.4 157.146C134.058 157.014 134.743 157.142 135.305 157.5C135.866 157.858 136.26 158.419 136.4 159.059C136.4 159.257 136.756 159.431 136.857 159.481C137.072 159.579 137.307 159.63 137.544 159.63C137.782 159.63 138.016 159.58 138.231 159.483C138.785 159.14 139.242 158.668 139.563 158.11C139.883 157.553 140.057 156.927 140.068 156.287C140.155 155.103 139.919 153.917 139.384 152.85C138.85 151.782 138.035 150.872 137.023 150.209C136.449 149.846 135.846 149.53 135.218 149.265L134.404 148.867C132.791 153.13 130.271 157.013 127.009 160.26C126.772 160.492 126.49 160.676 126.18 160.802C125.87 160.927 125.537 160.991 125.201 160.991C124.865 160.99 124.533 160.925 124.223 160.799C123.913 160.672 123.632 160.488 123.395 160.255C123.157 160.024 122.968 159.75 122.84 159.447C122.711 159.145 122.645 158.821 122.645 158.494C122.646 158.166 122.713 157.843 122.842 157.541C122.972 157.239 123.162 156.965 123.4 156.735C126.579 153.57 128.924 149.704 130.236 145.465C129.829 144.841 129.537 144.153 129.374 143.431C129.218 142.693 129.22 141.931 129.378 141.194C129.537 140.456 129.849 139.758 130.296 139.143C130.683 138.619 131.177 138.177 131.746 137.845C132.316 137.513 132.949 137.299 133.607 137.214C133.976 137.175 134.349 137.215 134.7 137.331C135.052 137.447 135.373 137.637 135.641 137.887C135.912 138.137 136.123 138.442 136.258 138.781C136.394 139.12 136.452 139.483 136.427 139.846C136.328 141.228 136.139 142.602 135.862 143.961L137.438 144.756C138.26 145.122 139.059 145.537 139.828 145.999C141.6 147.158 143.026 148.753 143.962 150.622C144.898 152.491 145.31 154.568 145.157 156.642C145.108 158.193 144.63 159.703 143.773 161.011C142.915 162.319 141.71 163.377 140.286 164.072C139.461 164.433 138.569 164.626 137.664 164.638Z" fill="black"/>
<path d="M155.819 155.566C154.507 155.519 153.221 155.199 152.045 154.629C150.87 154.058 149.834 153.251 149.004 152.259C147.116 150.077 145.998 147.362 145.814 144.514C145.631 141.666 146.391 138.836 147.983 136.442C149.547 134.294 151.727 132.644 154.25 131.699C156.773 130.754 159.526 130.557 162.164 131.132C162.401 130.856 162.697 130.633 163.031 130.479C163.365 130.326 163.73 130.245 164.099 130.242C164.721 130.238 165.322 130.455 165.79 130.853C166.258 131.251 166.561 131.802 166.641 132.403C166.901 134.375 166.958 136.369 166.81 138.353C167.013 139.393 167.309 140.414 167.697 141.403C167.926 142.118 168.347 142.76 168.915 143.264C169.277 143.401 169.668 143.451 170.054 143.408C170.439 143.366 170.809 143.232 171.13 143.019C172.275 142.244 173.283 141.291 174.111 140.198C174.539 139.695 175.153 139.377 175.82 139.313C176.487 139.249 177.153 139.444 177.674 139.856C177.933 140.062 178.148 140.317 178.306 140.605C178.464 140.892 178.562 141.208 178.594 141.533C178.627 141.857 178.594 142.185 178.496 142.497C178.398 142.81 178.238 143.1 178.025 143.352C176.836 144.914 175.369 146.255 173.693 147.312C172.587 147.991 171.312 148.367 170.005 148.4C168.697 148.433 167.405 148.122 166.263 147.5C165.807 147.239 165.388 146.922 165.018 146.556C164.604 147.671 164.127 148.763 163.588 149.826C163.053 151.125 162.234 152.295 161.186 153.253C160.139 154.21 158.889 154.933 157.524 155.37C156.965 155.498 156.393 155.564 155.819 155.566ZM159.206 135.739C157.84 135.728 156.491 136.037 155.273 136.64C154.054 137.242 153.002 138.119 152.203 139.199C151.232 140.682 150.769 142.427 150.881 144.182C150.992 145.938 151.673 147.613 152.826 148.968C153.217 149.494 153.741 149.914 154.346 150.189C154.951 150.463 155.618 150.582 156.284 150.534C157.2 150.313 158.118 149.298 159.036 147.564C160.453 144.745 161.32 141.695 161.594 138.568C161.462 137.747 161.378 136.919 161.343 136.089C160.681 135.899 159.997 135.79 159.308 135.764L159.206 135.739Z" fill="black"/>
<path d="M185.082 173.185C184.083 173.198 183.099 172.948 182.233 172.462C179.691 171.07 178.525 168.093 179.014 164.128C180.069 155.725 184.838 148.22 189.224 141.955L188.316 136.524C187.661 137.709 186.901 138.836 186.046 139.892C185.256 141.154 184.088 142.151 182.7 142.747C181.312 143.343 179.77 143.511 178.28 143.228C176.246 142.63 173.78 140.743 173.61 135.016C173.087 130.689 173.89 126.308 175.918 122.425C176.759 121.139 177.879 120.047 179.199 119.227C180.519 118.407 182.007 117.878 183.559 117.677C184.875 117.477 186.221 117.598 187.477 118.029L187.859 118.03C188.505 117.912 189.174 118.043 189.724 118.395C190.273 118.747 190.662 119.293 190.808 119.918C191.031 120.857 191.191 121.81 191.287 122.77L193.532 136.185L200.977 125.758C200.172 124.328 199.648 122.763 199.432 121.145C199.189 116.805 200.07 112.476 201.995 108.555C202.658 106.92 204.548 102.535 208.696 101.995C209.594 101.894 210.504 101.986 211.361 102.266C212.218 102.546 213.002 103.006 213.656 103.614C214.488 104.395 215.143 105.337 215.58 106.379C216.017 107.421 216.225 108.541 216.192 109.666C215.837 112.752 214.569 115.67 212.541 118.065L207.187 125.495C207.848 125.965 208.633 126.241 209.45 126.291C211.605 126.294 213.897 124.736 216.327 121.616L217.245 120.402C219.145 117.327 221.866 114.812 225.118 113.125C225.736 112.868 226.433 112.861 227.058 113.103C227.682 113.345 228.182 113.818 228.45 114.419C228.715 115.018 228.726 115.695 228.483 116.302C228.239 116.91 227.759 117.399 227.147 117.665C224.756 119.025 222.771 120.971 221.389 123.309L220.42 124.572C216.927 129.178 213.209 131.403 209.214 131.249C207.437 131.157 205.724 130.569 204.28 129.556L195.05 142.459L194.54 143.177L195.146 146.847C196.584 155.6 197.105 164.5 191.168 170.442C189.577 172.085 187.398 173.067 185.082 173.185ZM190.46 149.195C187.185 153.852 185.005 159.157 184.077 164.73C183.871 166.415 184.072 167.829 184.733 168.152C185.394 168.475 186.617 167.907 187.585 166.941C191.662 162.881 191.494 156.014 190.46 149.195ZM184.773 122.537L184.239 122.536C183.444 122.66 182.685 122.944 182.01 123.37C181.334 123.796 180.757 124.354 180.317 125.01C178.857 128.108 178.331 131.546 178.801 134.924C178.798 137.205 179.381 138.371 179.814 138.495C180.246 138.62 181.214 138.051 182.157 136.887C185.216 133.001 186.659 128.135 186.197 123.258L186.198 122.936C185.769 122.68 185.276 122.542 184.773 122.537ZM209.478 106.806C208.638 106.805 207.771 108.068 206.929 110.273C205.327 113.427 204.545 116.916 204.649 120.434C204.649 120.434 204.649 120.607 204.649 120.682L208.652 115.109C210.084 113.482 211.029 111.502 211.383 109.387C211.389 108.97 211.306 108.557 211.14 108.172C210.974 107.788 210.729 107.442 210.419 107.154C210.294 107.023 210.139 106.923 209.967 106.862C209.794 106.802 209.609 106.782 209.427 106.806L209.478 106.806Z" fill="black"/>
</svg>
