<svg width="63" height="27" viewBox="0 0 63 27" fill="none" xmlns="http://www.w3.org/2000/svg">
<g id="logo-societe-numerique.64abef119283 1" clip-path="url(#clip0_623_5704)">
<g id="g560">
<path id="path568" d="M5.55408 9.97764C6.55472 9.97764 7.3332 9.49896 7.8097 8.73289V7.34431L5.64972 7.71149C4.6487 7.88723 4.23565 8.31788 4.23565 8.9242C4.23565 9.54699 4.72815 9.97764 5.55408 9.97764ZM2.58398 8.98835C2.58398 7.77505 3.5208 6.8971 5.22028 6.61013L7.8097 6.179V5.76453C7.8097 4.7744 7.07904 4.16791 6.04621 4.16791C5.17265 4.16791 4.49 4.56706 4.02893 5.2216L2.80614 4.2799C3.5208 3.32212 4.66471 2.71582 6.0944 2.71582C8.25401 2.71582 9.44574 3.99255 9.44574 5.76453V11.0791H7.8097V10.1693C7.23794 10.8716 6.23711 11.3185 5.25248 11.3185C3.66407 11.3185 2.58398 10.4087 2.58398 8.98835Z" fill="#2C3C88"/>
<path id="path570" d="M10.334 3.0349H11.97V3.81694C12.5734 3.17848 13.3677 2.71557 14.5116 2.71557C16.2744 2.71557 17.6244 3.91266 17.6244 6.24289V11.0789H15.9726V6.30664C15.9726 5.02991 15.2741 4.26357 14.13 4.26357C13.0339 4.26357 12.3827 4.95008 11.97 5.6521V11.0789H10.334V3.0349Z" fill="#2C3C88"/>
<path id="path572" d="M9.20608 18.4262L10.5241 19.4399C9.7754 20.4536 8.57162 21.1072 7.05852 21.1072C4.30888 21.1072 2.58398 19.0637 2.58398 16.6606C2.58398 14.2574 4.30888 12.2139 7.05852 12.2139C8.55524 12.2139 9.7754 12.8679 10.5241 13.8816L9.20608 14.8952C8.75047 14.2574 8.00192 13.7997 7.05852 13.7997C5.48028 13.7997 4.34127 15.0422 4.34127 16.6606C4.34127 18.2957 5.48028 19.5217 7.07452 19.5217C8.00192 19.5217 8.75047 19.0637 9.20608 18.4262Z" fill="#2C3C88"/>
<path id="path574" d="M13.1093 14.2283H11.332V12.7441H13.1093V10.7332H14.7609V12.7441H17.6258V14.2283H14.7609V17.9951C14.7609 19.0804 15.3331 19.4316 16.2226 19.4316C16.7626 19.4316 17.3398 19.3678 17.6258 19.256V20.7083C17.2445 20.8681 16.5879 20.948 15.9685 20.948C14.0941 20.948 13.1093 19.9582 13.1093 17.9951V14.2283Z" fill="#2C3C88"/>
<path id="path576" d="M18.6765 1.6108V2.71594H20.2086V1.16586C20.2086 0.60629 19.7729 0.139791 19.2177 0.103848L17.625 -7.39098e-06V1.54232L18.6765 1.6108Z" fill="#2C3C88"/>
<path id="path578" d="M1.53193 1.6108L2.5834 1.54232V-7.39098e-06L0.990661 0.103848C0.435086 0.139791 0 0.60629 0 1.16586V2.71594H1.53193V1.6108Z" fill="#2C3C88"/>
<path id="path580" d="M1.53193 22.2121V21.1072H0V22.6574C0 23.2166 0.435086 23.6833 0.990661 23.7194L2.5834 23.8229V22.2805L1.53193 22.2121Z" fill="#2C3C88"/>
<path id="path582" d="M20.0915 23.6783L13.4395 23.8231V25.6926L20.6066 25.514C21.3581 25.4645 21.9485 24.8325 21.9485 24.0746V16.9357H20.0915V23.6783Z" fill="#7D92CD"/>
<g id="g604">
<g id="text610">
<path id="path4072" d="M25.1504 17.4357C25.5249 17.8636 25.9948 18.144 26.707 18.144C27.4192 18.144 28.102 17.7161 28.1167 16.875C28.1167 15.5765 26.4059 15.7683 26.4059 15.2888C26.4059 15.1634 26.5014 15.0601 26.707 15.0601C26.9713 15.0601 27.1916 15.2593 27.3678 15.4659L28.1314 14.7797C27.8524 14.4182 27.2944 14.1305 26.707 14.1305C25.892 14.1305 25.2972 14.6396 25.2972 15.3478C25.2972 16.6537 27.008 16.4471 27.008 16.9562C27.008 17.1037 26.9052 17.2144 26.6923 17.2144C26.3619 17.2144 26.1122 16.9931 25.914 16.7348L25.1504 17.4357Z" fill="#7D92CD"/>
<path id="path4074" d="M30.6794 14.1305C29.4606 14.1305 28.6309 15.0011 28.6309 16.1372C28.6309 17.2734 29.4606 18.144 30.6794 18.144C31.8909 18.144 32.7206 17.2734 32.7206 16.1372C32.7206 15.0011 31.8909 14.1305 30.6794 14.1305ZM30.6867 17.0447C30.2021 17.0447 29.8424 16.6906 29.8424 16.1372C29.8424 15.5839 30.2021 15.2298 30.6867 15.2298C31.1566 15.2298 31.5164 15.5765 31.5164 16.1372C31.5164 16.6832 31.1566 17.0447 30.6867 17.0447Z" fill="#7D92CD"/>
<path id="path4076" d="M35.3347 17.0447C34.8354 17.0447 34.483 16.6906 34.483 16.1372C34.483 15.5913 34.8354 15.2298 35.3127 15.2298C35.6357 15.2298 35.8634 15.3773 35.9955 15.5692L36.906 14.8756C36.5609 14.4182 36.0102 14.1305 35.3274 14.1305C34.0204 14.1305 33.2715 15.0527 33.2715 16.1372C33.2715 17.2218 34.0204 18.144 35.3274 18.144C36.0102 18.144 36.5609 17.8562 36.906 17.3988L35.9955 16.7053C35.8634 16.8971 35.6284 17.0447 35.3347 17.0447Z" fill="#7D92CD"/>
<path id="path4078" d="M38.0736 13.8723C38.4628 13.8723 38.8005 13.5256 38.8005 13.1272C38.8005 12.7288 38.4628 12.3894 38.0736 12.3894C37.6698 12.3894 37.332 12.7288 37.332 13.1272C37.332 13.5256 37.6698 13.8723 38.0736 13.8723ZM37.4789 17.9965H38.6463V14.2781H37.4789V17.9965Z" fill="#7D92CD"/>
<path id="path4080" d="M41.9561 13.6878L42.8519 12.4631H41.6037L40.8474 13.6878H41.9561ZM43.1015 17.3988L42.2792 16.7422C42.1103 16.9562 41.8019 17.0964 41.4495 17.0964C41.0089 17.0964 40.6859 16.9636 40.5757 16.4619H42.9693C43.0061 16.3291 43.0428 16.093 43.0428 15.8421C43.0428 14.8314 42.3526 14.1305 41.3026 14.1305C40.0471 14.1305 39.3789 15.0601 39.3789 16.1372C39.3789 17.2218 40.0985 18.144 41.4568 18.144C42.169 18.144 42.7491 17.8636 43.1015 17.3988ZM41.2732 15.0749C41.7064 15.0749 41.8974 15.3847 41.912 15.6356H40.5831C40.6712 15.2593 40.8988 15.0749 41.2732 15.0749Z" fill="#7D92CD"/>
<path id="path4082" d="M44.0945 16.5504C44.0945 17.4653 44.513 18.0703 45.5189 18.0703C45.864 18.0703 46.0916 18.026 46.2899 17.9375V16.9267C46.1797 16.971 46.0035 17.0079 45.7318 17.0079C45.4235 17.0079 45.2693 16.8456 45.2693 16.5504V15.3257H46.2825V14.2781H45.2693V13.3485H44.0945V14.2781H43.4043V15.3257H44.0945V16.5504Z" fill="#7D92CD"/>
<path id="path4084" d="M49.3077 13.6878L50.2034 12.4631H48.9552L48.1989 13.6878H49.3077ZM50.4531 17.3988L49.6307 16.7422C49.4618 16.9562 49.1535 17.0964 48.801 17.0964C48.3605 17.0964 48.0374 16.9636 47.9273 16.4619H50.3209C50.3576 16.3291 50.3943 16.093 50.3943 15.8421C50.3943 14.8314 49.7041 14.1305 48.6542 14.1305C47.3986 14.1305 46.7305 15.0601 46.7305 16.1372C46.7305 17.2218 47.45 18.144 48.8084 18.144C49.5206 18.144 50.1006 17.8636 50.4531 17.3988ZM48.6248 15.0749C49.058 15.0749 49.2489 15.3847 49.2636 15.6356H47.9346C48.0227 15.2593 48.2503 15.0749 48.6248 15.0749Z" fill="#7D92CD"/>
<path id="path4086" d="M25.4219 25.185H26.5893V22.8684C26.6627 22.743 26.8463 22.4184 27.2575 22.4184C27.6319 22.4184 27.8302 22.6766 27.8302 23.0529V25.185H29.005V23.0012C29.005 21.8724 28.3588 21.3191 27.5732 21.3191C27.14 21.3191 26.8316 21.4666 26.5893 21.6732V21.4666H25.4219V25.185Z" fill="#7D92CD"/>
<path id="path4088" d="M32.2653 23.5693C32.2653 23.9603 32.067 24.2333 31.6485 24.2333C31.2153 24.2333 31.0244 23.9603 31.0244 23.5693V21.4667H29.8496V23.5029C29.8496 24.617 30.4884 25.3326 31.6412 25.3326C32.7792 25.3326 33.44 24.617 33.44 23.5029V21.4667H32.2653V23.5693Z" fill="#7D92CD"/>
<path id="path4090" d="M34.3203 25.185H35.4878V22.8684C35.5685 22.743 35.7154 22.4184 36.0825 22.4184C36.4129 22.4184 36.5818 22.6471 36.5818 22.9791V25.185H37.7566V22.9274C37.7566 22.8979 37.7566 22.8684 37.7566 22.8389C37.8153 22.743 37.9621 22.4184 38.3366 22.4184C38.667 22.4184 38.8359 22.6471 38.8359 22.9791V25.185H40.0107V22.9274C40.0107 21.8503 39.3939 21.3191 38.6523 21.3191C38.0429 21.3191 37.7052 21.5699 37.4629 21.8577C37.2132 21.4962 36.8314 21.3191 36.3982 21.3191C36.0017 21.3191 35.708 21.4666 35.4878 21.6585V21.4666H34.3203V25.185Z" fill="#7D92CD"/>
<path id="path4092" d="M43.2862 20.8764L44.1819 19.6517H42.9337L42.1775 20.8764H43.2862ZM44.4316 24.5874L43.6092 23.9308C43.4404 24.1448 43.132 24.2849 42.7795 24.2849C42.339 24.2849 42.0159 24.1521 41.9058 23.6505H44.2994C44.3361 23.5177 44.3728 23.2816 44.3728 23.0307C44.3728 22.02 43.6827 21.3191 42.6327 21.3191C41.3771 21.3191 40.709 22.2487 40.709 23.3258C40.709 24.4104 41.4285 25.3326 42.7869 25.3326C43.4991 25.3326 44.0791 25.0522 44.4316 24.5874ZM42.6033 22.2635C43.0365 22.2635 43.2274 22.5733 43.2421 22.8242H41.9131C42.0012 22.4479 42.2289 22.2635 42.6033 22.2635Z" fill="#7D92CD"/>
<path id="path4094" d="M45.166 25.1851H46.3335V22.9275C46.4069 22.8021 46.6859 22.5512 47.1118 22.5512C47.3027 22.5512 47.4422 22.5734 47.567 22.6029V21.4446C47.4789 21.4151 47.3614 21.3929 47.2292 21.3929C46.8474 21.3929 46.5611 21.5553 46.3335 21.7692V21.4667H45.166V25.1851Z" fill="#7D92CD"/>
<path id="path4096" d="M48.7846 21.0609C49.1737 21.0609 49.5114 20.7142 49.5114 20.3158C49.5114 19.9174 49.1737 19.578 48.7846 19.578C48.3807 19.578 48.043 19.9174 48.043 20.3158C48.043 20.7142 48.3807 21.0609 48.7846 21.0609ZM48.1898 25.1851H49.3573V21.4667H48.1898V25.1851Z" fill="#7D92CD"/>
<path id="path4098" d="M50.084 23.3258C50.084 24.4104 50.7742 25.3326 51.949 25.3326C52.4042 25.3326 52.7273 25.2072 52.9769 24.9784V26.9999H54.1517V21.4666H52.9769V21.6732C52.7273 21.4445 52.4042 21.3191 51.949 21.3191C50.7742 21.3191 50.084 22.2413 50.084 23.3258ZM51.2881 23.3258C51.2881 22.7799 51.6039 22.4184 52.1178 22.4184C52.4776 22.4184 52.7566 22.5733 52.9769 22.8537V23.798C52.7786 24.071 52.4923 24.2333 52.1178 24.2333C51.6039 24.2333 51.2881 23.8718 51.2881 23.3258Z" fill="#7D92CD"/>
<path id="path4100" d="M57.443 23.5693C57.443 23.9603 57.2447 24.2333 56.8262 24.2333C56.393 24.2333 56.2021 23.9603 56.2021 23.5693V21.4667H55.0273V23.5029C55.0273 24.617 55.6661 25.3326 56.8189 25.3326C57.957 25.3326 58.6178 24.617 58.6178 23.5029V21.4667H57.443V23.5693Z" fill="#7D92CD"/>
<path id="path4102" d="M62.9999 24.5874L62.1776 23.9308C62.0087 24.1448 61.7003 24.2849 61.3479 24.2849C60.9074 24.2849 60.5843 24.1521 60.4742 23.6505H62.8678C62.9045 23.5177 62.9412 23.2816 62.9412 23.0307C62.9412 22.02 62.251 21.3191 61.2011 21.3191C59.9455 21.3191 59.2773 22.2487 59.2773 23.3258C59.2773 24.4104 59.9969 25.3326 61.3552 25.3326C62.0675 25.3326 62.6475 25.0522 62.9999 24.5874ZM61.1717 22.2634C61.6049 22.2634 61.7958 22.5733 61.8105 22.8241H60.4815C60.5696 22.4479 60.7972 22.2634 61.1717 22.2634Z" fill="#7D92CD"/>
</g>
</g>
</g>
</g>
<defs>
<clipPath id="clip0_623_5704">
<rect width="63" height="27" fill="white"/>
</clipPath>
</defs>
</svg>
