<?xml version="1.0" encoding="UTF-8"?>
<svg version="1.1" xmlns="http://www.w3.org/2000/svg" width="800" height="800">
<path d="M0 0 C264 0 528 0 800 0 C800 264 800 528 800 800 C536 800 272 800 0 800 C0 536 0 272 0 0 Z " fill="#FEFEFE" transform="translate(0,0)"/>
<path d="M0 0 C39.93 0 79.86 0 121 0 C119.05229116 1.29847256 117.07353188 2.55193845 115.0625 3.75 C111.66142354 6.24875005 110.17401898 8.39928106 108 12 C107.47921875 12.68320313 106.9584375 13.36640625 106.421875 14.0703125 C103.08706314 18.54270037 101.17779632 21.81949555 101.60546875 27.46875 C103.28344403 38.5780011 103.28344403 38.5780011 109 48 C109 48.66 109 49.32 109 50 C108.443125 49.79375 107.88625 49.5875 107.3125 49.375 C104.94253776 48.75580312 104.94253776 48.75580312 102.8125 50.125 C99.57908139 51.13095246 99.02814169 50.82075613 96 49.625 C90.07611823 47.44199499 84.23158933 46.87144445 78 48 C74.97050607 49.80457219 73.34442272 51.74378351 72 55 C71.89596867 57.04861705 72.05870021 58.96029608 72.25390625 61 C71.73765958 65.06643529 68.02338116 67.53193375 65 70 C65.845625 69.54625 66.69125 69.0925 67.5625 68.625 C72.60132677 66.42567602 77.96123847 66.10959054 83.37890625 65.52734375 C86.79897658 65.02927526 89.76787583 64.20021868 93 63 C90.42973743 60.42973743 87.97109768 59.74639915 84.5625 58.5 C81.02983697 57.20534807 78.13617972 56.09078648 75 54 C75 53.34 75 52.68 75 52 C81.53787948 51.50863536 86.09210009 52.14063689 91.9765625 55.03125 C95.37268808 56.65719429 98.25096082 57.56168331 101.921875 56.3828125 C103.64579113 55.65876773 105.32760587 54.83619707 107 54 C106.71915428 58.02545534 106.21634296 59.74482626 103.5625 62.875 C101 65 101 65 99 65 C99 65.66 99 66.32 99 67 C96.69 68.32 94.38 69.64 92 71 C92 71.33 92 71.66 92 72 C94.64 72.33 97.28 72.66 100 73 C96.87854227 75.08097182 95.19797956 75.44752549 91.5625 76 C86.52020585 76.76823516 86.52020585 76.76823516 82 79 C81.18415432 82.05908413 81.18415432 82.05908413 81 85 C81.391875 84.60167969 81.78375 84.20335937 82.1875 83.79296875 C87.3609145 79.21048306 92.41119167 78.11936779 99.05566406 77.1184082 C104.14232701 76.30384991 107.92471686 74.90968687 112.203125 72.0859375 C114.12408074 70.92501208 115.80940106 70.4361812 118 70 C118 70.99 118 71.98 118 73 C116.63068984 74.17824363 115.25535924 75.35458041 113.80078125 76.42578125 C111.80528472 78.06123551 111.80528472 78.06123551 109.91828918 80.76626587 C103.66522327 88.2892499 92.50219522 93.65202695 82.90518188 94.87042236 C77.56324256 95.26216477 72.24360472 95.13243336 66.89453125 94.9765625 C65.16649634 94.9617995 63.43841608 94.95163491 61.71032715 94.94604492 C55.4103549 94.89431068 49.11134941 94.75470279 42.8125 94.625 C28.684375 94.41875 14.55625 94.2125 0 94 C0 62.98 0 31.96 0 0 Z " fill="#282828" transform="translate(93,135)"/>
<path d="M0 0 C32.67 0 65.34 0 99 0 C99 31.02 99 62.04 99 94 C74.81438797 94.20054405 74.81438797 94.20054405 64.44335938 94.24414062 C57.38807185 94.27394024 50.33311117 94.30905581 43.27807617 94.37719727 C37.58515547 94.4318337 31.89258565 94.4614871 26.19942284 94.47438622 C24.0358548 94.48356952 21.87230428 94.50150141 19.7088871 94.52865028 C-2.46038665 94.79559366 -2.46038665 94.79559366 -13 89 C-14.63109367 87.36890633 -14.24872283 85.55812778 -14.3125 83.3125 C-14.27065118 78.43711264 -13.27724039 75.74541759 -10 72 C-5.81323332 69.20882222 -2.21257011 70.23440819 2.55078125 70.81054688 C6.46623572 71.24345553 6.46623572 71.24345553 9.95703125 69.6953125 C11.37143926 67.39623731 11.21447472 65.64518818 11 63 C11.66 63 12.32 63 13 63 C12.505 60.525 12.505 60.525 12 58 C12.66 58 13.32 58 14 58 C13.505 55.525 13.505 55.525 13 53 C13.99 52.34 14.98 51.68 16 51 C15.61267315 47.70772177 15.00640812 46.00880641 13.02734375 43.2890625 C10.70894933 39.52781376 10.26103858 36.86992041 9.8125 32.5 C9.67457031 31.2315625 9.53664063 29.963125 9.39453125 28.65625 C9.26433594 27.4496875 9.13414062 26.243125 9 25 C8.79890625 23.90429688 8.5978125 22.80859375 8.390625 21.6796875 C7.95161515 18.66807995 8.36075523 17.50708023 10 15 C9.01 15.33 8.02 15.66 7 16 C4.7363436 14.59554165 2.9791315 12.8032087 1 11 C2.32 10.01 3.64 9.02 5 8 C4.39773952 3.78417661 3.42902856 3.42902856 0 0 Z " fill="#6E6E6E" transform="translate(252,135)"/>
<path d="M0 0 C7.93031766 5.66451262 13.86662946 13.772884 15.5390625 23.4921875 C16.58459237 35.16727104 15.96930221 45.27804673 8.6484375 55.00390625 C7.00811832 56.91427798 5.33683369 58.73068259 3.5390625 60.4921875 C10.8731926 68.25773701 16.02210697 70.15183295 26.5390625 70.4921875 C26.56592803 72.47128148 26.58539625 74.45047721 26.6015625 76.4296875 C26.61316406 77.53183594 26.62476563 78.63398438 26.63671875 79.76953125 C26.5390625 82.4921875 26.5390625 82.4921875 25.5390625 83.4921875 C16.32151315 84.32474034 8.1762542 84.25491092 0.5390625 78.4921875 C-1.110005 76.72436555 -2.75562379 74.95332252 -4.3984375 73.1796875 C-8.75008008 68.97639637 -11.55990733 67.97818117 -17.40112305 68.0559082 C-19.06688024 68.1384714 -20.73241955 68.22555366 -22.39770508 68.31713867 C-31.97050962 68.80115154 -38.84241633 65.87239717 -46.3359375 59.9296875 C-52.51039961 54.04710905 -57.45745392 45.00318997 -57.69921875 36.359375 C-58.0804592 19.2636603 -58.0804592 19.2636603 -53.4609375 12.4921875 C-53.02523438 11.80125 -52.58953125 11.1103125 -52.140625 10.3984375 C-40.3072254 -6.9313499 -17.67856075 -10.83162611 0 0 Z " fill="#050505" transform="translate(549.4609375,279.5078125)"/>
<path d="M0 0 C31.34177215 0 31.34177215 0 38.15625 5.8515625 C38.5996875 6.43679688 39.043125 7.02203125 39.5 7.625 C39.9640625 8.21539062 40.428125 8.80578125 40.90625 9.4140625 C43.96637877 13.85124922 43.5524169 18.7851845 43 24 C41.125 27.5 41.125 27.5 39 30 C38.34 30.99 37.68 31.98 37 33 C37.55429687 33.45890625 38.10859375 33.9178125 38.6796875 34.390625 C39.40414062 35.00421875 40.12859375 35.6178125 40.875 36.25 C41.59429687 36.85328125 42.31359375 37.4565625 43.0546875 38.078125 C45.79312277 40.78356707 46.85532901 42.75620528 47.30078125 46.5859375 C47.32794921 53.05191303 47.05319095 57.55667909 42.59375 62.5859375 C31.17873298 73.62404358 14.42310539 70 0 70 C0 46.9 0 23.8 0 0 Z " fill="#030303" transform="translate(349,276)"/>
<path d="M0 0 C18 0 18 0 21.92578125 3.41796875 C23.18920898 5.69018555 23.18920898 5.69018555 24.3125 8.1875 C25.24564191 9.9280248 26.18060834 11.66757238 27.1171875 13.40625 C27.81086426 14.77716797 27.81086426 14.77716797 28.51855469 16.17578125 C31.055004 21.01125352 34.02005202 25.57573082 36.9375 30.1875 C37.99044088 31.88798757 39.0413165 33.58975618 40.08984375 35.29296875 C42.70863672 39.54021471 45.35525462 43.7684074 48 48 C48.33 32.16 48.66 16.32 49 0 C53.62 0 58.24 0 63 0 C63 23.1 63 46.2 63 70 C44 70 44 70 39.87109375 66.1875 C38.57104492 63.70092773 38.57104492 63.70092773 37.4375 61 C36.50730493 59.15649269 35.57498285 57.31405721 34.640625 55.47265625 C33.98416992 54.08651123 33.98416992 54.08651123 33.31445312 52.67236328 C31.38200178 48.74357197 29.06391333 45.10877434 26.6875 41.4375 C25.94014594 40.24948982 25.19403294 39.06069793 24.44921875 37.87109375 C21.30908151 32.90797413 18.15311041 27.95488779 15 23 C14.67 38.84 14.34 54.68 14 71 C9.38 71 4.76 71 0 71 C0 47.57 0 24.14 0 0 Z " fill="#040404" transform="translate(289,377)"/>
<path d="M0 0 C34.92727273 0 34.92727273 0 42.5 7.4375 C46.42291934 12.66805912 47.91469038 17.41422924 47 24 C45.17935725 30.78603207 42.81853176 35.03281925 37 39 C40.28438781 45.0488851 44.13304559 50.58641758 48.125 56.1875 C49.38011903 57.95003476 50.63282196 59.71429316 51.8828125 61.48046875 C52.43340332 62.25285889 52.98399414 63.02524902 53.55126953 63.82104492 C54.88513239 65.82723401 55.97862264 67.82128874 57 70 C51.35682512 70.69257146 45.58277755 71.40011652 40 70 C36.59448266 67.14560455 34.88401729 63.85023367 32.95410156 59.88378906 C31.18083988 56.38264087 29.05662327 53.11134138 26.9375 49.8125 C26.54957275 49.15306396 26.16164551 48.49362793 25.76196289 47.81420898 C24.48133905 45.67835466 24.48133905 45.67835466 22 43 C18.535 42.505 18.535 42.505 15 42 C15 51.24 15 60.48 15 70 C10.05 70 5.1 70 0 70 C0 46.9 0 23.8 0 0 Z " fill="#080808" transform="translate(93,276)"/>
<path d="M0 0 C32.54285714 0 32.54285714 0 40.25 5.1875 C44.63014605 9.66719482 45.7544262 13.78983578 46.4375 19.9375 C46.18959819 25.41289645 44.20026607 30.69240388 40.3984375 34.6796875 C38.75 36.0625 38.75 36.0625 36 38 C37.27881713 40.66746682 38.6713909 43.10840021 40.35546875 45.5390625 C40.81010498 46.19769287 41.26474121 46.85632324 41.7331543 47.53491211 C42.45305542 48.56950562 42.45305542 48.56950562 43.1875 49.625 C43.67710205 50.33342041 44.1667041 51.04184082 44.67114258 51.77172852 C48.03299869 56.63019918 51.42593721 61.46636156 54.85546875 66.27734375 C56 68 56 68 56 69 C50.27246141 70.31053849 44.57569018 71.33310691 39 69 C32.36143667 62.83353954 28.09527797 53.99000434 23.97509766 46.01660156 C22.99685868 44.16389572 22.99685868 44.16389572 21 42 C17.535 41.505 17.535 41.505 14 41 C14 50.57 14 60.14 14 70 C9.38 70 4.76 70 0 70 C0 46.9 0 23.8 0 0 Z " fill="#050505" transform="translate(147,378)"/>
<path d="M0 0 C0.79075928 0.00523682 1.58151855 0.01047363 2.39624023 0.01586914 C3.67724609 0.02070313 3.67724609 0.02070313 4.98413086 0.02563477 C5.88196289 0.03401367 6.77979492 0.04239258 7.70483398 0.05102539 C8.6065332 0.05553711 9.50823242 0.06004883 10.43725586 0.06469727 C12.67234712 0.07652315 14.90730835 0.09300319 17.14233398 0.11352539 C20.26077305 8.35202145 23.37323493 16.59274348 26.47815609 24.83634377 C27.92018577 28.6643844 29.36423787 32.49163596 30.81298828 36.31713867 C32.21185679 40.01115351 33.60531254 43.7071687 34.99508858 47.40461349 C35.52541662 48.81267767 36.0576686 50.22001882 36.59190178 51.62660599 C37.34165097 53.60163014 38.08442708 55.5791486 38.82568359 57.55737305 C39.2498204 58.6810025 39.67395721 59.80463196 40.11094666 60.96231079 C41.14233398 64.11352539 41.14233398 64.11352539 42.14233398 70.11352539 C37.19233398 70.11352539 32.24233398 70.11352539 27.14233398 70.11352539 C24.17233398 61.69852539 24.17233398 61.69852539 21.14233398 53.11352539 C7.28233398 52.61852539 7.28233398 52.61852539 -6.85766602 52.11352539 C-7.84766602 55.41352539 -8.83766602 58.71352539 -9.85766602 62.11352539 C-10.83385308 64.78900104 -11.82541861 67.45917492 -12.85766602 70.11352539 C-17.80766602 70.11352539 -22.75766602 70.11352539 -27.85766602 70.11352539 C-27.07639439 66.20716727 -26.17115875 62.9585038 -24.81079102 59.25805664 C-24.3839502 58.09363037 -23.95710937 56.9292041 -23.51733398 55.72949219 C-23.04771747 54.46156885 -22.57782084 53.19374922 -22.10766602 51.92602539 C-21.62340971 50.6132975 -21.13919834 49.30055304 -20.6550293 47.98779297 C-16.74172429 37.40264319 -12.74982879 26.84713158 -8.73266602 16.30102539 C-8.44540649 15.54479889 -8.15814697 14.78857239 -7.86218262 14.00942993 C-7.04855683 11.86979715 -6.23113851 9.73165709 -5.41235352 7.59399414 C-4.94297363 6.36575928 -4.47359375 5.13752441 -3.98999023 3.87207031 C-2.46235593 0.1504791 -2.46235593 0.1504791 0 0 Z " fill="#060606" transform="translate(234.857666015625,376.886474609375)"/>
<path d="M0 0 C6.27 0 12.54 0 19 0 C21.76546398 6.10271148 24.3125475 12.23712325 26.6796875 18.50390625 C27.01493439 19.38545883 27.35018127 20.26701141 27.69558716 21.17527771 C28.75775187 23.97012888 29.81640095 26.76629661 30.875 29.5625 C31.57659912 31.40959023 32.27842044 33.25659608 32.98046875 35.10351562 C34.34719814 38.7005698 35.70989452 42.29911129 37.06933594 45.89892578 C38.31750885 49.2034226 39.5760563 52.50361422 40.84472656 55.80029297 C41.39910038 57.25097204 41.95346305 58.70165537 42.5078125 60.15234375 C42.89016556 61.1355233 42.89016556 61.1355233 43.28024292 62.13856506 C44.34123607 64.92866629 45 66.98345537 45 70 C40.05 70 35.1 70 30 70 C28.99600476 67.37646482 27.99665555 64.75132205 27 62.125 C26.71382813 61.37863281 26.42765625 60.63226563 26.1328125 59.86328125 C24 54.2265625 24 54.2265625 24 52 C14.76 52.33 5.52 52.66 -4 53 C-5.98 58.61 -7.96 64.22 -10 70 C-14.95 70 -19.9 70 -25 70 C-24.26571481 65.59428885 -23.54249308 62.37013514 -22.00634766 58.30517578 C-21.59567047 57.21028839 -21.18499329 56.115401 -20.76187134 54.98733521 C-20.31709442 53.81846771 -19.8723175 52.64960022 -19.4140625 51.4453125 C-18.95647552 50.22979706 -18.49888855 49.01428162 -18.0274353 47.76193237 C-16.81360276 44.53772477 -15.59321847 41.31603652 -14.37139893 38.09484863 C-13.13690396 34.83684794 -11.90852596 31.57654366 -10.6796875 28.31640625 C-8.50846367 22.55828654 -6.33186718 16.8022168 -4.15127563 11.04763794 C-2.76107415 7.36751941 -1.38130072 3.6834686 0 0 Z " fill="#060606" transform="translate(461,377)"/>
<path d="M0 0 C2.7829101 2.21584451 5.41738293 4.55475618 8 7 C6.58426179 10.39187279 4.95769034 12.09697541 2 14.25 C1.29875 14.77078125 0.5975 15.2915625 -0.125 15.828125 C-2 17 -2 17 -4 17 C-4.7425 16.236875 -5.485 15.47375 -6.25 14.6875 C-11.07469584 9.97245634 -14.76337044 8.79185153 -21.4375 8.5625 C-28.96530181 8.7594732 -32.43734153 10.3790993 -37.75 15.8125 C-42.3958027 22.39405382 -44.04170836 28.05697378 -43 36 C-41.23416515 43.13691585 -38.26685308 48.06083521 -32 52 C-26.9427225 54.47244678 -21.53133275 54.72444266 -16 54 C-13.74820833 53.16079939 -11.76548905 52.18073371 -9.69140625 50.97265625 C-8 50 -8 50 -5 49 C-4.67 48.01 -4.34 47.02 -4 46 C-0.56049636 46.61198376 1.51564485 47.92058847 4.25 50.0625 C4.95640625 50.61035156 5.6628125 51.15820312 6.390625 51.72265625 C7.18726563 52.35494141 7.18726563 52.35494141 8 53 C5.07741329 59.6634977 -0.64179891 63.69652796 -7.25 66.375 C-11.60107403 67.96854622 -11.60107403 67.96854622 -14.03125 68.16015625 C-17.40240347 69.59824751 -18.61101322 72.95753061 -20.25 76.0625 C-20.61351562 76.72572266 -20.97703125 77.38894531 -21.3515625 78.07226562 C-22.24616748 79.70845105 -23.12466067 81.35342724 -24 83 C-28.29 83 -32.58 83 -37 83 C-35.58597792 79.4649448 -34.45728055 76.94988979 -32.4375 73.875 C-30.88189276 71.50235276 -29.90855675 69.72567026 -29 67 C-30.134375 66.95875 -31.26875 66.9175 -32.4375 66.875 C-40.3048063 65.86031209 -46.58057301 60.30538499 -51.42578125 54.296875 C-58.26906887 44.3121278 -59.50930422 33.79709545 -58 22 C-57.11295626 18.60942166 -55.89212323 15.93377992 -54 13 C-53.443125 11.989375 -52.88625 10.97875 -52.3125 9.9375 C-39.34286177 -6.53744586 -18.23038612 -11.53422506 0 0 Z " fill="#070707" transform="translate(424,381)"/>
<path d="M0 0 C35.28205128 0 35.28205128 0 42.875 6.4375 C47.70035157 12.25630631 48.5962408 16.2612208 48.41796875 23.765625 C47.64948998 29.7123579 44.81943023 33.13003004 40.75 37.3125 C32.17237436 42.576043 25.63715272 42 15 42 C15 51.24 15 60.48 15 70 C10.05 70 5.1 70 0 70 C0 46.9 0 23.8 0 0 Z " fill="#090909" transform="translate(216,276)"/>
<path d="M0 0 C4.62 0 9.24 0 14 0 C14.01401855 2.17940186 14.01401855 2.17940186 14.02832031 4.40283203 C14.06825412 9.80402045 14.13402342 15.20464133 14.20751953 20.60546875 C14.23570929 22.94100645 14.2569337 25.2766392 14.27099609 27.61230469 C14.29245246 30.97380159 14.33911906 34.33415807 14.390625 37.6953125 C14.39185364 38.73615997 14.39308228 39.77700745 14.39434814 40.84939575 C14.51543517 46.87078533 14.99504596 50.40816115 19 55 C22.49026754 57.90855628 25.46113783 58.48713716 30.0078125 58.28125 C33.21955259 57.82782787 35.34687441 56.85101785 38 55 C41.72705534 49.50814141 41.47244801 44.09207985 41.51171875 37.6953125 C41.52966995 36.61619598 41.54762115 35.53707947 41.56611633 34.42526245 C41.62012867 30.99188091 41.6540867 27.55863769 41.6875 24.125 C41.720681 21.79164746 41.75517138 19.45831315 41.79101562 17.125 C41.87585032 11.41676659 41.94270534 5.70857358 42 0 C46.62 0 51.24 0 56 0 C56.1492891 7.18578186 56.25766257 14.3706438 56.32958984 21.55761719 C56.35960103 23.99788151 56.40042372 26.43803944 56.45263672 28.87792969 C57.01349665 55.77721187 57.01349665 55.77721187 50 64 C41.99437602 70.96214509 34.15271209 72.482648 23.69921875 72.30859375 C16.26426861 71.68836032 10.5995503 68.74914459 5.6137085 63.17939758 C0.0686972 55.6905703 -0.56981855 46.98838637 -0.390625 37.98828125 C-0.38496521 36.89404343 -0.37930542 35.7998056 -0.37347412 34.67240906 C-0.35129843 31.21863808 -0.30113722 27.76595101 -0.25 24.3125 C-0.22991072 21.95379115 -0.21166423 19.59506585 -0.1953125 17.23632812 C-0.1514953 11.49047544 -0.08259936 5.74542071 0 0 Z " fill="#030303" transform="translate(578,276)"/>
<path d="M0 0 C4.62 0 9.24 0 14 0 C14.01458252 1.45293457 14.02916504 2.90586914 14.04418945 4.40283203 C14.10225118 9.80395871 14.17948439 15.20467195 14.26245117 20.60546875 C14.29566333 22.94101237 14.32370676 25.27663553 14.34643555 27.61230469 C14.38004901 30.97365145 14.43237003 34.33427169 14.48828125 37.6953125 C14.49467117 38.73615997 14.5010611 39.77700745 14.50764465 40.84939575 C14.61683346 46.25839418 14.82822585 50.39573663 18 55 C22.76726853 57.95570649 26.39573923 58.44912053 31.91796875 57.57421875 C35.04270906 56.71242358 36.8233125 55.37456819 39 53 C40.62921682 49.5773176 41.25907294 46.80189234 41.31884766 43.02612305 C41.33871735 42.06550461 41.35858704 41.10488617 41.37905884 40.11515808 C41.39061005 39.0910231 41.40216125 38.06688812 41.4140625 37.01171875 C41.43342865 35.95338333 41.4527948 34.89504791 41.4727478 33.80464172 C41.53241248 30.43234252 41.57887693 27.06000894 41.625 23.6875 C41.66319181 21.39777177 41.70224424 19.10805772 41.7421875 16.81835938 C41.83810344 11.21235509 41.92218328 5.60628355 42 0 C46.62 0 51.24 0 56 0 C56.09947585 6.91931041 56.17175527 13.8381971 56.21972656 20.75805664 C56.23974175 23.10806538 56.26696244 25.45802496 56.30175781 27.80786133 C56.35072124 31.20145867 56.37307059 34.59439296 56.390625 37.98828125 C56.41127014 39.02519608 56.43191528 40.0621109 56.45318604 41.13044739 C56.45584232 49.92430125 54.82493034 58.22093793 48.8125 64.9375 C41.32732657 71.4929361 34.3854839 72.61576126 24.52734375 72.3203125 C17.45740773 71.67830281 11.10080978 69.03875614 6 64 C1.69340962 57.87952271 -0.13246485 52.32361602 -0.11352539 44.8425293 C-0.11344986 43.84186935 -0.11337433 42.84120941 -0.11329651 41.81022644 C-0.10813522 40.7423439 -0.10297394 39.67446136 -0.09765625 38.57421875 C-0.0962413 37.47149124 -0.09482635 36.36876373 -0.09336853 35.23262024 C-0.08778004 31.71755233 -0.07522959 28.20254859 -0.0625 24.6875 C-0.05748352 22.30143321 -0.05292087 19.91536543 -0.04882812 17.52929688 C-0.03781437 11.68617327 -0.02055758 5.84309751 0 0 Z " fill="#030303" transform="translate(275,276)"/>
<path d="M0 0 C3.91008391 2.26889484 7.14132011 5.17869838 10.3359375 8.35546875 C9.40003246 9.46098765 8.46213892 10.56482328 7.5234375 11.66796875 C6.74033203 12.59029297 6.74033203 12.59029297 5.94140625 13.53125 C4.46421281 15.20971554 2.93554619 16.79428909 1.3359375 18.35546875 C-1.48555543 17.1617602 -3.12957787 15.92169306 -5.4140625 13.79296875 C-9.05826715 10.68522062 -11.89656433 10.27857362 -16.6640625 10.35546875 C-19.3110497 11.75231881 -19.3110497 11.75231881 -20.6640625 14.35546875 C-21.49756201 17.31206748 -21.49756201 17.31206748 -20.6640625 20.35546875 C-16.41752687 24.45197317 -12.06065383 26.76455198 -6.7265625 29.16796875 C0.79737302 32.7415384 5.57451876 36.55300137 9.7734375 43.85546875 C11.24014694 50.37417736 10.56268221 55.29373321 7.67578125 61.2421875 C4.79659205 65.78341594 0.37593846 69.45471754 -4.6640625 71.35546875 C-7.4224114 71.60205711 -10.03160642 71.73649203 -12.7890625 71.73046875 C-13.92649902 71.72805176 -13.92649902 71.72805176 -15.08691406 71.72558594 C-23.38339008 71.54499683 -30.65791773 69.36161352 -36.6640625 63.35546875 C-37.36154833 62.03799551 -38.03366207 60.70632682 -38.6640625 59.35546875 C-37.21188574 57.84950767 -35.75213389 56.35084771 -34.2890625 54.85546875 C-33.47695313 54.02015625 -32.66484375 53.18484375 -31.828125 52.32421875 C-29.6640625 50.35546875 -29.6640625 50.35546875 -27.6640625 50.35546875 C-25.99739583 52.02213542 -24.33072917 53.68880208 -22.6640625 55.35546875 C-19.59511879 57.25652691 -17.19204819 57.65172221 -13.6015625 57.66796875 C-12.31572266 57.69310547 -12.31572266 57.69310547 -11.00390625 57.71875 C-8.61907911 57.53262262 -8.61907911 57.53262262 -6.88671875 56.05078125 C-4.79298398 53.14764741 -5.18151496 50.79361997 -5.6640625 47.35546875 C-9.97896186 43.16479874 -15.31264074 40.95034219 -20.69335938 38.44335938 C-26.78048677 35.51807635 -32.73567068 32.21720031 -35.19140625 25.51171875 C-36.50463237 19.5208029 -36.69459249 13.58141352 -34.1015625 7.98046875 C-24.3767412 -2.49241573 -13.74415167 -6.16040455 0 0 Z " fill="#070707" transform="translate(583.6640625,377.64453125)"/>
<path d="M0 0 C13.53 0 27.06 0 41 0 C41 3.96 41 7.92 41 12 C32.09 12 23.18 12 14 12 C14 17.61 14 23.22 14 29 C21.59 29 29.18 29 37 29 C37 32.96 37 36.92 37 41 C29.41 41 21.82 41 14 41 C14 46.61 14 52.22 14 58 C22.91 58 31.82 58 41 58 C41 62.29 41 66.58 41 71 C27.47 71 13.94 71 0 71 C0 47.57 0 24.14 0 0 Z " fill="#090909" transform="translate(609,377)"/>
<path d="M0 0 C13.53 0 27.06 0 41 0 C41 3.96 41 7.92 41 12 C32.09 12 23.18 12 14 12 C14 17.28 14 22.56 14 28 C21.59 28 29.18 28 37 28 C37 32.29 37 36.58 37 41 C29.41 41 21.82 41 14 41 C14 46.61 14 52.22 14 58 C22.91 58 31.82 58 41 58 C41 61.96 41 65.92 41 70 C27.47 70 13.94 70 0 70 C0 46.9 0 23.8 0 0 Z " fill="#050505" transform="translate(652,276)"/>
<path d="M0 0 C13.53 0 27.06 0 41 0 C41 3.96 41 7.92 41 12 C32.42 12 23.84 12 15 12 C15 17.28 15 22.56 15 28 C22.26 28 29.52 28 37 28 C37 31.96 37 35.92 37 40 C29.41 40 21.82 40 14 40 C14 45.94 14 51.88 14 58 C22.91 58 31.82 58 41 58 C41 61.96 41 65.92 41 70 C27.47 70 13.94 70 0 70 C0 46.9 0 23.8 0 0 Z " fill="#050505" transform="translate(159,276)"/>
<path d="M0 0 C5.37067655 4.43811138 8.39921697 10.31889887 9.28125 17.19140625 C9.58299978 24.4208281 7.81186919 31.00066105 3.4375 36.8125 C-1.31422676 41.87003096 -7.77887681 44.13345454 -14.625 44.5 C-21.11587179 44.14511988 -25.96578443 41.44105102 -30.3125 36.6875 C-35.60128023 29.87117016 -37.01456821 23.47805848 -36 15 C-34.23071992 7.35537474 -30.59714822 2.25342451 -24 -2 C-15.4478721 -5.45085863 -7.921386 -4.43127039 0 0 Z " fill="#FAFAFA" transform="translate(542,291)"/>
<path d="M0 0 C13.53 0 27.06 0 41 0 C41 3.96 41 7.92 41 12 C32.09 12 23.18 12 14 12 C14 17.61 14 23.22 14 29 C21.59 29 29.18 29 37 29 C37 32.96 37 36.92 37 41 C29.74 41 22.48 41 15 41 C15 50.9 15 60.8 15 71 C10.05 71 5.1 71 0 71 C0 47.57 0 24.14 0 0 Z " fill="#0A0A0A" transform="translate(93,377)"/>
<path d="M0 0 C4.95 0 9.9 0 15 0 C15 18.81 15 37.62 15 57 C23.58 57 32.16 57 41 57 C41 61.29 41 65.58 41 70 C27.47 70 13.94 70 0 70 C0 46.9 0 23.8 0 0 Z " fill="#090909" transform="translate(410,276)"/>
<path d="M0 0 C4.95 0 9.9 0 15 0 C15 23.43 15 46.86 15 71 C10.05 71 5.1 71 0 71 C0 47.57 0 24.14 0 0 Z " fill="#0F0F0F" transform="translate(517,377)"/>
<path d="M0 0 C4.62 0 9.24 0 14 0 C14 23.1 14 46.2 14 70 C9.38 70 4.76 70 0 70 C0 46.9 0 23.8 0 0 Z " fill="#020202" transform="translate(464,276)"/>
<path d="M0 0 C2.86688248 0.09096556 5.70300515 0.23767988 8.5625 0.4375 C9.36880859 0.48970703 10.17511719 0.54191406 11.00585938 0.59570312 C13.00421738 0.72577376 15.00215386 0.86229056 17 1 C17 1.99 17 2.98 17 4 C15.35 4 13.7 4 12 4 C11.9071875 5.546875 11.9071875 5.546875 11.8125 7.125 C10.83160824 11.80309919 9.43775007 13.71171732 6 17 C3.69181012 18.27117704 1.49986494 19.11769473 -1 20 C-1 20.66 -1 21.32 -1 22 C-0.22914063 22.26554688 0.54171875 22.53109375 1.3359375 22.8046875 C2.84027344 23.33449219 2.84027344 23.33449219 4.375 23.875 C5.37273437 24.22304688 6.37046875 24.57109375 7.3984375 24.9296875 C10 26 10 26 12 28 C11.84261608 30.99029445 11.22813196 32.67681305 9.5 35.125 C4.07409231 39.19443077 -2.27540854 40.64659533 -9 40 C-12.13343209 39.02515446 -13.67622995 38.32377005 -16 36 C-15.9375 33.625 -15.9375 33.625 -15 31 C-12.36182638 28.50067762 -10.45378026 27.15126009 -7 26 C-5.47839986 22.3962102 -5 19.94779314 -5 16 C-5.66 15.01 -6.32 14.02 -7 13 C-6.91694722 8.51514988 -6.4743244 6.54547306 -3.5 3.125 C-2.675 2.42375 -1.85 1.7225 -1 1 C-0.67 0.67 -0.34 0.34 0 0 Z " fill="#131313" transform="translate(144,574)"/>
<path d="M0 0 C2.97 0 5.94 0 9 0 C8.36757331 4.72502701 7.08186437 8.90570197 5.4375 13.375 C5.20353516 14.01566406 4.96957031 14.65632813 4.72851562 15.31640625 C4.15700381 16.8793161 3.57915771 18.43990727 3 20 C3.804375 19.195625 4.60875 18.39125 5.4375 17.5625 C9 14 9 14 11.4375 13.75 C12.7059375 13.87375 12.7059375 13.87375 14 14 C16.462906 17.69435899 16.25659571 19.21199214 15.66796875 23.45703125 C13.79069791 30.60383428 9.30370262 37.16833762 3 41 C-0.02299292 41.8258692 -2.87480131 42.3809766 -6 42 C-7.83203125 40.9375 -7.83203125 40.9375 -9 39 C-9.02185618 30.90228405 -4.53085649 23.19466221 -1.41796875 15.89648438 C-0.96808594 14.81302734 -0.51820313 13.72957031 -0.0546875 12.61328125 C0.36312988 11.63141846 0.78094727 10.64955566 1.21142578 9.63793945 C2.05514609 6.81552522 2.01750572 5.70483942 1 3 C0.67 2.01 0.34 1.02 0 0 Z " fill="#111111" transform="translate(157,495)"/>
<path d="M0 0 C9.24 0 18.48 0 28 0 C27.67 2.64 27.34 5.28 27 8 C26.34 8 25.68 8 25 8 C24.505 6.02 24.505 6.02 24 4 C20.04 4 16.08 4 12 4 C11.38125 5.4025 10.7625 6.805 10.125 8.25 C8.82047874 11.20691485 7.46652017 14.11980724 6 17 C12.77879847 16.89937511 12.77879847 16.89937511 18.625 13.9375 C19.305625 12.9784375 19.305625 12.9784375 20 12 C20.66 12.33 21.32 12.66 22 13 C20.68 16.63 19.36 20.26 18 24 C17.34 24 16.68 24 16 24 C15.67 22.68 15.34 21.36 15 20 C11.7 19.67 8.4 19.34 5 19 C3.68 24.28 2.36 29.56 1 35 C8.43307056 34.74659987 13.49798494 34.52685538 19.4765625 29.9609375 C19.97929688 29.64382813 20.48203125 29.32671875 21 29 C21.66 29.33 22.32 29.66 23 30 C21.95205222 33.37550497 20.69288037 35.67521119 18 38 C12.72317004 39.04962103 7.52676088 38.7522954 2.1875 38.5 C0.71689311 38.45984691 -0.75381843 38.42334924 -2.22460938 38.390625 C-5.81858854 38.3027065 -9.40863172 38.16481436 -13 38 C-13 37.34 -13 36.68 -13 36 C-11.94683594 35.74863281 -10.89367187 35.49726562 -9.80859375 35.23828125 C-5.97425748 33.58919785 -4.93661729 31.45159951 -3.34765625 27.66796875 C-2.55925025 25.51740918 -1.79833384 23.35661019 -1.0625 21.1875 C-0.66482422 20.10662109 -0.26714844 19.02574219 0.14257812 17.91210938 C1.99590858 12.71576632 3.22686572 8.56669835 3 3 C2.01 2.67 1.02 2.34 0 2 C0 1.34 0 0.68 0 0 Z " fill="#161616" transform="translate(107,563)"/>
<path d="M0 0 C0.99 0 1.98 0 3 0 C1.53533207 4.69359497 -0.04645102 9.22696423 -2.125 13.6875 C-3.70032496 17.1147337 -4.61188625 20.21589092 -5 24 C-3.35 23.01 -1.7 22.02 0 21 C-2.04109589 28.06533193 -2.04109589 28.06533193 -5 30 C-7 30 -7 30 -9 29 C-10.75 26.4375 -10.75 26.4375 -12 24 C-12.721875 24.804375 -13.44375 25.60875 -14.1875 26.4375 C-17.01010816 29.00920966 -18.23872509 29.89834392 -22 30 C-24 28 -24 28 -24.375 24.875 C-23.53603516 16.20569667 -18.55562977 10.45448883 -12 5 C-9.19549228 3.3400786 -7.65414909 2.95310496 -4.3125 2.5 C-3.219375 2.335 -2.12625 2.17 -1 2 C-0.67 1.34 -0.34 0.68 0 0 Z " fill="#1E1E1E" transform="translate(183,572)"/>
<path d="M0 0 C-0.49371094 1.08539062 -0.98742187 2.17078125 -1.49609375 3.2890625 C-2.14359535 4.73421099 -2.79071036 6.17953273 -3.4375 7.625 C-3.92573242 8.69427734 -3.92573242 8.69427734 -4.42382812 9.78515625 C-6.23771104 13.86171786 -7.49805744 17.51786507 -8 22 C-6.35 21.01 -4.7 20.02 -3 19 C-5.06639839 26.15291751 -5.06639839 26.15291751 -8 28 C-10.5625 28 -10.5625 28 -13 27 C-14.3125 24.4375 -14.3125 24.4375 -15 22 C-15.53625 22.804375 -16.0725 23.60875 -16.625 24.4375 C-19 27 -19 27 -22.125 27.9375 C-23.548125 27.9684375 -23.548125 27.9684375 -25 28 C-27 26 -27 26 -27.4375 22.9375 C-26.53318406 14.79865656 -22.09056431 9.54120535 -15.96484375 4.41015625 C-11.36459318 1.10858477 -5.57742344 -1.85914115 0 0 Z " fill="#151515" transform="translate(178,638)"/>
<path d="M0 0 C9.24 0 18.48 0 28 0 C27.67 2.97 27.34 5.94 27 9 C26.34 9 25.68 9 25 9 C24.34 7.35 23.68 5.7 23 4 C19.37 4 15.74 4 12 4 C11.65066406 4.84304688 11.30132812 5.68609375 10.94140625 6.5546875 C10.48636719 7.65039062 10.03132813 8.74609375 9.5625 9.875 C8.88380859 11.51082031 8.88380859 11.51082031 8.19140625 13.1796875 C7.50456537 14.80558624 6.78934113 16.42131774 6 18 C7.60520004 17.93976735 9.20934327 17.85091401 10.8125 17.75 C11.70582031 17.70359375 12.59914063 17.6571875 13.51953125 17.609375 C16.16053515 17.20878584 16.16053515 17.20878584 17.82421875 14.953125 C18.21222656 14.30859375 18.60023437 13.6640625 19 13 C19.99 13.33 20.98 13.66 22 14 C20.68 17.63 19.36 21.26 18 25 C17.34 25 16.68 25 16 25 C15.67 23.68 15.34 22.36 15 21 C11.7 21 8.4 21 5 21 C3.68 25.62 2.36 30.24 1 35 C2.98 35.33 4.96 35.66 7 36 C7 36.66 7 37.32 7 38 C0.4 38 -6.2 38 -13 38 C-13 37.34 -13 36.68 -13 36 C-11.92234375 35.67902344 -10.8446875 35.35804688 -9.734375 35.02734375 C-6.52782509 33.64445855 -5.31262086 32.37285893 -3.890625 29.19140625 C-3.31564757 27.65868782 -2.76981908 26.11479281 -2.25 24.5625 C-1.9605249 23.76150879 -1.6710498 22.96051758 -1.37280273 22.13525391 C0.84552557 15.85952954 2.65710029 9.52265572 4 3 C2.68 2.67 1.36 2.34 0 2 C0 1.34 0 0.68 0 0 Z " fill="#0D0D0D" transform="translate(107,627)"/>
<path d="M0 0 C1.9375 1 1.9375 1 3.1875 4.0625 C3.435 5.031875 3.6825 6.00125 3.9375 7 C4.45699219 6.48308594 4.97648437 5.96617187 5.51171875 5.43359375 C6.20910156 4.77488281 6.90648437 4.11617187 7.625 3.4375 C8.30949219 2.77621094 8.99398438 2.11492188 9.69921875 1.43359375 C11.9375 0 11.9375 0 14.64453125 0.22265625 C16.9375 1 16.9375 1 17.9375 2 C17.55133651 7.56777538 15.95062994 11.61775684 13.375 16.4375 C13.04564453 17.07365234 12.71628906 17.70980469 12.37695312 18.36523438 C11.57296752 19.91494576 10.75652334 21.45818322 9.9375 23 C11.9175 21.68 13.8975 20.36 15.9375 19 C13.82679889 25.00738007 13.82679889 25.00738007 10.9375 27 C7.25 27.6875 7.25 27.6875 3.9375 28 C2.75554188 24.50549424 2.89992595 24.08286258 4.5546875 20.43359375 C5.29510005 19.0947474 6.04821218 17.76286199 6.8125 16.4375 C9.71371768 11.37788437 9.71371768 11.37788437 11.9375 6 C10.844375 6.433125 9.75125 6.86625 8.625 7.3125 C7.70267578 7.67794922 7.70267578 7.67794922 6.76171875 8.05078125 C3.29158723 9.85643855 1.63878294 12.16310296 0.33203125 15.79296875 C0.07099609 16.50517578 -0.19003906 17.21738281 -0.45898438 17.95117188 C-0.72001953 18.68916016 -0.98105469 19.42714844 -1.25 20.1875 C-1.52263672 20.93708984 -1.79527344 21.68667969 -2.07617188 22.45898438 C-2.74576096 24.30329116 -3.40513721 26.15130012 -4.0625 28 C-5.7125 27.67 -7.3625 27.34 -9.0625 27 C-8.24868568 21.91132196 -6.22435993 17.60877672 -4.12109375 12.9375 C-3.07990253 10.04829042 -2.84479699 8.03667784 -3.0625 5 C-3.7225 4.67 -4.3825 4.34 -5.0625 4 C-5.0625 3.34 -5.0625 2.68 -5.0625 2 C-2.0625 0 -2.0625 0 0 0 Z " fill="#0E0E0E" transform="translate(251.0625,638)"/>
<path d="M0 0 C5.94 0 11.88 0 18 0 C16 2 16 2 13.60546875 3.07421875 C9.76865988 5.91012096 8.85832995 9.40741282 7.3125 13.8125 C7.01794922 14.60720703 6.72339844 15.40191406 6.41992188 16.22070312 C5.59083676 18.47320629 4.79021273 20.73361152 4 23 C3.60425781 24.12019531 3.20851563 25.24039063 2.80078125 26.39453125 C1.97742252 29.07345941 1.83618188 31.21509201 2 34 C7.70480127 34.09243891 11.22517626 33.28600192 15.5625 29.4375 C16.72633912 28.30995995 17.8788662 27.17001157 19 26 C19.66 26.33 20.32 26.66 21 27 C19.54451028 30.90507979 17.94120076 34.01514981 15 37 C10.17365641 38.27645081 5.57538359 37.94774316 0.625 37.625 C-0.68339844 37.57988281 -1.99179688 37.53476562 -3.33984375 37.48828125 C-6.56457191 37.37059044 -9.77993695 37.20645502 -13 37 C-13 36.34 -13 35.68 -13 35 C-11.94554688 34.74863281 -10.89109375 34.49726562 -9.8046875 34.23828125 C-5.96953601 32.58926271 -4.95069789 30.46007833 -3.3828125 26.66796875 C-2.60362698 24.51725771 -1.85182729 22.35646523 -1.125 20.1875 C-0.73570313 19.10662109 -0.34640625 18.02574219 0.0546875 16.91210938 C1.81321125 11.93878438 3.23514083 7.23169472 4 2 C2.68 1.67 1.36 1.34 0 1 C0 0.67 0 0.34 0 0 Z " fill="#0D0D0D" transform="translate(107,499)"/>
<path d="M0 0 C12.17981073 -0.49211356 12.17981073 -0.49211356 15.890625 1.734375 C18.23182434 4.24899652 18.66057614 5.13079614 18.5625 8.5 C18.3812822 11.74060072 18.14326063 12.80239913 16.1875 15.5 C11.1442508 18.95822802 5.89493984 18.06935223 0 18 C0 12.06 0 6.12 0 0 Z " fill="#F9F9F9" transform="translate(363,316)"/>
<path d="M0 0 C12.24185013 -0.40357748 12.24185013 -0.40357748 17 3 C18.56941198 4.56941198 18.2449847 6.14134994 18.3125 8.3125 C18.34988281 9.09238281 18.38726562 9.87226563 18.42578125 10.67578125 C17.81914099 13.98725791 16.73549643 15.06363736 14 17 C9.2805118 17.53387876 4.76525513 17.17649093 0 17 C0 11.39 0 5.78 0 0 Z " fill="#FBFBFB" transform="translate(231,288)"/>
<path d="M0 0 C10.98214286 -0.66964286 10.98214286 -0.66964286 14.6875 2.0625 C17 5 17 5 17.5625 8.5 C16.98123073 12.11678657 16.26791577 14.14410607 14 17 C9.36297289 18.5456757 4.87528349 18.05735628 0 18 C0 12.06 0 6.12 0 0 Z " fill="#F6F6F6" transform="translate(161,389)"/>
<path d="M0 0 C2 3 2 3 2 6 C1 9 1 9 -1.5625 10.75 C-5.35841498 12.13033272 -9.05989843 13.11687379 -13 14 C-13 16.64 -13 19.28 -13 22 C-9.13351728 20.95902388 -5.50538557 19.96301592 -2 18 C-6.12521539 26.09764503 -6.12521539 26.09764503 -11 28 C-14.4010144 27.76271993 -15.569534 27.430466 -18 25 C-19.3826503 17.43180891 -17.20496281 11.25211575 -13 5 C-9.33136135 0.51498847 -5.82296354 -0.89584055 0 0 Z " fill="#121212" transform="translate(259,574)"/>
<path d="M0 0 C3.1875 0.875 3.1875 0.875 4.1875 1.875 C4.22842937 4.20797433 4.22991723 6.54205225 4.1875 8.875 C-0.77534034 11.24613483 -5.27199887 13.30674347 -10.8125 13.875 C-10.4825 16.845 -10.1525 19.815 -9.8125 22.875 C-4.24532467 20.52043677 -4.24532467 20.52043677 1.1875 17.875 C-0.20541878 22.75021572 -2.64395441 25.06924816 -6.8125 27.875 C-10.0625 28.3125 -10.0625 28.3125 -12.8125 27.875 C-15.43088421 25.25661579 -15.17071377 23.96433031 -15.25 20.3125 C-15.11116498 12.59327288 -12.42120235 7.1305144 -6.9375 1.75 C-3.8125 -0.125 -3.8125 -0.125 0 0 Z " fill="#1E1E1E" transform="translate(252.8125,509.125)"/>
<path d="M0 0 C1 1 1 1 1.125 3.9375 C1 7 1 7 0 9 C-1.9493686 9.7866377 -3.93601522 10.48243057 -5.9375 11.125 C-7.01902344 11.47820313 -8.10054687 11.83140625 -9.21484375 12.1953125 C-12 13 -12 13 -14 13 C-13.67 15.64 -13.34 18.28 -13 21 C-8.78087253 20.5205537 -6.20336822 19.83374881 -3 17 C-3.72277189 21.37467194 -5.81107108 23.08824182 -9.15625 25.7890625 C-11 27 -11 27 -13.75 27.625 C-16 27 -16 27 -17.8125 25.5 C-19.97408471 20.94929535 -19.73029276 17.10324316 -18.12109375 12.46875 C-14.39393715 4.30098769 -9.83307809 -2.94992343 0 0 Z " fill="#161616" transform="translate(218,639)"/>
<path d="M0 0 C2 2 2 2 2.125 5.625 C2.08375 6.73875 2.0425 7.8525 2 9 C0.43979133 9.65134925 -1.12328579 10.29582964 -2.6875 10.9375 C-3.55761719 11.29714844 -4.42773438 11.65679688 -5.32421875 12.02734375 C-7.88179265 12.9570312 -10.3221323 13.54162625 -13 14 C-12.67 16.31 -12.34 18.62 -12 21 C-10.26424351 21.87436418 -10.26424351 21.87436418 -8 22 C-5.36375566 20.10770734 -5.36375566 20.10770734 -3 18 C-2.34 18 -1.68 18 -1 18 C-2.76084062 21.9618914 -5.0293555 26.01467775 -9 28 C-12 28.1875 -12 28.1875 -15 28 C-17.61838421 25.38161579 -17.35821377 24.08933031 -17.4375 20.4375 C-17.30939177 13.31468246 -15.19330119 8.64704104 -10.54296875 3.3359375 C-7.16331049 0.14354262 -4.56459285 -0.72618523 0 0 Z " fill="#131313" transform="translate(327,638)"/>
<path d="M0 0 C11.0438247 -0.60680356 11.0438247 -0.60680356 15.25 2.0625 C17.45970402 5.77164604 17.68357791 7.74662636 17 12 C15.38671875 14.69921875 15.38671875 14.69921875 13 17 C8.5791491 17.66739899 4.4960002 17.22480001 0 17 C0 11.39 0 5.78 0 0 Z " fill="#F9F9F9" transform="translate(108,288)"/>
<path d="M0 0 C1.875 1.0625 1.875 1.0625 3 3 C2.6875 6.6875 2.6875 6.6875 2 10 C0.06441401 10.67220351 -1.87354372 11.33758077 -3.8125 12 C-4.89144531 12.37125 -5.97039062 12.7425 -7.08203125 13.125 C-10 14 -10 14 -13 14 C-12.67 16.31 -12.34 18.62 -12 21 C-9.70705512 21.85974801 -9.70705512 21.85974801 -7 22 C-4.7914234 20.12491838 -4.7914234 20.12491838 -3 18 C-2.34 18 -1.68 18 -1 18 C-2.39678499 22.44431588 -4.31245719 25.13191114 -8 28 C-11.8125 28.3125 -11.8125 28.3125 -15 28 C-17.50499695 24.24250457 -17.71437563 20.34578511 -17 16 C-14.61990673 9.11473017 -8.91198058 -2.22799514 0 0 Z " fill="#151515" transform="translate(192,509)"/>
<path d="M0 0 C0 0.66 0 1.32 0 2 C-2.10320063 2.50404808 -4.20759791 3.00310508 -6.3125 3.5 C-8.07013672 3.91765625 -8.07013672 3.91765625 -9.86328125 4.34375 C-13 5 -13 5 -16 5 C-13.25157976 8.50660513 -9.34064602 9.66425151 -5.3125 11.1875 C-4.61060547 11.46013672 -3.90871094 11.73277344 -3.18554688 12.01367188 C-1.45975765 12.68285545 0.26976959 13.34238475 2 14 C2 14.99 2 15.98 2 17 C-5.0677939 18.87973242 -12.06574751 20.43796393 -19.30859375 21.47265625 C-22.06255729 22.01225723 -24.43400517 22.87766833 -27 24 C-26.57847656 23.55269531 -26.15695313 23.10539062 -25.72265625 22.64453125 C-21.48568532 17.99857545 -21.48568532 17.99857545 -20 12 C-19.65464486 7.62550153 -18.02179656 4.63471677 -15.1640625 1.3828125 C-10.68286843 -1.48062198 -5.09916053 -0.47662776 0 0 Z " fill="#EFEFEF" transform="translate(184,182)"/>
<path d="M0 0 C0.66 0 1.32 0 2 0 C3.34117853 3.60129621 4.6715839 7.20647859 6 10.8125 C6.3815625 11.83666016 6.763125 12.86082031 7.15625 13.91601562 C7.5171875 14.89892578 7.878125 15.88183594 8.25 16.89453125 C8.75273437 18.25348511 8.75273437 18.25348511 9.265625 19.63989258 C10 22 10 22 10 25 C4.06 25 -1.88 25 -8 25 C-6.43889635 16.25781959 -3.21518143 8.24016625 0 0 Z " fill="#F3F3F3" transform="translate(470,392)"/>
<path d="M0 0 C0.66 0 1.32 0 2 0 C3.34117853 3.60129621 4.6715839 7.20647859 6 10.8125 C6.3815625 11.83666016 6.763125 12.86082031 7.15625 13.91601562 C7.5171875 14.89892578 7.878125 15.88183594 8.25 16.89453125 C8.75273437 18.25348511 8.75273437 18.25348511 9.265625 19.63989258 C10 22 10 22 10 25 C4.06 25 -1.88 25 -8 25 C-7.29221269 21.46106346 -6.55946768 18.48577256 -5.37109375 15.13671875 C-5.05849609 14.25048828 -4.74589844 13.36425781 -4.42382812 12.45117188 C-3.9355957 11.0831543 -3.9355957 11.0831543 -3.4375 9.6875 C-3.10814453 8.75615234 -2.77878906 7.82480469 -2.43945312 6.86523438 C-1.62932179 4.57573277 -0.81608317 2.28738542 0 0 Z " fill="#F3F3F3" transform="translate(241,392)"/>
<path d="M0 0 C0.99 0 1.98 0 3 0 C2.47731534 2.76276177 1.89130413 5.3260876 1 8 C2.98 8 4.96 8 7 8 C7 8.99 7 9.98 7 11 C4.36 11 1.72 11 -1 11 C-1.12246094 11.68449219 -1.24492187 12.36898437 -1.37109375 13.07421875 C-2.08424597 16.39192689 -3.04853865 19.57436537 -4.0625 22.8125 C-4.42472656 23.97394531 -4.78695312 25.13539063 -5.16015625 26.33203125 C-5.43730469 27.21246094 -5.71445313 28.09289062 -6 29 C-5.05125 28.34 -4.1025 27.68 -3.125 27 C0 25 0 25 2 25 C0.43216484 29.23315493 -2.38306504 31.42641166 -6 34 C-9.375 34.8125 -9.375 34.8125 -12 35 C-13.01187664 31.20766234 -12.98208839 29.00643848 -11.56640625 25.35546875 C-11.0878418 24.09379883 -11.0878418 24.09379883 -10.59960938 22.80664062 C-10.25736328 21.94232422 -9.91511719 21.07800781 -9.5625 20.1875 C-9.22412109 19.30384766 -8.88574219 18.42019531 -8.53710938 17.50976562 C-7.70256229 15.33524152 -6.85663867 13.16589511 -6 11 C-7.32 11 -8.64 11 -10 11 C-10 10.01 -10 9.02 -10 8 C-8.02 8 -6.04 8 -4 8 C-3.71125 7.236875 -3.4225 6.47375 -3.125 5.6875 C-2 3 -2 3 0 0 Z " fill="#161616" transform="translate(234,567)"/>
<path d="M0 0 C0.99 0 1.98 0 3 0 C2.67 2.31 2.34 4.62 2 7 C3.98 7 5.96 7 8 7 C7.67 7.99 7.34 8.98 7 10 C4.69 10.33 2.38 10.66 0 11 C-1.98 16.61 -3.96 22.22 -6 28 C-2.86615008 26.74646003 0.03145514 25.53924548 3 24 C1.4928842 28.06921267 -1.33375958 30.79860056 -5 33 C-8.875 33.8125 -8.875 33.8125 -12 34 C-13.16514544 30.6092579 -12.84338928 28.76880023 -11.56640625 25.453125 C-11.24736328 24.60878906 -10.92832031 23.76445313 -10.59960938 22.89453125 C-10.25736328 22.02183594 -9.91511719 21.14914062 -9.5625 20.25 C-9.22412109 19.36183594 -8.88574219 18.47367188 -8.53710938 17.55859375 C-7.70109106 15.36846127 -6.85514209 13.18272086 -6 11 C-7.32 10.67 -8.64 10.34 -10 10 C-10 9.34 -10 8.68 -10 8 C-8.3603125 7.4121875 -8.3603125 7.4121875 -6.6875 6.8125 C-3.02816398 5.28102738 -1.88912893 3.49488852 0 0 Z " fill="#141414" transform="translate(192,632)"/>
<path d="M0 0 C-4.05732629 12.90596753 -8.9919073 25.43802049 -14 38 C-13.21625 37.34 -12.4325 36.68 -11.625 36 C-9 34 -9 34 -7 34 C-7.99815686 37.59336471 -8.94825458 38.95725379 -11.875 41.375 C-15 43 -15 43 -17.375 42.75 C-17.91125 42.5025 -18.4475 42.255 -19 42 C-18.5004817 33.14983877 -14.81369563 25.55554576 -11.41796875 17.46679688 C-8.07306343 9.4019251 -8.07306343 9.4019251 -9 1 C-5.91810344 0.08684546 -3.20344581 -0.04250011 0 0 Z " fill="#111111" transform="translate(206,559)"/>
<path d="M0 0 C0.99 0 1.98 0 3 0 C2.34 2.31 1.68 4.62 1 7 C2.98 7 4.96 7 7 7 C7 7.99 7 8.98 7 10 C4.36 10 1.72 10 -1 10 C-1.2475 11.27875 -1.495 12.5575 -1.75 13.875 C-2.91164561 19.169747 -4.86340266 24.03189259 -7 29 C-5.88625 28.360625 -4.7725 27.72125 -3.625 27.0625 C-1.76502913 25.99473894 0.08142937 24.95928532 2 24 C1.7416116 27.48824341 0.73533264 28.24214247 -1.9375 30.6875 C-6.08702863 33.82081753 -7.85680104 34.11180867 -13 34 C-12.46870624 28.02798909 -11.15389059 23.05383257 -8.9375 17.5 C-8.51500977 16.40945313 -8.51500977 16.40945313 -8.08398438 15.296875 C-7.39741552 13.52808745 -6.69986318 11.76356959 -6 10 C-6.99 10 -7.98 10 -9 10 C-9 9.34 -9 8.68 -9 8 C-7.88625 7.690625 -7.88625 7.690625 -6.75 7.375 C-3.22111034 5.61055517 -2.12284427 3.25502787 0 0 Z " fill="#101010" transform="translate(231,503)"/>
<path d="M0 0 C0.99 0.33 1.98 0.66 3 1 C2.34 2.98 1.68 4.96 1 7 C2.98 7 4.96 7 7 7 C7 7.99 7 8.98 7 10 C4.36 10 1.72 10 -1 10 C-1.18175781 10.61746094 -1.36351562 11.23492188 -1.55078125 11.87109375 C-3.25753471 17.62154002 -5.07567864 23.31867027 -7 29 C-4.03 27.35 -1.06 25.7 2 24 C1.0943894 27.96204638 -0.52648414 29.64657618 -3.8125 31.8125 C-6.98769002 33.66324828 -9.25523351 34.58511976 -13 34 C-12.69156849 25.20970201 -9.43222587 17.96654261 -6 10 C-7.32 10 -8.64 10 -10 10 C-10 9.34 -10 8.68 -10 8 C-8.576875 7.9071875 -8.576875 7.9071875 -7.125 7.8125 C-6.09375 7.544375 -5.0625 7.27625 -4 7 C-2.67518454 4.60470331 -2.67518454 4.60470331 -2 2 C-1.34 1.34 -0.68 0.68 0 0 Z " fill="#111111" transform="translate(303,632)"/>
<path d="M0 0 C0.66 1.98 1.32 3.96 2 6 C2.86625 4.515 2.86625 4.515 3.75 3 C4.4925 2.01 5.235 1.02 6 0 C7.32 0 8.64 0 10 0 C10.33 1.98 10.66 3.96 11 6 C9.783125 6.28875 8.56625 6.5775 7.3125 6.875 C3.42902054 8.32702407 2.07882487 9.93295231 0.25 13.625 C-0.52301234 15.40685896 -1.2728477 17.19893949 -2 19 C-2.76700935 20.71005364 -3.53756516 22.41852328 -4.3125 24.125 C-4.87742086 25.41560972 -5.44088979 26.70686242 -6 28 C-7.32 28 -8.64 28 -10 28 C-9.58814567 22.33700295 -8.36361744 18.16819159 -5.921875 13.0546875 C-4.88183563 10.73663364 -4.32493382 8.51823707 -4 6 C-6.475 7.485 -6.475 7.485 -9 9 C-6.4 0 -6.4 0 0 0 Z " fill="#121212" transform="translate(208,509)"/>
<path d="M0 0 C2 0.0625 2 0.0625 4 1 C5.25 3.5625 5.25 3.5625 6 6 C7.32 4.02 8.64 2.04 10 0 C11.32 0.33 12.64 0.66 14 1 C14 2.65 14 4.3 14 6 C12.02 6 10.04 6 8 6 C7.70867187 6.58523438 7.41734375 7.17046875 7.1171875 7.7734375 C6.44340828 9.1162842 5.76308375 10.45591446 5.0703125 11.7890625 C2.35617079 17.06032946 0.13049567 22.4697772 -2 28 C-3.65 27.67 -5.3 27.34 -7 27 C-6.21987193 22.10646935 -4.29688119 18.14935874 -2.15625 13.71875 C-1.05264007 11.12377531 -0.44255109 8.77600227 0 6 C-1.32 6.99 -2.64 7.98 -4 9 C-4.66 8.67 -5.32 8.34 -6 8 C-2.25 2.25 -2.25 2.25 0 0 Z " fill="#101010" transform="translate(139,638)"/>
<path d="M0 0 C1.1446875 0.3403125 1.1446875 0.3403125 2.3125 0.6875 C2.6425 2.6675 2.9725 4.6475 3.3125 6.6875 C3.9003125 5.2334375 3.9003125 5.2334375 4.5 3.75 C6.3125 0.6875 6.3125 0.6875 8.9375 -0.25 C9.72125 -0.270625 10.505 -0.29125 11.3125 -0.3125 C12.3125 0.6875 12.3125 0.6875 12.375 3.25 C12.354375 4.054375 12.33375 4.85875 12.3125 5.6875 C10.7346875 5.935 10.7346875 5.935 9.125 6.1875 C4.98491752 7.40370129 3.55627052 9.49813581 1.51171875 13.1796875 C-0.76082198 17.93203653 -2.76687453 22.78377539 -4.6875 27.6875 C-6.0075 27.6875 -7.3275 27.6875 -8.6875 27.6875 C-8.30024545 21.87868169 -6.38245728 17.4559151 -3.84375 12.23828125 C-2.84437056 10.03356917 -2.17408899 8.04856247 -1.6875 5.6875 C-3.6675 6.6775 -5.6475 7.6675 -7.6875 8.6875 C-5.0095 -0.5825 -5.0095 -0.5825 0 0 Z " fill="#0F0F0F" transform="translate(230.6875,638.3125)"/>
<path d="M0 0 C8.02217295 -0.4789357 8.02217295 -0.4789357 12.0625 1.5 C14.40996226 4.52898356 14.74665787 6.32798408 14.47265625 10.09375 C14 12 14 12 12.0625 14.5 C7.80199685 16.58677705 4.71517558 16.28150302 0 16 C0 10.72 0 5.44 0 0 Z " fill="#F3F3F3" transform="translate(363,288)"/>
<path d="M0 0 C-1.39988841 1.67303737 -2.80736563 3.34024111 -4.25 4.9765625 C-6.00908548 6.95933595 -6.00908548 6.95933595 -7.5 9.0234375 C-10.26253783 12.40754635 -11.89641304 13.85526728 -16.3359375 14.4375 C-19.5869578 14.4375 -22.76445514 14.3065253 -26 14 C-24.5552588 12.04388992 -23.10009263 10.10120885 -21.609375 8.1796875 C-20.00163308 6.11645042 -20.00163308 6.11645042 -19.015625 4.1328125 C-15.22002279 -2.36948965 -6.47070196 -0.43951938 0 0 Z " fill="#0E0E0E" transform="translate(199,256)"/>
<path d="M0 0 C-0.70192085 4.93321834 -2.63530775 9.25974682 -4.5625 13.8125 C-4.89185547 14.60076172 -5.22121094 15.38902344 -5.56054688 16.20117188 C-6.36958906 18.13583796 -7.18423852 20.06815753 -8 22 C-7.38125 21.505 -6.7625 21.01 -6.125 20.5 C-4 19 -4 19 -2 19 C-3.44784523 22.37830553 -5.16332276 24.64961028 -8 27 C-10.75 27.75 -10.75 27.75 -13 28 C-14.97172029 22.70975594 -12.61356744 18.58147825 -10.5625 13.6875 C-10.22412109 12.85154297 -9.88574219 12.01558594 -9.53710938 11.15429688 C-8.70279354 9.0978846 -7.85689595 7.04708217 -7 5 C-7.928125 5.99 -7.928125 5.99 -8.875 7 C-11 9 -11 9 -13 9 C-10.91376881 2.17233428 -7.1449644 -0.66464785 0 0 Z " fill="#101010" transform="translate(218,574)"/>
<path d="M0 0 C-0.55852667 5.4367976 -1.93957617 9.9183367 -4.0625 14.9375 C-4.34416016 15.62134766 -4.62582031 16.30519531 -4.91601562 17.00976562 C-5.6035405 18.67613946 -6.30076175 20.33850727 -7 22 C-6.38125 21.505 -5.7625 21.01 -5.125 20.5 C-3 19 -3 19 -1 19 C-2.45094013 22.38552696 -4.1216504 24.68132949 -7 27 C-10.25 27.75 -10.25 27.75 -13 28 C-12.52960495 20.16008251 -9.77062812 13.27928865 -7 6 C-9.475 7.485 -9.475 7.485 -12 9 C-10.13346484 2.89133947 -6.64007326 -0.75886552 0 0 Z " fill="#0F0F0F" transform="translate(286,638)"/>
<path d="M0 0 C0.99 0 1.98 0 3 0 C1.53533207 4.69359497 -0.04645102 9.22696423 -2.125 13.6875 C-3.70032496 17.1147337 -4.61188625 20.21589092 -5 24 C-3.35 23.01 -1.7 22.02 0 21 C-2.04109589 28.06533193 -2.04109589 28.06533193 -5 30 C-7.13745922 29.74853421 -8.45925779 29.54074221 -10 28 C-10.04092937 25.66702567 -10.04241723 23.33294775 -10 21 C-10.66 20.67 -11.32 20.34 -12 20 C-11.30970703 19.17242188 -11.30970703 19.17242188 -10.60546875 18.328125 C-8.87094817 15.81285915 -8.12325802 13.6841719 -7.3125 10.75 C-7.06113281 9.85796875 -6.80976563 8.9659375 -6.55078125 8.046875 C-6.36902344 7.37140625 -6.18726563 6.6959375 -6 6 C-6.99 5.67 -7.98 5.34 -9 5 C-8.67 4.34 -8.34 3.68 -8 3 C-4.5 2.5 -4.5 2.5 -1 2 C-0.67 1.34 -0.34 0.68 0 0 Z " fill="#131313" transform="translate(183,572)"/>
<path d="M0 0 C0.53625 0.2475 1.0725 0.495 1.625 0.75 C1.03661801 5.59111765 -0.45153116 9.71071195 -2.4375 14.125 C-2.71916016 14.76566406 -3.00082031 15.40632812 -3.29101562 16.06640625 C-3.97959421 17.63029659 -4.67644711 19.19053941 -5.375 20.75 C-5.045 21.08 -4.715 21.41 -4.375 21.75 C-3.385 20.76 -2.395 19.77 -1.375 18.75 C-0.715 19.08 -0.055 19.41 0.625 19.75 C-1.43741643 23.76628463 -3.23113631 25.875395 -7.375 27.75 C-10.1875 27.9375 -10.1875 27.9375 -12.375 27.75 C-11.73483027 22.61243532 -10.17799667 18.16209819 -8.3125 13.375 C-7.89000977 12.27091797 -7.89000977 12.27091797 -7.45898438 11.14453125 C-6.76933382 9.3444264 -6.07286068 7.5469379 -5.375 5.75 C-7.85 7.235 -7.85 7.235 -10.375 8.75 C-9.37684314 5.15663529 -8.42674542 3.79274621 -5.5 1.375 C-2.375 -0.25 -2.375 -0.25 0 0 Z " fill="#141414" transform="translate(143.375,509.25)"/>
<path d="M0 0 C0.49859805 5.98317665 -0.70758554 9.96520813 -4 15 C-5.9375 17.0625 -5.9375 17.0625 -8 18 C-10.75 17.6875 -10.75 17.6875 -13 17 C-12.52954273 10.17836962 -11.16324863 5.96554559 -6 1.125 C-4 0 -4 0 0 0 Z " fill="#F2F2F2" transform="translate(167,515)"/>
<path d="M0 0 C2.46121222 3.69181833 2.24685631 5.20345864 1.68359375 9.4453125 C0.22320411 14.90299722 -3.01765147 20.01765147 -7 24 C-9.625 24.125 -9.625 24.125 -12 24 C-11.59007812 23.53851562 -11.18015625 23.07703125 -10.7578125 22.6015625 C-6.38534226 17.30857221 -4.80624099 12.78354489 -4 6 C-6.64 6.99 -9.28 7.98 -12 9 C-12.33 8.34 -12.66 7.68 -13 7 C-11.78521149 5.81836949 -10.55247592 4.65517165 -9.3125 3.5 C-8.28576172 2.52546875 -8.28576172 2.52546875 -7.23828125 1.53125 C-4.55262384 -0.30605838 -3.18978769 -0.5501458 0 0 Z " fill="#171717" transform="translate(171,509)"/>
<path d="M0 0 C-1.16428479 6.89379153 -2.80269826 11.99647412 -8.0625 16.9375 C-8.701875 17.288125 -9.34125 17.63875 -10 18 C-10.99 17.67 -11.98 17.34 -13 17 C-12.45469884 10.18373551 -10.44251418 6.26379363 -5.4375 1.625 C-3 0 -3 0 0 0 Z " fill="#EBEBEB" transform="translate(169,643)"/>
<path d="M0 0 C0.66 0.33 1.32 0.66 2 1 C1.57847656 1.48210937 1.15695313 1.96421875 0.72265625 2.4609375 C0.17480469 3.09257812 -0.37304688 3.72421875 -0.9375 4.375 C-1.75541016 5.31472656 -1.75541016 5.31472656 -2.58984375 6.2734375 C-4.06958624 7.95632334 -4.06958624 7.95632334 -5 10 C-4.34 10.33 -3.68 10.66 -3 11 C-4.57587891 11.22042969 -4.57587891 11.22042969 -6.18359375 11.4453125 C-14.67655888 12.75868889 -21.28616679 14.23729316 -28 20 C-28 16.75 -28 16.75 -27 13 C-21.83393109 8.33119976 -14.61066935 8.24303931 -8 8 C-8 7.34 -8 6.68 -8 6 C-2.58823529 2 -2.58823529 2 0 2 C0 1.34 0 0.68 0 0 Z " fill="#D1D1D1" transform="translate(201,201)"/>
<path d="M0 0 C0.66 0 1.32 0 2 0 C2.33 1.32 2.66 2.64 3 4 C2.34 4 1.68 4 1 4 C1.33 6.31 1.66 8.62 2 11 C4.29294488 11.85974801 4.29294488 11.85974801 7 12 C9.2085766 10.12491838 9.2085766 10.12491838 11 8 C11.66 8 12.32 8 13 8 C11.60321501 12.44431588 9.68754281 15.13191114 6 18 C2.1875 18.3125 2.1875 18.3125 -1 18 C-3.48496701 14.27254949 -3.57158898 10.32419492 -3 6 C-1.5 2.5 -1.5 2.5 0 0 Z " fill="#0F0F0F" transform="translate(178,519)"/>
<path d="M0 0 C-0.81868696 7.21781154 -3.29188561 12.33434748 -9 17 C-9.99 17 -10.98 17 -12 17 C-12.56326164 9.95922949 -10.40988268 6.86173569 -6 1.625 C-4 0 -4 0 0 0 Z " fill="#F5F5F5" transform="translate(177,579)"/>
<path d="M0 0 C3.34367769 1.08863925 6.48138767 2.4291062 9.6875 3.875 C8.875 5.8125 8.875 5.8125 7.6875 7.875 C4.74520079 8.8557664 2.6966216 9.03988128 -0.375 9.0625 C-1.69177734 9.08376953 -1.69177734 9.08376953 -3.03515625 9.10546875 C-5.3125 8.875 -5.3125 8.875 -7.3125 6.875 C-7.13479322 4.12054484 -6.48561088 3.05429341 -4.5625 1.0625 C-2.3125 -0.125 -2.3125 -0.125 0 0 Z " fill="#F7F7F7" transform="translate(141.3125,601.125)"/>
<path d="M0 0 C0.33 0.66 0.66 1.32 1 2 C0.2884375 3.3921875 0.2884375 3.3921875 -0.4375 4.8125 C-1.98078978 7.96081114 -2.30199784 9.57735783 -2 13 C-0.02 12.34 1.96 11.68 4 11 C2.75406918 14.84162002 1.66608297 17.1145859 -2 19 C-6.41025641 18.58974359 -6.41025641 18.58974359 -8 17 C-8.61034645 10.8965355 -7.38592614 7.8907822 -4 3 C-1.75 1.0625 -1.75 1.0625 0 0 Z " fill="#0F0F0F" transform="translate(159,647)"/>
<path d="M0 0 C0.33 0 0.66 0 1 0 C1.66 2.97 2.32 5.94 3 9 C8.56717533 6.64543677 8.56717533 6.64543677 14 4 C12.60708122 8.87521572 10.16854559 11.19424816 6 14 C2.75 14.4375 2.75 14.4375 0 14 C-2 12 -2 12 -2.265625 9.6875 C-2.26046875 8.800625 -2.2553125 7.91375 -2.25 7 C-2.25515625 6.113125 -2.2603125 5.22625 -2.265625 4.3125 C-2 2 -2 2 0 0 Z " fill="#111111" transform="translate(240,523)"/>
<path d="M0 0 C1.65 0.33 3.3 0.66 5 1 C4.61271765 6.71241466 4.12989477 9.73688282 0 14 C-1.32 13.67 -2.64 13.34 -4 13 C-3.40546697 3.40546697 -3.40546697 3.40546697 0 0 Z " fill="#EAEAEA" transform="translate(146,576)"/>
<path d="M0 0 C3 -0.3125 3 -0.3125 6 0 C8 2 8 2 8.125 5.625 C8.08375 6.73875 8.0425 7.8525 8 9 C6.40084119 9.69906942 4.79544955 10.38389468 3.1875 11.0625 C2.29417969 11.44535156 1.40085937 11.82820312 0.48046875 12.22265625 C-2 13 -2 13 -5 12 C-2.4345406 9.4345406 -0.52313332 9.45953913 3 9 C2.80528889 7.05000871 2.80528889 7.05000871 2 5 C0.0162233 3.71563266 0.0162233 3.71563266 -2 3 C-1.34 2.01 -0.68 1.02 0 0 Z " fill="#0D0D0D" transform="translate(321,638)"/>
<path d="M0 0 C3.25 0.875 3.25 0.875 4.25 1.875 C4.48529412 7.40441176 4.48529412 7.40441176 3.25 9.875 C0.1875 10.5 0.1875 10.5 -2.75 10.875 C-2.42 8.895 -2.09 6.915 -1.75 4.875 C-4.06 4.875 -6.37 4.875 -8.75 4.875 C-4.70011876 -0.15667063 -4.70011876 -0.15667063 0 0 Z " fill="#0E0E0E" transform="translate(214.75,638.125)"/>
<path d="M0 0 C-0.99 0.66 -1.98 1.32 -3 2 C-3.78375 2.78375 -4.5675 3.5675 -5.375 4.375 C-7.81018488 6.81018488 -10.30174582 8.8664967 -13 11 C-15.05516267 12.79271557 -17.09668299 14.59976811 -19.1328125 16.4140625 C-21 18 -21 18 -24 20 C-22.58470587 15.4967914 -20.42481631 13.19649522 -17 10 C-15.83252308 8.7924495 -14.66589581 7.58407714 -13.5 6.375 C-9.31380743 2.2159905 -6.15510055 -0.52758005 0 0 Z " fill="#E0E0E0" transform="translate(172,179)"/>
<path d="M0 0 C6.875 0.875 6.875 0.875 8 2 C8.25 5.4375 8.25 5.4375 8 9 C4.77208445 11.1519437 3.71599191 11.20086443 0 11 C0.66 10.34 1.32 9.68 2 9 C2 7.68 2 6.36 2 5 C0.68 4.67 -0.64 4.34 -2 4 C-1.34 2.68 -0.68 1.36 0 0 Z " fill="#0E0E0E" transform="translate(249,509)"/>
<path d="M0 0 C9.24 0 18.48 0 28 0 C27.67 2.97 27.34 5.94 27 9 C26.34 9 25.68 9 25 9 C24.34 7.35 23.68 5.7 23 4 C20.36 3.67 17.72 3.34 15 3 C15 2.67 15 2.34 15 2 C10.05 1.67 5.1 1.34 0 1 C0 0.67 0 0.34 0 0 Z " fill="#3B3B3B" transform="translate(107,627)"/>
<path d="M0 0 C-0.33 0.99 -0.66 1.98 -1 3 C-1.99 3 -2.98 3 -4 3 C-4 4.65 -4 6.3 -4 8 C-4.99 8.33 -5.98 8.66 -7 9 C-7.33 8.01 -7.66 7.02 -8 6 C-8.99 5.67 -9.98 5.34 -11 5 C-11 4.01 -11 3.02 -11 2 C-11.66 2 -12.32 2 -13 2 C-13 1.34 -13 0.68 -13 0 C-11.58456585 -0.19658808 -10.16755969 -0.38187546 -8.75 -0.5625 C-7.96109375 -0.66691406 -7.1721875 -0.77132812 -6.359375 -0.87890625 C-3.99467126 -1.00027349 -2.2488963 -0.69633257 0 0 Z " fill="#353535" transform="translate(178,202)"/>
<path d="M0 0 C3.375 -0.1875 3.375 -0.1875 7 0 C9 3 9 3 8.625 6.1875 C8.41875 7.115625 8.2125 8.04375 8 9 C6.02 9.33 4.04 9.66 2 10 C2.0928125 8.576875 2.0928125 8.576875 2.1875 7.125 C2.125625 6.09375 2.06375 5.0625 2 4 C1.01 3.34 0.02 2.68 -1 2 C-0.67 1.34 -0.34 0.68 0 0 Z " fill="#101010" transform="translate(252,574)"/>
<path d="M0 0 C0 0.66 0 1.32 0 2 C-5.27801858 4.22232361 -9.17088468 5.46632923 -15 5 C-15.66 4.67 -16.32 4.34 -17 4 C-16.67 3.01 -16.34 2.02 -16 1 C-14.08351538 0.83125293 -12.16680367 0.66508357 -10.25 0.5 C-9.18265625 0.4071875 -8.1153125 0.314375 -7.015625 0.21875 C-4.6820782 0.04947717 -2.33967818 0 0 0 Z " fill="#1F1F1F" transform="translate(150,609)"/>
<path d="M0 0 C3 1 3 1 5 4 C5.125 7.1875 5.125 7.1875 5 10 C4.01 10.495 4.01 10.495 3 11 C2.80469954 13.01810474 2.60968517 15.03623913 2.41796875 17.0546875 C2 19 2 19 -0.0625 21 C-0.701875 21.33 -1.34125 21.66 -2 22 C-2 19.69 -2 17.38 -2 15 C-1.34 15 -0.68 15 0 15 C-0.33 13.35 -0.66 11.7 -1 10 C-0.01 9.34 0.98 8.68 2 8 C1.47731534 5.23723823 0.89130413 2.6739124 0 0 Z " fill="#696969" transform="translate(266,178)"/>
<path d="M0 0 C0.66 0 1.32 0 2 0 C2 0.66 2 1.32 2 2 C4.97 2.33 7.94 2.66 11 3 C9 6 9 6 6.90625 6.546875 C6.1121875 6.61390625 5.318125 6.6809375 4.5 6.75 C3.30890625 6.86601563 3.30890625 6.86601563 2.09375 6.984375 C0 7 0 7 -2 6 C-1.125 1.125 -1.125 1.125 0 0 Z " fill="#0A0A0A" transform="translate(151,530)"/>
<path d="M0 0 C1.32 0 2.64 0 4 0 C4.33 1.98 4.66 3.96 5 6 C3.71211992 6.53012738 2.41953322 7.0488329 1.125 7.5625 C0.04605469 7.99755859 0.04605469 7.99755859 -1.0546875 8.44140625 C-3 9 -3 9 -5 8 C-4.26829419 6.65654015 -3.51394247 5.32539416 -2.75 4 C-2.33234375 3.2575 -1.9146875 2.515 -1.484375 1.75 C-0.99453125 1.1725 -0.5046875 0.595 0 0 Z " fill="#262626" transform="translate(214,509)"/>
<path d="M0 0 C1.77503906 0.03480469 1.77503906 0.03480469 3.5859375 0.0703125 C5.36871094 0.09738281 5.36871094 0.09738281 7.1875 0.125 C8.10273438 0.14820313 9.01796875 0.17140625 9.9609375 0.1953125 C9.9609375 0.8553125 9.9609375 1.5153125 9.9609375 2.1953125 C7.85773687 2.69936058 5.75333959 3.19841758 3.6484375 3.6953125 C1.89080078 4.11296875 1.89080078 4.11296875 0.09765625 4.5390625 C-3.0390625 5.1953125 -3.0390625 5.1953125 -6.0390625 5.1953125 C-5.7090625 6.1853125 -5.3790625 7.1753125 -5.0390625 8.1953125 C-6.0290625 7.8653125 -7.0190625 7.5353125 -8.0390625 7.1953125 C-4.02304226 0.25855027 -4.02304226 0.25855027 0 0 Z " fill="#969696" transform="translate(174.0390625,181.8046875)"/>
<path d="M0 0 C0.66 0.33 1.32 0.66 2 1 C0.68 3.31 -0.64 5.62 -2 8 C-6.62 8 -11.24 8 -16 8 C-13.2572504 6.6286252 -10.85185553 5.54839537 -8 4.5625 C-4.91503075 3.43441423 -2.49908666 2.18670083 0 0 Z " fill="#0C0C0C" transform="translate(128,592)"/>
<path d="M0 0 C0.86625 0.20625 1.7325 0.4125 2.625 0.625 C1.17718207 4.06928265 -0.65194609 5.98630962 -3.5 8.375 C-4.58667969 9.29539062 -4.58667969 9.29539062 -5.6953125 10.234375 C-6.24960937 10.69328125 -6.80390625 11.1521875 -7.375 11.625 C-8.035 11.295 -8.695 10.965 -9.375 10.625 C-4.43845733 0.82193654 -4.43845733 0.82193654 0 0 Z " fill="#282828" transform="translate(262.375,559.375)"/>
<path d="M0 0 C1.65 0.33 3.3 0.66 5 1 C5 2.65 5 4.3 5 6 C-1.625 8 -1.625 8 -5 8 C-3.35 5.36 -1.7 2.72 0 0 Z " fill="#1A1A1A" transform="translate(238,638)"/>
<path d="M0 0 C0.75667969 0.0928125 1.51335937 0.185625 2.29296875 0.28125 C0.84515082 3.72553265 -0.98397734 5.64255962 -3.83203125 8.03125 C-4.91871094 8.95164062 -4.91871094 8.95164062 -6.02734375 9.890625 C-6.58164063 10.34953125 -7.1359375 10.8084375 -7.70703125 11.28125 C-8.03703125 10.62125 -8.36703125 9.96125 -8.70703125 9.28125 C-7.83342369 7.76819773 -6.93225362 6.27103362 -6.01953125 4.78125 C-5.27123047 3.52828125 -5.27123047 3.52828125 -4.5078125 2.25 C-2.70703125 0.28125 -2.70703125 0.28125 0 0 Z " fill="#1D1D1D" transform="translate(258.70703125,495.71875)"/>
<path d="M0 0 C-3.36621881 3.78699616 -7.41641804 6.8272631 -12 9 C-12.66 8.67 -13.32 8.34 -14 8 C-11.06540027 1.96776723 -6.73769074 -0.59450212 0 0 Z " fill="#D9D9D9" transform="translate(170,211)"/>
<path d="M0 0 C1.98 0 3.96 0 6 0 C4.61811547 3.21043882 3.07578097 5.04936365 0.375 7.25 C-0.57246094 8.03117188 -0.57246094 8.03117188 -1.5390625 8.828125 C-2.02117187 9.21484375 -2.50328125 9.6015625 -3 10 C-3.66 9.67 -4.32 9.34 -5 9 C-3.35 6.03 -1.7 3.06 0 0 Z " fill="#1C1C1C" transform="translate(327,625)"/>
<path d="M0 0 C0 1.32 0 2.64 0 4 C-2.97 4.66 -5.94 5.32 -9 6 C-5.42910448 -1.62873134 -5.42910448 -1.62873134 0 0 Z " fill="#E1E1E1" transform="translate(324,643)"/>
<path d="M0 0 C2.625 0.375 2.625 0.375 5 1 C5 2.32 5 3.64 5 5 C2.03 5.66 -0.94 6.32 -4 7 C-2.92598892 4.08482708 -2.22189824 2.22189824 0 0 Z " fill="#DFDFDF" transform="translate(209,642)"/>
<path d="M0 0 C-0.020625 0.78375 -0.04125 1.5675 -0.0625 2.375 C-0.18684063 4.98114961 -0.18684063 4.98114961 1 7 C0.01 7.99 -0.98 8.98 -2 10 C-3.32 9.34 -4.64 8.68 -6 8 C-5.62403791 5.21788056 -5.32681541 3.4120716 -3.5625 1.1875 C-2 0 -2 0 0 0 Z " fill="#0F0F0F" transform="translate(135,603)"/>
<path d="M0 0 C0.886875 0.144375 1.77375 0.28875 2.6875 0.4375 C1.52667375 3.91997874 0.77817524 4.32569244 -2.25 6.1875 C-2.96027344 6.63609375 -3.67054687 7.0846875 -4.40234375 7.546875 C-5.03269531 7.84078125 -5.66304688 8.1346875 -6.3125 8.4375 C-6.9725 8.1075 -7.6325 7.7775 -8.3125 7.4375 C-4.35626368 0.57535558 -4.35626368 0.57535558 0 0 Z " fill="#252525" transform="translate(131.3125,551.5625)"/>
<path d="M0 0 C2.125 0.375 2.125 0.375 4 1 C3.67 2.65 3.34 4.3 3 6 C0.36 6.33 -2.28 6.66 -5 7 C-3.47793991 4.37098712 -2.15634036 2.15634036 0 0 Z " fill="#E3E3E3" transform="translate(248,513)"/>
<path d="M0 0 C2.64 0 5.28 0 8 0 C7.67 1.65 7.34 3.3 7 5 C6.34 5 5.68 5 5 5 C5 6.32 5 7.64 5 9 C3.02 8.34 1.04 7.68 -1 7 C0.28965176 5.62437146 1.62689293 4.29233607 3 3 C3.66 3 4.32 3 5 3 C5 2.34 5 1.68 5 1 C3.35 1 1.7 1 0 1 C0 0.67 0 0.34 0 0 Z " fill="#868686" transform="translate(253,168)"/>
<path d="M0 0 C2.125 0.375 2.125 0.375 4 1 C4.625 2.875 4.625 2.875 5 5 C4.34 5.66 3.68 6.32 3 7 C0.875 6.625 0.875 6.625 -1 6 C-1.625 4.125 -1.625 4.125 -2 2 C-1.34 1.34 -0.68 0.68 0 0 Z " fill="#141414" transform="translate(286,624)"/>
<path d="M0 0 C2.125 0.375 2.125 0.375 4 1 C4.625 2.875 4.625 2.875 5 5 C4.34 5.66 3.68 6.32 3 7 C0.875 6.625 0.875 6.625 -1 6 C-1.625 4.125 -1.625 4.125 -2 2 C-1.34 1.34 -0.68 0.68 0 0 Z " fill="#121212" transform="translate(145,495)"/>
<path d="M0 0 C2.125 0.375 2.125 0.375 4 1 C4 2.32 4 3.64 4 5 C1.36 5.66 -1.28 6.32 -4 7 C-2.92598892 4.08482708 -2.22189824 2.22189824 0 0 Z " fill="#EAEAEA" transform="translate(185,513)"/>
<path d="M0 0 C2.125 0.375 2.125 0.375 4 1 C4 2.65 4 4.3 4 6 C1.69 6.33 -0.62 6.66 -3 7 C-2.25 2.25 -2.25 2.25 0 0 Z " fill="#080808" transform="translate(149,638)"/>
<path d="M0 0 C1.2065625 0.0309375 1.2065625 0.0309375 2.4375 0.0625 C2.4375 1.7125 2.4375 3.3625 2.4375 5.0625 C-0.2025 5.3925 -2.8425 5.7225 -5.5625 6.0625 C-3.26136364 0.07954545 -3.26136364 0.07954545 0 0 Z " fill="#EDEDED" transform="translate(252.5625,577.9375)"/>
<path d="M0 0 C0.66 0.33 1.32 0.66 2 1 C-1.43361902 4.63559661 -4.7973607 7.36113346 -9 10 C-9.66 9.67 -10.32 9.34 -11 9 C-9.92319498 7.86874978 -8.83824365 6.74525081 -7.75 5.625 C-7.14671875 4.99851562 -6.5434375 4.37203125 -5.921875 3.7265625 C-4.00464483 2.0041728 -2.40910118 0.90590168 0 0 Z " fill="#1D1D1D" transform="translate(166,640)"/>
<path d="M0 0 C1.65 0.33 3.3 0.66 5 1 C4.67 2.65 4.34 4.3 4 6 C2.35 5.67 0.7 5.34 -1 5 C-0.67 3.35 -0.34 1.7 0 0 Z " fill="#050505" transform="translate(217,560)"/>
<path d="M0 0 C-0.99 0.66 -1.98 1.32 -3 2 C-4.68762851 3.6454378 -6.3540349 5.31288577 -8 7 C-9 8 -10 9 -11 10 C-11.99 9.67 -12.98 9.34 -14 9 C-12.87895467 7.68412059 -11.75303035 6.37239647 -10.625 5.0625 C-9.99851563 4.33160156 -9.37203125 3.60070312 -8.7265625 2.84765625 C-5.90567656 -0.17107463 -3.99616109 -0.10516213 0 0 Z " fill="#E5E5E5" transform="translate(172,179)"/>
<path d="M0 0 C0.33 0.99 0.66 1.98 1 3 C-3 5 -3 5 -5.0625 5.875 C-7.38618318 7.22423539 -8.5219641 8.78294615 -10 11 C-9.70985788 7.51829452 -9.27243676 6.25771045 -6.6875 3.8125 C-4.49308876 2.33254823 -2.41301628 1.07245168 0 0 Z " fill="#313131" transform="translate(138,599)"/>
<path d="M0 0 C0.33 0.99 0.66 1.98 1 3 C-0.62339805 4.70884005 -2.29319053 6.37446717 -4 8 C-4.66 8 -5.32 8 -6 8 C-6 7.34 -6 6.68 -6 6 C-6.66 5.67 -7.32 5.34 -8 5 C-6.20963542 3.99088542 -4.41927083 2.98177083 -2.62890625 1.97265625 C-1.02121854 1.1027487 -1.02121854 1.1027487 0 0 Z " fill="#202020" transform="translate(232,527)"/>
<path d="M0 0 C0.66 0.33 1.32 0.66 2 1 C0.98305687 4.05082939 0.27855788 4.90372675 -2 7 C-2.66 7.66 -3.32 8.32 -4 9 C-4.66 9 -5.32 9 -6 9 C-4.68775452 5.06326356 -3.08089673 2.77280706 0 0 Z " fill="#222222" transform="translate(319,639)"/>
<path d="M0 0 C4.51720311 -0.36625971 4.51720311 -0.36625971 6.8125 1.375 C8 3 8 3 8 5 C5.07120629 4.37240135 2.63904371 3.41377341 0 2 C0 1.34 0 0.68 0 0 Z " fill="#3D3D3D" transform="translate(194,180)"/>
<path d="M0 0 C1.258125 -0.04125 2.51625 -0.0825 3.8125 -0.125 C4.52019531 -0.14820313 5.22789062 -0.17140625 5.95703125 -0.1953125 C8 0 8 0 11 2 C8.03 2.66 5.06 3.32 2 4 C2 3.34 2 2.68 2 2 C1.34 2 0.68 2 0 2 C0 1.34 0 0.68 0 0 Z " fill="#363636" transform="translate(246,583)"/>
<path d="M0 0 C1.98 0 3.96 0 6 0 C5.67 2.31 5.34 4.62 5 7 C4.34 7 3.68 7 3 7 C2.690625 6.21625 2.38125 5.4325 2.0625 4.625 C1.07124962 2.07669872 1.07124962 2.07669872 0 0 Z " fill="#060606" transform="translate(129,564)"/>
<path d="M0 0 C1.33998047 0.06960937 1.33998047 0.06960937 2.70703125 0.140625 C3.60808594 0.17671875 4.50914062 0.2128125 5.4375 0.25 C6.46810547 0.31960937 6.46810547 0.31960937 7.51953125 0.390625 C4.63324724 1.96616535 1.98610741 2.85338873 -1.23046875 3.515625 C-2.42929688 3.76699219 -2.42929688 3.76699219 -3.65234375 4.0234375 C-4.255625 4.14460937 -4.85890625 4.26578125 -5.48046875 4.390625 C-3.17521711 0.50003419 -3.17521711 0.50003419 0 0 Z " fill="#E6E6E6" transform="translate(173.48046875,181.609375)"/>
<path d="M0 0 C0.33 0 0.66 0 1 0 C1.33 1.65 1.66 3.3 2 5 C2.66 4.34 3.32 3.68 4 3 C7.125 2.875 7.125 2.875 10 3 C9.443125 3.268125 8.88625 3.53625 8.3125 3.8125 C5.80287477 5.10122647 3.40665764 6.52926478 1 8 C0 7 0 7 -0.0625 3.4375 C-0.041875 2.303125 -0.02125 1.16875 0 0 Z " fill="#2D2D2D" transform="translate(253,640)"/>
<path d="M0 0 C1.32 0.66 2.64 1.32 4 2 C3.4225 2.268125 2.845 2.53625 2.25 2.8125 C-0.0325868 4.01719859 -1.9737942 5.40798115 -4 7 C-3.6875 4.625 -3.6875 4.625 -3 2 C-2.01 1.34 -1.02 0.68 0 0 Z " fill="#272727" transform="translate(173,576)"/>
<path d="M0 0 C1.32 0.66 2.64 1.32 4 2 C3.401875 2.268125 2.80375 2.53625 2.1875 2.8125 C0.02775192 3.98493467 -1.35790256 5.19369282 -3 7 C-3.66 6.34 -4.32 5.68 -5 5 C-3.35 3.35 -1.7 1.7 0 0 Z " fill="#262626" transform="translate(250,575)"/>
<path d="M0 0 C0.66 0.33 1.32 0.66 2 1 C1.6875 2.9375 1.6875 2.9375 1 5 C0.01 5.33 -0.98 5.66 -2 6 C-2.33 6.66 -2.66 7.32 -3 8 C-3.66 8 -4.32 8 -5 8 C-3.8141763 4.62496331 -2.72426311 2.35277269 0 0 Z " fill="#363636" transform="translate(210,575)"/>
<path d="M0 0 C0.33 0.99 0.66 1.98 1 3 C-0.50663783 6.01327566 -3.03166411 6.61056618 -6 8 C-4.73058503 4.08597051 -3.48832306 2.20927127 0 0 Z " fill="#1A1A1A" transform="translate(139,510)"/>
<path d="M0 0 C0.99 0.33 1.98 0.66 3 1 C2.401875 1.391875 1.80375 1.78375 1.1875 2.1875 C-1.25511232 4.21137878 -2.50112814 6.22708706 -4 9 C-4.66 8.67 -5.32 8.34 -6 8 C-2.25 2.25 -2.25 2.25 0 0 Z " fill="#272727" transform="translate(139,638)"/>
<path d="M0 0 C-1.29299694 2.88437779 -2.65941363 4.87219421 -5 7 C-5.66 6.01 -6.32 5.02 -7 4 C-2.25 0 -2.25 0 0 0 Z " fill="#373737" transform="translate(285,657)"/>
<path d="M0 0 C0.66 0.33 1.32 0.66 2 1 C2 1.99 2 2.98 2 4 C0.02 4.99 -1.96 5.98 -4 7 C-2.92598892 4.08482708 -2.22189824 2.22189824 0 0 Z " fill="#222222" transform="translate(278,640)"/>
<path d="M0 0 C0.66 0 1.32 0 2 0 C0.55746343 3.36591866 -1.33264727 5.51047079 -4 8 C-4 4.06830895 -2.60580385 2.83572772 0 0 Z " fill="#282828" transform="translate(214,593)"/>
<path d="M0 0 C0.99 0.33 1.98 0.66 3 1 C1.02 3.31 -0.96 5.62 -3 8 C-3 4.42424104 -1.91159393 2.94704065 0 0 Z " fill="#BCBCBC" transform="translate(152,191)"/>
<path d="M0 0 C0.99 0.33 1.98 0.66 3 1 C1.71937515 2.7074998 0.38232443 4.37373596 -1 6 C-1.66 6 -2.32 6 -3 6 C-1.125 1.125 -1.125 1.125 0 0 Z " fill="#1D1D1D" transform="translate(205,643)"/>
<path d="M0 0 C-0.33 0.66 -0.66 1.32 -1 2 C-3.3140622 2.73075648 -5.64828869 3.40138258 -8 4 C-7.25 2.0625 -7.25 2.0625 -6 0 C-3.40292416 -1.05506206 -2.5386068 -1.2693034 0 0 Z " fill="#1F1F1F" transform="translate(189,519)"/>
<path d="M0 0 C0.66 0 1.32 0 2 0 C0.75023244 3.65316671 0.32901247 4.78065836 -3 7 C-3 3.47967572 -2.29648649 2.5614657 0 0 Z " fill="#2D2D2D" transform="translate(197,593)"/>
<path d="M0 0 C0.99 0 1.98 0 3 0 C2.67 1.65 2.34 3.3 2 5 C1.01 5 0.02 5 -1 5 C-1.99 5.495 -1.99 5.495 -3 6 C-1.125 1.125 -1.125 1.125 0 0 Z " fill="#1E1E1E" transform="translate(231,503)"/>
<path d="M0 0 C2.0625 2.3125 2.0625 2.3125 4 5 C3.67 5.99 3.34 6.98 3 8 C2.01 7.34 1.02 6.68 0 6 C-0.1875 2.875 -0.1875 2.875 0 0 Z " fill="#EDEDED" transform="translate(303,398)"/>
<path d="M0 0 C0.33 0.66 0.66 1.32 1 2 C0.34 2.66 -0.32 3.32 -1 4 C-1.165 4.680625 -1.33 5.36125 -1.5 6.0625 C-1.665 6.701875 -1.83 7.34125 -2 8 C-2.99 8.495 -2.99 8.495 -4 9 C-3.6875 5.625 -3.6875 5.625 -3 2 C-2.01 1.34 -1.02 0.68 0 0 Z " fill="#A2A2A2" transform="translate(177,212)"/>
</svg>
