<svg width="271" height="254" viewBox="0 0 271 254" fill="none" xmlns="http://www.w3.org/2000/svg">
<g clip-path="url(#clip0_626_6361)">
<path d="M32.5953 253.101C32.1938 253.102 31.7979 253.01 31.4399 252.832C31.082 252.655 30.7721 252.398 30.5357 252.082C23.1959 242.304 16.2624 233.047 12.7688 220.523C12.603 220.284 12.4907 220.013 12.4392 219.729C6.87601 195.352 0.605137 167.652 0.211593 140.382C-0.203033 110.063 6.95995 83.3733 20.9335 62.8916C34.1675 43.5987 54.7755 27.9358 80.465 17.6597C100.833 9.48319 124.352 4.50917 154.28 2.04817C175.428 0.293518 199.958 -0.19199 221.446 9.40791C253.869 23.8824 274.426 61.5439 270.301 99.1452C266.614 132.805 244.76 165.349 211.651 186.175C183.788 203.737 148.786 213.504 107.587 215.18C105.043 215.3 102.345 215.371 99.6988 215.441C86.9754 215.82 73.8702 216.198 61.9811 220.345C48.8956 224.839 35.4952 235.975 35.0416 250.7C35.0229 251.213 34.8411 251.708 34.5215 252.116C34.2018 252.524 33.7601 252.825 33.2571 252.978C33.0431 253.048 32.8205 253.089 32.5953 253.101ZM17.2002 217.877C17.3107 218.072 17.3959 218.281 17.4538 218.497C20.2075 227.841 24.7919 236.577 30.9541 244.224C34.46 230.371 47.5538 220.126 60.3847 215.707C73.2157 211.288 86.5752 210.96 99.6548 210.582C102.199 210.586 104.871 210.441 107.467 210.321C147.75 208.693 181.912 199.197 208.985 182.106C240.719 162.096 261.782 130.914 265.289 98.7414C269.182 63.2717 249.868 27.6448 219.378 14.016C199.035 4.88875 175.242 5.4001 154.756 7.08132C125.312 9.51823 102.302 14.4434 82.3921 22.3479C57.6193 32.2286 37.8264 47.2729 25.1534 65.7485C11.741 85.289 4.88459 111.111 5.27522 140.414C5.64449 166.866 11.7382 193.946 17.2002 217.877Z" fill="black"/>
<path d="M49.0999 135.593C45.9355 135.558 42.8603 134.566 40.2997 132.754C37.0724 130.558 34.8572 127.217 34.1297 123.449C33.5665 119.649 34.559 115.786 36.8933 112.694C39.1516 109.548 42.5928 107.397 46.4695 106.708C46.8005 106.655 47.1388 106.667 47.4652 106.742C47.7916 106.818 48.0995 106.955 48.3711 107.147C48.6428 107.338 48.8729 107.58 49.0482 107.859C49.2236 108.137 49.3406 108.447 49.3928 108.77C49.4467 109.092 49.4348 109.422 49.3575 109.74C49.2803 110.058 49.1392 110.358 48.9426 110.622C48.7459 110.887 48.4975 111.111 48.2116 111.282C47.9257 111.453 47.608 111.567 47.2767 111.618C44.7431 112.085 42.501 113.507 41.0368 115.575C39.4778 117.596 38.7977 120.133 39.1437 122.638C39.6442 125.111 41.1214 127.294 43.2572 128.717C45.3272 130.222 47.9244 130.868 50.4812 130.513C53.022 130.03 55.2645 128.59 56.7212 126.505C57.9087 124.916 58.5846 123.019 58.6628 121.054C58.3114 120.852 58.015 120.571 57.7985 120.234C57.582 119.898 57.4518 119.515 57.4188 119.119C57.3326 117.388 57.6913 115.664 58.4622 114.102C59.2332 112.54 60.392 111.191 61.8337 110.176C63.502 108.907 65.5066 108.128 67.6131 107.928C68.1687 106.109 69.031 104.393 70.165 102.85C71.1222 101.694 72.3438 100.772 73.7321 100.159C75.1203 99.5452 76.6367 99.2567 78.16 99.3161C79.2232 99.3542 80.2592 99.6546 81.1708 100.189C82.0824 100.724 82.8398 101.475 83.372 102.373C84.3418 104.322 84.5903 106.538 84.0755 108.646C83.8277 109.673 83.8262 110.742 84.071 111.769C84.2155 112.035 84.4378 112.252 84.7095 112.393C84.9812 112.535 85.29 112.595 85.5966 112.565C86.3307 112.563 87.0532 112.386 87.7012 112.05C88.3492 111.714 88.903 111.229 89.3144 110.637C89.7251 109.867 89.9688 109.024 90.0305 108.159C89.747 107.772 89.4925 107.365 89.2688 106.943C88.5645 105.693 88.1962 104.289 88.1983 102.863C88.2003 101.437 88.5726 100.035 89.2805 98.7867C89.5303 98.357 89.9061 98.0098 90.3598 97.7896C90.8135 97.5694 91.3243 97.4863 91.8268 97.5508C92.327 97.6129 92.7969 97.8184 93.177 98.1411C93.5571 98.4639 93.8302 98.8893 93.9617 99.3635C94.6589 101.641 95.0993 103.986 95.2749 106.356C95.996 106.962 96.877 107.358 97.8178 107.5C99.6031 107.487 101.337 106.918 102.767 105.877C104.197 104.835 105.247 103.375 105.765 101.711C106.739 98.6768 106.743 95.4263 105.778 92.3895C105.32 92.4995 104.84 92.4832 104.391 92.3424C103.942 92.2017 103.542 91.9421 103.235 91.5926C102.939 91.2565 102.74 90.8492 102.66 90.4131C102.581 89.977 102.622 89.528 102.781 89.1129C103.218 88.0934 104.052 87.2838 105.099 86.8602C106.073 86.4899 107.155 86.4914 108.127 86.8646L118.818 84.4008C119.223 84.3046 119.645 84.3066 120.049 84.4066C120.452 84.5066 120.825 84.7015 121.133 84.9744C121.437 85.2436 121.669 85.5804 121.811 85.9562C121.952 86.332 121.998 86.7355 121.944 87.1323C121.33 89.8678 121.396 92.7067 122.136 95.4126C122.846 97.2481 124.955 98.9617 126.686 98.4683C128.417 97.975 129.642 95.4729 130.081 91.036L133.59 57.4747C133.654 56.8612 133.951 56.293 134.422 55.8811C134.893 55.4692 135.505 55.2432 136.138 55.2472C136.812 55.2482 137.459 55.5103 137.936 55.9759C138.412 56.4415 138.679 57.0724 138.679 57.7299L139.962 85.15C139.725 87.7228 140.424 90.295 141.937 92.4165C142.39 92.8477 142.934 93.1779 143.532 93.3842C144.129 93.5905 144.765 93.668 145.396 93.6114C148.268 93.3377 150.913 91.9693 152.755 89.8042C154.258 87.9372 155.581 85.9391 156.708 83.8353C158.177 81.0608 159.993 78.4738 162.113 76.1332C162.591 75.6721 163.236 75.4139 163.908 75.4149C164.58 75.4158 165.225 75.6759 165.701 76.1383C166.174 76.6035 166.439 77.2322 166.438 77.8871C166.438 78.542 166.171 79.17 165.696 79.6338C163.865 81.6857 162.298 83.9479 161.03 86.3701C159.76 88.7434 158.257 90.9912 156.542 93.082C155.168 94.6745 153.484 95.986 151.588 96.9406C149.691 97.8953 147.618 98.4743 145.49 98.644C144.153 98.7284 142.813 98.5345 141.559 98.0754C140.305 97.6162 139.166 96.9023 138.217 95.981C136.656 94.3479 135.623 92.3029 135.248 90.1014L135.093 91.7373C134.835 94.216 134.035 101.652 128.028 103.379C125.788 103.812 123.464 103.435 121.489 102.318C119.514 101.202 118.024 99.4233 117.298 97.3145C116.474 95.0339 116.173 92.6046 116.418 90.1984L110.614 91.5535C111.861 95.504 111.855 99.7292 110.597 103.676C109.71 106.396 107.931 108.757 105.534 110.397C103.137 112.037 100.254 112.865 97.3268 112.755C96.3424 112.655 95.3806 112.403 94.478 112.007C94.3116 112.405 94.1242 112.793 93.9165 113.172C93.0646 114.596 91.8346 115.77 90.3558 116.57C88.877 117.371 87.204 117.769 85.5129 117.721C84.2503 117.731 83.0118 117.384 81.9471 116.722C80.8825 116.061 80.0371 115.113 79.513 113.994C78.8194 112.144 78.681 110.141 79.1141 108.217C79.4083 107.188 79.4099 106.099 79.1186 105.069C79.1189 104.92 78.8141 104.548 77.949 104.497C77.2649 104.483 76.5865 104.62 75.9647 104.899C75.3429 105.177 74.7938 105.589 74.3588 106.103C73.6677 107.003 73.1332 108.007 72.7769 109.076C74.1233 109.809 75.289 110.819 76.1927 112.036C77.0964 113.254 77.7162 114.649 78.0087 116.124C78.3943 117.788 78.3259 119.522 77.8101 121.152C77.2944 122.782 76.3494 124.252 75.0691 125.416C73.6704 126.542 71.9802 127.27 70.1843 127.521C68.3884 127.772 66.5562 127.536 64.8888 126.839C64.1486 126.567 63.441 126.217 62.7783 125.795C62.2863 127.07 61.6259 128.278 60.8138 129.387C58.5769 132.541 55.1547 134.709 51.2885 135.422C50.5637 135.527 49.8325 135.584 49.0999 135.593ZM64.6937 120.914C65.2848 121.486 65.996 121.927 66.7784 122.206C67.5721 122.564 68.4505 122.705 69.3199 122.614C70.1893 122.524 71.0173 122.205 71.7156 121.693C72.3184 121.091 72.7543 120.351 72.9825 119.54C73.2107 118.729 73.2236 117.876 73.02 117.059C72.7957 115.727 72.0832 114.519 71.0146 113.66C70.8359 114.081 70.6826 114.477 70.4785 114.898C69.3308 117.5 67.2841 119.629 64.6937 120.914ZM65.34 113.825L64.9325 114.097C64.1988 114.635 63.5907 115.319 63.1484 116.103C64.0208 115.501 64.7507 114.724 65.2891 113.825L65.34 113.825Z" fill="black"/>
<path d="M135.311 81.7222C134.832 81.7202 134.363 81.5862 133.958 81.3356C133.553 81.085 133.229 80.7281 133.023 80.3059C132.736 79.7135 132.701 79.0343 132.926 78.4167C133.151 77.7992 133.618 77.2936 134.224 77.0105L146.803 71.2027C147.105 71.0601 147.433 70.9773 147.769 70.959C148.104 70.9407 148.44 70.9873 148.757 71.0961C149.074 71.2048 149.365 71.3737 149.615 71.5928C149.864 71.8119 150.067 72.077 150.211 72.3727C150.356 72.6688 150.44 72.9901 150.457 73.318C150.474 73.6458 150.424 73.9737 150.31 74.2825C150.196 74.5914 150.02 74.8752 149.792 75.1173C149.565 75.3594 149.29 75.555 148.984 75.6929L136.406 81.4759C136.066 81.6415 135.691 81.7259 135.311 81.7222Z" fill="black"/>
<path d="M171.743 68.8089C171.279 68.8116 170.822 68.6903 170.423 68.4581C170.024 68.2259 169.698 67.8917 169.481 67.4918C169.168 66.9095 169.105 66.2299 169.307 65.6026C169.508 64.9753 169.957 64.4516 170.554 64.1466L182.752 57.8921C183.349 57.5874 184.047 57.5264 184.691 57.7226C185.335 57.9188 185.872 58.356 186.185 58.9382C186.498 59.5205 186.561 60.2001 186.359 60.8273C186.158 61.4546 185.709 61.9784 185.112 62.2834L172.914 68.5379C172.549 68.7092 172.149 68.8016 171.743 68.8089Z" fill="black"/>
<path d="M58.2472 181.295C57.6727 181.313 57.1087 181.141 56.6471 180.808C56.1856 180.474 55.8536 179.998 55.7052 179.457L52.4905 167.627C52.3736 167.031 52.1318 166.465 51.7804 165.965C51.3715 166.041 50.9881 166.215 50.6639 166.469C50.3396 166.724 50.0845 167.052 49.9208 167.425C49.5566 168.312 49.2908 169.234 49.128 170.175C48.8785 171.512 48.4755 172.817 47.9266 174.066C47.6388 174.66 47.1204 175.119 46.4855 175.341C45.8505 175.564 45.1509 175.531 44.5406 175.251C43.9303 174.971 43.4593 174.466 43.2311 173.847C43.003 173.228 43.0363 172.547 43.3239 171.952C43.6968 171.049 43.9711 170.111 44.1422 169.152C44.3825 167.84 44.777 166.56 45.3181 165.336C45.8127 164.328 46.5235 163.436 47.4025 162.718C48.2814 162.001 49.3081 161.476 50.4132 161.178C51.1814 160.975 51.9867 160.941 52.7702 161.079C53.5536 161.217 54.2955 161.525 54.9414 161.978C55.8998 162.707 56.6227 163.689 57.0239 164.807C57.4198 163.462 57.8889 162.139 58.4291 160.843C59.91 157.3 63.2479 154.131 67.0881 155.624C68.374 156.172 69.425 157.137 70.0613 158.356C71.2876 154.961 73.6567 153.13 76.3027 153.406C77.7876 153.717 79.1061 154.542 80.0126 155.729C80.9191 156.917 81.3517 158.384 81.2299 159.859L81.2282 161.049C81.11 161.887 81.2139 162.741 81.53 163.528C81.614 163.637 81.7211 163.726 81.844 163.791C81.9669 163.855 82.1027 163.893 82.2419 163.901C82.9846 164 83.7382 163.824 84.3546 163.409C85.763 162.095 86.8145 160.461 87.4149 158.653C87.5458 158.351 87.7369 158.077 87.9771 157.847C88.2174 157.618 88.5021 157.437 88.8147 157.315C89.1272 157.193 89.4615 157.133 89.7981 157.138C90.1347 157.143 90.467 157.213 90.7756 157.344C91.3912 157.606 91.8754 158.095 92.1224 158.704C92.3694 159.313 92.3592 159.992 92.0942 160.593C91.1793 163.242 89.5395 165.597 87.3515 167.404C86.5032 168.009 85.5393 168.443 84.5164 168.68C83.4935 168.917 82.4324 168.952 81.3952 168.784C80.5796 168.66 79.7984 168.376 79.099 167.949C78.3997 167.522 77.7969 166.96 77.3275 166.299C76.3363 164.644 75.9196 162.722 76.1394 160.819L76.1408 159.827C76.126 159.302 75.9967 158.786 75.7613 158.314C75.3005 158.831 74.961 159.44 74.7663 160.098C73.5377 163.793 72.8553 167.64 72.7398 171.523L72.7378 172.936C72.7368 173.594 72.4678 174.224 71.99 174.688C71.5121 175.152 70.8645 175.413 70.1896 175.412C69.5148 175.411 68.8679 175.149 68.3914 174.683C67.9149 174.217 67.6477 173.586 67.6486 172.929C67.6493 172.458 67.6499 172.012 67.6506 171.541C67.605 168.259 67.0696 165.002 66.0614 161.87C65.5801 160.357 65.1986 160.183 65.1986 160.183C64.2021 160.711 63.46 161.601 63.1339 162.659C61.04 167.647 60.2963 173.075 60.974 178.423C61.0562 179.048 60.8911 179.68 60.5123 180.19C60.1334 180.701 59.5692 181.052 58.9343 181.172L58.2472 181.295Z" fill="black"/>
<path d="M96.1341 164.194C95.7273 164.218 95.3194 164.217 94.9127 164.192C93.1037 163.761 91.4537 162.847 90.1477 161.554C88.8416 160.26 87.9312 158.638 87.5185 156.868C86.7764 154.316 86.6896 151.625 87.2657 149.032C87.8418 146.439 89.0631 144.024 90.8223 141.999C93.2181 139.275 97.2153 137.694 100.24 139.955C101.372 140.9 102.109 142.217 102.313 143.655C102.517 145.094 102.174 146.556 101.349 147.765C100.04 149.56 98.187 150.909 96.0503 151.625L94.9047 152.07C93.9 152.393 92.935 152.824 92.0274 153.355C92.0771 154.076 92.204 154.791 92.4061 155.487C92.9126 157.174 94.1314 159.01 95.7341 159.26C97.3368 159.51 99.3744 158.15 101.669 155.153C104.339 151.904 106.52 148.301 108.147 144.453C108.676 143.009 109.045 141.513 109.248 139.992C108.318 139.301 107.577 138.397 107.089 137.361C106.728 136.578 106.553 135.726 106.576 134.868C106.6 134.009 106.821 133.167 107.223 132.404C107.556 131.771 108.031 131.219 108.613 130.791C109.195 130.362 109.87 130.068 110.585 129.929C111.18 129.826 111.792 129.931 112.314 130.227C112.836 130.523 113.232 130.99 113.433 131.545C114.079 133.365 114.429 135.273 114.468 137.198L115.028 137.422C116.644 137.968 118.137 138.812 119.426 139.908C120.617 141.126 121.494 142.602 121.987 144.214C122.48 145.826 122.575 147.529 122.263 149.183C122.183 150.599 121.768 151.976 121.051 153.21C120.335 154.443 119.335 155.498 118.131 156.292C117.247 156.786 116.255 157.068 115.237 157.114C114.219 157.16 113.205 156.969 112.278 156.557C111.554 156.257 110.909 155.802 110.39 155.226C109.871 154.651 109.491 153.969 109.28 153.231C108.132 155.014 106.908 156.673 105.736 158.184C104.563 159.694 101.02 164.201 96.1341 164.194ZM111.702 149.813C112.305 149.804 112.891 150.004 113.356 150.377C113.822 150.75 114.136 151.272 114.244 151.849C114.448 151.952 114.675 152.006 114.905 152.006C115.135 152.006 115.362 151.953 115.567 151.851C116.081 151.42 116.496 150.888 116.786 150.291C117.076 149.693 117.234 149.044 117.251 148.383C117.434 147.517 117.415 146.622 117.196 145.763C116.977 144.905 116.564 144.105 115.986 143.423C115.397 142.961 114.736 142.592 114.028 142.33C113.765 143.611 113.397 144.871 112.929 146.096C112.442 147.394 111.871 148.66 111.219 149.887L111.702 149.813ZM96.9776 143.768C96.0686 143.949 95.2558 144.44 94.6856 145.153C94.12 145.816 93.6325 146.539 93.232 147.307L94.1486 146.962C95.2747 146.607 96.2733 145.946 97.0267 145.057C97.1295 144.866 97.1834 144.653 97.1837 144.437C97.184 144.222 97.1308 144.009 97.0285 143.817L96.9776 143.768Z" fill="black"/>
<path d="M132.694 151.429C131.604 151.429 130.531 151.172 129.565 150.681C128.788 150.316 128.106 149.786 127.569 149.128C127.033 148.47 126.656 147.703 126.466 146.884C126.395 146.565 126.39 146.235 126.451 145.914C126.511 145.593 126.637 145.287 126.819 145.013C127.001 144.739 127.238 144.503 127.514 144.318C127.79 144.134 128.101 144.004 128.429 143.937C129.087 143.805 129.772 143.933 130.334 144.291C130.896 144.649 131.29 145.21 131.429 145.85C131.429 146.048 131.785 146.222 131.887 146.272C132.102 146.37 132.336 146.421 132.573 146.421C132.811 146.421 133.045 146.371 133.261 146.274C133.814 145.931 134.271 145.459 134.592 144.901C134.912 144.344 135.086 143.718 135.097 143.078C135.184 141.894 134.948 140.708 134.414 139.641C133.879 138.573 133.065 137.663 132.053 137C131.479 136.637 130.875 136.321 130.247 136.056L129.434 135.658C127.82 139.921 125.3 143.804 122.038 147.051C121.801 147.283 121.519 147.467 121.209 147.593C120.899 147.718 120.566 147.782 120.23 147.782C119.894 147.781 119.562 147.716 119.252 147.59C118.942 147.463 118.661 147.279 118.425 147.046C118.187 146.815 117.998 146.541 117.869 146.238C117.74 145.936 117.674 145.612 117.675 145.285C117.675 144.957 117.742 144.634 117.872 144.332C118.001 144.03 118.191 143.756 118.43 143.526C121.608 140.361 123.953 136.495 125.265 132.256C124.858 131.632 124.566 130.944 124.403 130.222C124.247 129.484 124.249 128.722 124.407 127.985C124.566 127.247 124.879 126.549 125.325 125.934C125.713 125.41 126.206 124.968 126.776 124.636C127.345 124.304 127.978 124.09 128.636 124.005C129.005 123.966 129.378 124.006 129.73 124.122C130.081 124.238 130.402 124.428 130.671 124.678C130.941 124.928 131.152 125.234 131.288 125.572C131.423 125.911 131.481 126.274 131.457 126.637C131.358 128.019 131.169 129.393 130.891 130.752L132.468 131.547C133.29 131.913 134.088 132.328 134.858 132.79C136.629 133.949 138.055 135.544 138.991 137.413C139.927 139.282 140.339 141.359 140.186 143.433C140.138 144.984 139.66 146.494 138.802 147.802C137.945 149.11 136.74 150.168 135.315 150.863C134.49 151.224 133.598 151.417 132.694 151.429Z" fill="black"/>
<path d="M150.848 142.357C149.536 142.31 148.25 141.99 147.075 141.42C145.9 140.849 144.863 140.042 144.033 139.05C142.146 136.868 141.027 134.153 140.844 131.305C140.66 128.457 141.42 125.627 143.013 123.233C144.576 121.085 146.756 119.435 149.279 118.49C151.802 117.545 154.556 117.348 157.194 117.923C157.43 117.647 157.726 117.424 158.06 117.27C158.395 117.117 158.759 117.036 159.129 117.033C159.75 117.029 160.351 117.246 160.82 117.644C161.288 118.042 161.59 118.593 161.67 119.194C161.931 121.166 161.988 123.16 161.84 125.144C162.042 126.184 162.339 127.205 162.726 128.194C162.955 128.909 163.376 129.551 163.945 130.055C164.306 130.192 164.697 130.242 165.083 130.199C165.469 130.157 165.838 130.023 166.159 129.81C167.305 129.035 168.312 128.082 169.14 126.989C169.568 126.486 170.182 126.168 170.849 126.104C171.516 126.04 172.183 126.235 172.703 126.647C172.962 126.853 173.177 127.108 173.335 127.396C173.493 127.683 173.591 127.999 173.624 128.324C173.656 128.648 173.623 128.976 173.525 129.288C173.427 129.601 173.267 129.891 173.054 130.143C171.865 131.705 170.398 133.046 168.723 134.103C167.616 134.782 166.342 135.158 165.034 135.191C163.726 135.224 162.434 134.913 161.292 134.291C160.837 134.03 160.418 133.713 160.047 133.347C159.634 134.462 159.156 135.554 158.617 136.617C158.083 137.916 157.263 139.086 156.215 140.044C155.168 141.001 153.918 141.724 152.553 142.161C151.994 142.289 151.422 142.355 150.848 142.357ZM154.235 122.53C152.869 122.52 151.52 122.828 150.302 123.431C149.084 124.033 148.031 124.91 147.233 125.99C146.261 127.473 145.798 129.218 145.91 130.973C146.022 132.729 146.703 134.404 147.855 135.759C148.247 136.285 148.77 136.705 149.375 136.98C149.98 137.254 150.648 137.373 151.313 137.325C152.23 137.104 153.147 136.089 154.066 134.355C155.482 131.536 156.349 128.486 156.623 125.359C156.491 124.538 156.407 123.71 156.372 122.88C155.71 122.69 155.027 122.581 154.337 122.555L154.235 122.53Z" fill="black"/>
<path d="M180.112 159.976C179.113 159.989 178.128 159.739 177.263 159.253C174.72 157.861 173.554 154.884 174.043 150.919C175.098 142.516 179.867 135.011 184.253 128.746L183.345 123.315C182.69 124.5 181.931 125.627 181.075 126.683C180.285 127.945 179.118 128.942 177.73 129.538C176.341 130.134 174.799 130.302 173.31 130.019C171.275 129.421 168.809 127.534 168.639 121.807C168.116 117.48 168.919 113.099 170.948 109.216C171.789 107.93 172.908 106.838 174.228 106.018C175.548 105.198 177.036 104.669 178.588 104.468C179.904 104.268 181.25 104.389 182.506 104.82L182.888 104.821C183.535 104.703 184.203 104.834 184.753 105.186C185.303 105.538 185.691 106.084 185.837 106.709C186.06 107.648 186.221 108.601 186.316 109.561L188.562 122.976L196.007 112.549C195.201 111.119 194.677 109.554 194.461 107.936C194.218 103.596 195.099 99.267 197.024 95.3463C197.688 93.7111 199.577 89.3258 203.725 88.7864C204.623 88.685 205.533 88.7774 206.39 89.0571C207.247 89.3368 208.031 89.797 208.685 90.4049C209.517 91.1861 210.172 92.1279 210.609 93.1702C211.046 94.2125 211.254 95.3321 211.221 96.4574C210.867 99.543 209.598 102.461 207.57 104.856L202.216 112.286C202.877 112.756 203.663 113.032 204.479 113.082C206.634 113.085 208.926 111.527 211.356 108.407L212.274 107.193C214.174 104.118 216.895 101.603 220.147 99.916C220.766 99.6595 221.463 99.6516 222.087 99.894C222.711 100.136 223.211 100.609 223.479 101.21C223.744 101.809 223.756 102.486 223.512 103.093C223.268 103.701 222.788 104.19 222.177 104.456C219.785 105.816 217.8 107.762 216.418 110.1L215.449 111.363C211.956 115.969 208.238 118.194 204.243 118.04C202.466 117.948 200.754 117.36 199.309 116.347L190.079 129.25L189.57 129.968L190.175 133.638C191.613 142.391 192.134 151.291 186.197 157.233C184.607 158.876 182.427 159.858 180.112 159.976ZM185.49 135.986C182.214 140.643 180.034 145.948 179.106 151.521C178.9 153.206 179.101 154.62 179.763 154.943C180.424 155.266 181.646 154.698 182.614 153.732C186.691 149.672 186.523 142.805 185.49 135.986ZM179.802 109.328L179.268 109.328C178.474 109.451 177.714 109.735 177.039 110.161C176.363 110.587 175.787 111.145 175.346 111.801C173.886 114.899 173.36 118.337 173.83 121.715C173.827 123.996 174.411 125.162 174.843 125.286C175.276 125.411 176.243 124.842 177.186 123.678C180.245 119.792 181.688 114.926 181.226 110.049L181.227 109.727C180.798 109.471 180.306 109.333 179.802 109.328ZM204.507 93.5969C203.668 93.5957 202.801 94.8587 201.958 97.0639C200.357 100.218 199.574 103.707 199.679 107.225C199.679 107.225 199.678 107.398 199.678 107.473L203.681 101.901C205.113 100.273 206.058 98.2934 206.412 96.1778C206.418 95.7611 206.335 95.3477 206.17 94.9635C206.004 94.5793 205.758 94.2326 205.448 93.9453C205.324 93.814 205.169 93.7138 204.996 93.6532C204.823 93.5926 204.638 93.5732 204.456 93.5968L204.507 93.5969Z" fill="black"/>
</g>
<defs>
<clipPath id="clip0_626_6361">
<rect width="270.641" height="252.219" fill="white" transform="translate(0.361328 0.835938) rotate(0.0820099)"/>
</clipPath>
</defs>
</svg>
