<svg width="64" height="53" viewBox="0 0 64 53" fill="none" xmlns="http://www.w3.org/2000/svg">
<g id="Calque_1" clip-path="url(#clip0_626_6438)">
<path id="Vector" d="M34.5713 35.1072C34.1026 35.605 33.6733 36.0689 33.2333 36.5247C33.0375 36.7276 32.8175 36.909 32.6254 37.1155C32.5519 37.1927 32.5097 37.2943 32.5068 37.4006C32.5756 38.4138 32.4557 39.431 32.153 40.4009C31.8622 41.3591 31.4346 42.2708 30.8832 43.108C30.5069 43.6827 29.9897 44.0778 29.4572 44.4692C29.1581 44.6882 28.8681 44.9483 28.5304 45.0779C28.1323 45.2218 27.7144 45.3041 27.2912 45.3218C26.932 45.3424 26.5683 45.1967 26.2136 45.2155C25.7152 45.2414 25.4332 44.9232 25.1359 44.639C24.8387 44.3548 24.5073 44.0483 24.3053 43.6881C23.7234 42.6451 23.4019 41.5011 23.2277 40.3276C23.101 39.4919 23.057 38.6438 22.9906 37.8001C22.9911 37.7154 22.9714 37.6318 22.9331 37.5562C22.8949 37.4805 22.8392 37.4149 22.7706 37.3648C22.7289 37.3505 22.6847 37.3447 22.6407 37.3479C22.5967 37.3512 22.5538 37.3633 22.5146 37.3836C21.9291 37.6517 21.3634 37.9619 20.7617 38.179C20.3019 38.3453 20.1861 38.6027 20.1861 39.0621C20.1861 40.198 19.9858 41.3197 19.6922 42.4118C19.4821 43.1938 19.333 44.0063 18.9028 44.7168C18.6604 45.119 18.391 45.506 18.1341 45.9001C17.9545 46.1682 17.7839 46.4435 17.5953 46.7295L17.7884 46.6893C17.2236 47.2032 16.7108 47.7028 15.9924 47.9226C16.0077 47.9495 16.0229 47.9763 16.0391 48.0031L16.6901 47.76C15.9838 48.1903 15.1752 48.426 14.3472 48.4428C12.9742 48.4723 12.192 47.6545 11.5032 46.683C10.8683 45.7893 10.5675 44.7329 10.3071 43.6765C10.0233 42.528 9.75121 41.3778 9.48001 40.2266C9.28155 39.3865 9.075 38.5455 8.61163 37.8037C8.28655 37.2835 7.87615 36.8277 7.29783 36.5667C6.93863 36.4049 6.58661 36.421 6.27859 36.6999C5.85754 37.0823 5.51425 37.5417 5.26743 38.053C5.0711 38.4378 4.89573 38.8328 4.7421 39.2363C4.57956 39.6895 4.67474 40.1632 4.71246 40.6297C4.74681 40.8964 4.75852 41.1654 4.74748 41.4341C4.70904 41.6921 4.64896 41.9465 4.56788 42.1946C4.55716 42.2455 4.52769 42.2904 4.48527 42.3207C4.16558 42.478 3.85666 42.6719 3.51541 42.7595C3.40529 42.7777 3.29236 42.7683 3.18682 42.7321C3.08129 42.6959 2.9865 42.634 2.91105 42.5521C2.72516 42.3582 2.54645 42.1562 2.35518 41.9667C2.26909 41.8971 2.17915 41.8324 2.08577 41.7728C2.04536 41.7406 1.98969 41.6959 1.9852 41.653C1.93042 41.0917 1.84421 40.5296 1.84421 39.9674C1.83335 39.1307 2.01392 38.3024 2.37224 37.5454C3.00085 36.2432 3.73543 35.0161 4.95672 34.184C5.58533 33.7568 6.26063 33.3501 7.09219 33.4815C7.10703 33.4842 7.12224 33.4842 7.13709 33.4815C8.0818 33.2634 8.76698 33.7496 9.41086 34.3243C10.7309 35.4933 11.5535 36.9725 11.9989 38.6518C12.3581 39.9924 12.6114 41.3661 12.9544 42.7148C13.1259 43.3896 13.3801 44.0456 13.6198 44.7016C13.7335 45.0048 13.958 45.2541 14.2484 45.3996C14.3262 45.4401 14.4159 45.4521 14.5017 45.4336C14.862 45.3288 15.1973 45.1527 15.4874 44.9157C15.7775 44.6787 16.0165 44.3858 16.1899 44.0545C16.5411 43.3869 16.7386 42.6621 16.8814 41.922C16.9667 41.4841 17.0781 41.0515 17.1508 40.6118C17.2236 40.1721 17.2721 39.7306 17.3304 39.2712C17.2686 39.2612 17.2062 39.2553 17.1436 39.2533C15.9645 39.2757 15.0504 38.768 14.2475 37.9324C13.7339 37.3961 13.5229 36.7624 13.4088 36.0895C13.2948 35.4165 13.2831 34.7444 13.5399 34.0919C13.6773 33.7407 13.7608 33.3591 13.9539 33.0436C14.12 32.7755 14.4029 32.5735 14.6427 32.3518C15.0019 32.0176 15.4455 31.8254 15.9089 31.6878C16.0966 31.6392 16.2908 31.6196 16.4845 31.6297C17.9527 31.6547 18.8193 32.5154 19.3752 33.7568C19.5359 34.1143 19.615 34.504 19.7344 34.8793C19.7524 34.9356 19.7775 34.9902 19.7928 35.0473C19.8368 35.2136 19.9239 35.2306 20.0747 35.1618C20.6522 34.8981 21.2296 34.6318 21.8169 34.3904C22.3489 34.1692 22.9187 34.0518 23.4953 34.0446C23.5579 34.0487 23.6201 34.0324 23.6726 33.9982C23.725 33.964 23.7649 33.9138 23.7862 33.8551C24.0433 33.332 24.4413 32.8902 24.9357 32.5788C25.0919 32.4805 25.2572 32.4001 25.417 32.3027C25.4556 32.2803 25.514 32.2589 25.523 32.2267C25.6128 31.8906 25.8957 31.9362 26.1417 31.9103C26.1848 31.9127 26.2279 31.9063 26.2683 31.8915C26.6356 31.6636 27.0424 31.686 27.4447 31.7217C28.1569 31.7843 28.8573 31.9112 29.4742 32.2973C29.8141 32.5064 30.1363 32.7425 30.4378 33.0034C30.7925 33.3162 31.1104 33.671 31.4732 34.0374C31.7929 33.671 32.1503 33.2938 32.4709 32.8881C33.0393 32.1731 33.579 31.4277 34.1448 30.7064C34.3244 30.4732 34.5193 30.2175 34.7653 30.0701C35.1039 29.8654 35.4487 29.5982 35.9031 29.7054C36.0025 29.7163 36.1027 29.7163 36.2021 29.7054C36.1914 29.7501 36.1824 29.7877 36.1797 29.7948C36.3018 29.8243 36.4203 29.8493 36.5389 29.8842C36.6574 29.919 36.7508 29.9485 36.8541 29.987C36.8906 29.9969 36.9225 30.0194 36.9439 30.0504C37.0685 30.2661 37.1754 30.4915 37.2636 30.7243C37.3622 31.0104 37.4226 31.3082 37.4432 31.61C37.4728 32.3902 37.471 33.1714 37.4665 33.9525C37.4611 34.8615 37.5177 35.757 37.9721 36.5739C38.0901 36.7935 38.2325 36.9992 38.3969 37.187C38.5935 37.4015 38.8665 37.3818 39.1297 37.321C39.7933 37.1673 40.3321 36.7919 40.8143 36.3379C41.1897 35.9876 41.522 35.5925 41.8704 35.2145C41.9232 35.1621 41.9584 35.0946 41.9709 35.0214C41.9835 34.9482 41.9728 34.8729 41.9404 34.806C41.5552 33.8041 41.4537 32.7415 41.2517 31.6985C41.134 31.0916 41.3415 30.5527 41.3872 29.9825C41.432 29.3938 41.5973 28.8205 41.8731 28.2978C42.1039 27.8511 42.3624 27.4192 42.6472 27.0045C42.7855 26.8106 43.0225 26.6685 43.2434 26.5577C43.3898 26.4844 43.4814 26.3441 43.6026 26.2895C43.8607 26.174 44.1368 26.1038 44.4189 26.0822C44.894 26.0482 45.3699 26.1215 45.766 26.4039C46.0386 26.6072 46.2885 26.8392 46.5113 27.0957C47.095 27.7437 47.2603 28.5436 47.2629 29.3792C47.2692 31.1247 46.7726 32.7522 46.0309 34.3163C46.012 34.3565 45.994 34.3967 45.9788 34.4387C45.9743 34.4512 45.9788 34.4673 45.9851 34.5031C46.2706 34.5924 46.5427 34.5093 46.7933 34.3797C47.6205 33.9599 48.368 33.4001 49.0024 32.7254C49.6333 32.0398 50.1488 31.2572 50.529 30.4079C50.9475 29.4963 51.3184 28.5614 51.7602 27.6614C52.3654 26.4281 53.1539 25.3225 54.2109 24.4198C54.8012 23.9062 55.4345 23.4436 56.1039 23.0372C56.9839 22.5144 57.934 22.3034 58.9479 22.2972C59.8602 22.2918 60.6604 22.6395 61.4479 23.0381C62.4052 23.5234 63.103 24.3027 63.5592 25.2242C64.0692 26.2565 64.159 27.3692 63.6597 28.4846C63.2538 29.3935 62.8147 30.2721 62.1879 31.0523C62.0712 31.1962 61.8942 31.2909 61.7443 31.4098C61.6245 31.501 61.5066 31.5903 61.3905 31.6779C61.148 31.8567 60.8948 32.0024 60.5697 31.9407C60.4969 31.9338 60.4241 31.9535 60.3649 31.9961C59.413 32.6664 58.4279 33.2965 57.5272 34.0294C56.7441 34.6666 56.0446 35.4075 55.3334 36.127C54.7622 36.7044 54.2153 37.3067 53.6792 37.9145C52.4175 39.3534 50.9609 40.5644 49.3751 41.6316C48.6755 42.1017 48.0056 42.6147 47.2935 43.0678C46.5176 43.5567 45.7121 44.0018 44.9102 44.4478C44.2483 44.8169 43.573 45.1628 42.9004 45.5149C41.9557 46.0082 41.0098 46.4983 40.0627 46.9851C39.7941 47.131 39.516 47.2588 39.2302 47.3676C38.8342 47.5062 38.422 47.5902 38.0233 47.7251C37.5851 47.8797 37.1639 48.0826 36.7266 48.2408C36.4365 48.3463 36.1276 48.3999 35.8357 48.5C35.6427 48.5661 35.4765 48.6966 35.2781 48.7601C34.0694 49.1551 32.8535 49.5332 31.6483 49.9336C31.4409 50.0024 31.2263 50.0337 31.0197 50.1123C30.799 50.1975 30.5739 50.2709 30.3453 50.3322C29.9789 50.4287 29.6018 50.4904 29.2399 50.6003C28.1856 50.9194 27.0846 50.9578 26.007 51.1437C25.2572 51.2751 24.501 51.3725 23.7458 51.4753C22.9376 51.5861 22.1294 51.6746 21.3284 51.797C21.0931 51.8328 20.8731 51.9651 20.6387 52.0249C20.3863 52.0879 20.1302 52.1347 19.8718 52.1653C18.8786 52.2895 17.8845 52.4048 16.8904 52.5228C16.2618 52.5987 15.6332 52.6926 14.9983 52.7471C14.2628 52.8105 13.5255 52.8481 12.7874 52.882C12.1758 52.9097 11.5634 52.9232 10.9509 52.9303C10.2442 52.9383 9.53658 52.9303 8.8047 52.9303L8.84062 52.7229C8.41856 52.765 8.04768 53.059 7.61753 52.9768L7.60586 52.9187L8.04409 52.8097V52.7659C7.87788 52.7664 7.71177 52.7574 7.54659 52.739C7.3697 52.7011 7.19495 52.654 7.02305 52.5978C7.12003 52.4423 6.65575 52.428 6.90271 52.2296L6.30284 51.7103L6.5902 51.6469L6.53992 51.5477L6.92696 51.2465L6.47795 51.2983C6.55697 51.158 6.62074 51.0445 6.6836 50.931L6.42945 50.7657C6.66383 50.7013 6.84344 50.6638 7.01496 50.603C7.18648 50.5422 7.33017 50.4627 7.4954 50.3885L7.42984 50.25C8.23087 50.0104 9.04626 50.0372 9.85447 50.0337C10.5729 50.0337 11.2913 50.0283 12.0097 50.014C12.8251 49.9979 13.6432 50.014 14.4532 49.9363C15.5533 49.8326 16.6587 49.7146 17.7381 49.4894C18.4565 49.3392 19.1857 49.2213 19.9095 49.0908C20.4941 48.9844 21.1012 49.0103 21.6948 48.9424C22.4069 48.8611 23.1154 48.7485 23.823 48.6323C23.964 48.609 24.0853 48.4848 24.2263 48.4535C24.4526 48.4052 24.6813 48.3685 24.9114 48.3436C26.5476 48.113 28.173 47.8351 29.7742 47.4114C31.7444 46.8886 33.6293 46.1325 35.5394 45.4398C36.0306 45.2611 36.5272 45.0957 37.0229 44.9295C37.7483 44.6956 38.4523 44.4001 39.127 44.0465C39.9549 43.5996 40.8188 43.2251 41.6477 42.7818C42.8645 42.1294 44.0723 41.4546 45.2658 40.7673C45.678 40.5314 46.0524 40.2311 46.4422 39.9576C46.8319 39.6841 47.1947 39.3713 47.6096 39.1443C48.6701 38.5616 49.5708 37.7733 50.4608 36.9761C50.9807 36.5095 51.4324 35.967 51.9155 35.4567C52.748 34.5826 53.5715 33.6996 54.4156 32.8371C55.2117 32.0276 56.0854 31.2975 57.0243 30.6573C57.9223 30.0424 58.7835 29.3801 59.6609 28.7393C60.1245 28.3904 60.4754 27.9142 60.6703 27.3692C60.7605 27.1481 60.7769 26.904 60.7171 26.6729C60.6572 26.4418 60.5243 26.2359 60.338 26.0858C60.0515 25.8543 59.783 25.6085 59.44 25.4744C59.0377 25.318 58.6138 25.2135 58.1962 25.3556C57.9085 25.4637 57.6387 25.6143 57.3961 25.8024C56.6973 26.3016 56.0638 26.8856 55.5103 27.5408C55.0476 28.0956 54.6678 28.7139 54.3824 29.3765C54.113 30.0022 53.866 30.6457 53.5742 31.2632C53.3493 31.7232 53.0996 32.1708 52.8261 32.6038C52.4337 33.2447 52.0664 33.9078 51.5994 34.4923C51.1243 35.0646 50.6026 35.597 50.0396 36.0841C49.2952 36.7338 48.4238 37.2234 47.4803 37.5221C46.963 37.6946 46.4116 37.6884 45.8791 37.6052C45.3466 37.5221 44.832 37.3791 44.313 37.2478C44.2618 37.2284 44.2058 37.2256 44.1529 37.2397C44.1 37.2538 44.053 37.2841 44.0184 37.3264C43.5335 37.8421 43.0647 38.3748 42.552 38.861C41.9611 39.4213 41.3037 39.9335 40.5216 40.1766C39.5975 40.4643 38.6295 40.6145 37.6821 40.2507C36.7347 39.887 35.9992 39.2533 35.5529 38.3176C35.0991 37.3865 34.7908 36.3919 34.6387 35.3682C34.6171 35.2931 34.5965 35.2225 34.5713 35.1072ZM25.9504 39.0352C25.9504 39.0826 25.9504 39.1121 25.9504 39.1407C26.0125 39.9582 26.1831 40.7639 26.4578 41.5368C26.5476 41.7826 26.7577 41.9918 26.9391 42.1955C26.9802 42.2294 27.0285 42.2534 27.0804 42.2656C27.1322 42.2779 27.1862 42.278 27.2382 42.2661C27.7249 42.1402 28.1559 41.8573 28.464 41.4618C29.0387 40.7057 29.2722 39.8226 29.432 38.9289C28.8151 39.0049 28.1973 39.0996 27.5758 39.1505C27.0397 39.1899 26.4964 39.2488 25.9486 39.0352H25.9504ZM28.9974 35.7686L29.036 35.6935C28.7864 35.4915 28.5502 35.2708 28.2862 35.0894C27.6719 34.6693 26.9787 34.7569 26.5198 35.2896C26.2998 35.5461 26.386 35.8759 26.6994 35.9849C27.5013 36.2584 28.2502 36.0421 28.9974 35.7686ZM16.6228 34.8087L16.5231 34.8194C16.4478 34.9861 16.3818 35.1568 16.3255 35.3307C16.286 35.4746 16.2357 35.6444 16.2797 35.7775C16.3695 36.0635 16.8186 36.2503 17.1625 36.169C17.0649 35.6868 16.8809 35.226 16.6192 34.8087H16.6228ZM11.3622 52.8624L11.3542 52.8293H10.07V52.8624H11.3622Z" fill="black"/>
<path id="Vector_2" d="M14.5181 10.506C15.0363 10.3781 15.5625 10.2745 16.0717 10.1181C16.9284 9.8562 17.7698 9.54518 18.6265 9.28331C18.8977 9.19813 19.1853 9.17867 19.4656 9.22655C19.7458 9.27443 20.0105 9.38827 20.2375 9.55858C20.4601 9.73497 20.6317 9.96686 20.735 10.2307C21.0493 10.9966 21.114 11.7974 21.1077 12.6313C21.1005 13.576 21.2379 14.5242 21.3466 15.4671C21.3744 15.7102 21.4481 15.9801 21.6941 16.1401C22.012 16.3475 22.3093 16.2098 22.6065 16.0972C22.9334 15.973 23.0771 15.712 23.1875 15.3921C23.6618 13.9797 24.2673 12.6144 24.9961 11.3139C25.3441 10.6768 25.8506 10.1392 26.467 9.75253C26.9493 9.45938 27.3884 9.08758 27.9613 8.96067C28.4661 8.84443 28.9903 8.84016 29.4969 8.94815C29.7547 9.00446 29.9989 9.17338 30.2153 9.33247C31.2867 10.1047 31.9216 11.17 32.2242 12.432C32.3894 13.1309 32.4819 13.8468 32.6148 14.5528C32.6939 14.9684 33.0638 15.1525 33.4679 14.9809C33.5523 14.9508 33.6314 14.9076 33.7023 14.8531C34.1109 14.4867 34.542 14.1506 34.8581 13.6823C35.4103 12.8645 35.7947 11.9896 35.9213 11.0145C35.9743 10.6052 36.0111 10.186 35.9043 9.76772H35.7049L35.6896 9.72125L35.8935 9.62383L35.6959 9.47815C35.7965 9.24667 35.8953 9.01698 35.9941 8.78907C36.0084 8.756 36.0497 8.71489 36.0407 8.6997C35.9285 8.47179 36.0946 8.52095 36.2204 8.52095L36.2069 8.29125L36.2563 8.31628L36.3919 7.98381L36.6613 7.90605L36.6541 7.83723L36.9235 7.91141L36.8238 7.7568C36.8373 7.74428 36.849 7.72641 36.8579 7.7273C37.8457 7.85868 38.839 7.96414 39.8375 7.79165C40.1321 7.7407 40.4284 7.70227 40.7248 7.66384C40.8837 7.64507 40.9439 7.59503 40.9044 7.42075C40.5766 5.91836 40.9502 4.56881 41.7934 3.30952C42.0954 2.87511 42.4656 2.49186 42.8899 2.17446C43.241 1.90008 43.6649 1.84377 44.0815 1.75887C44.4147 1.69094 44.7191 1.77943 45.0451 1.84824C45.9952 2.04576 46.5304 2.75003 47.054 3.43822C47.4042 3.8985 47.4284 4.51071 47.4967 5.07824C47.5772 5.70817 47.4982 6.34814 47.2668 6.93991C47.0913 7.4011 46.8306 7.8255 46.4981 8.19115C46.0489 8.67796 45.5248 9.09065 44.9454 9.4138C45.1205 9.71142 45.3944 9.84816 45.6638 9.98044C46.0015 10.1467 46.349 10.3013 46.7415 10.3049C46.8535 10.3114 46.9659 10.3005 47.0746 10.2727C47.5721 10.1127 48.0624 9.93843 48.4674 9.58808C48.6686 9.41469 48.9245 9.30297 49.1185 9.12333C50.0165 8.28947 50.6451 7.26255 51.1642 6.16593C51.5213 5.38677 51.9754 4.65532 52.5157 3.98876C53.455 2.86175 54.6637 2.18876 56.1077 1.91885C57.3811 1.68022 58.5781 1.93047 59.6998 2.53732C60.1113 2.75538 60.4534 3.0835 60.6876 3.48469C61.0134 4.02939 61.2108 4.64055 61.265 5.27218C61.3129 5.86624 61.257 6.46406 61.0998 7.03912C61.0549 7.20088 61.1087 7.38768 61.0746 7.55481C61.0082 7.88371 60.913 8.20724 60.8277 8.53793C60.8537 8.59423 60.9435 8.70238 60.9175 8.76137C60.886 8.83465 60.8322 9.01519 60.6436 8.88828L60.7459 8.77298L60.6992 8.72651C60.6387 8.77358 60.5835 8.82724 60.5349 8.88649C60.0096 9.67924 59.4339 10.4246 58.6437 10.9832C58.0582 11.3952 57.4853 11.8251 56.9069 12.247C56.0035 12.9057 55.0283 13.4678 54.2192 14.2534C53.6516 14.804 53.0904 15.3652 52.4815 15.8684C51.7066 16.5075 50.9001 17.1125 50.0821 17.6961C49.4534 18.143 48.7997 18.5407 48.1441 18.9402C47.9412 19.0645 47.6951 19.119 47.4715 19.2084C46.9974 19.4148 46.5143 19.6061 46.0563 19.8447C44.3527 20.7349 42.5756 21.4088 40.7607 21.9888C39.3876 22.4276 38.0083 22.8495 36.62 23.24C35.6322 23.518 34.6183 23.7316 33.6152 23.9702C32.4667 24.2437 31.3262 24.5619 30.166 24.7746C28.8899 25.0079 27.5941 25.1375 26.3045 25.3198C24.5345 25.57 22.7852 25.9249 21.0449 26.3288C20.1576 26.5335 19.2542 26.6676 18.3598 26.8392C18.2 26.8704 18.0473 26.9339 17.8901 26.9777C17.2753 27.1529 16.6602 27.3268 16.0447 27.4996C15.3479 27.6954 14.642 27.8652 13.9551 28.0904C12.7418 28.4872 11.5367 28.91 10.3334 29.3416C10.064 29.4373 9.81971 29.6017 9.54582 29.7438L9.65447 29.9127C9.63023 29.9306 9.61047 29.9565 9.58622 29.9628C9.03125 30.1076 8.48347 30.2988 7.91952 30.3829C6.67248 30.5688 5.42035 30.7228 4.16313 30.8449C3.66402 30.8836 3.16229 30.8731 2.66525 30.8136C2.30066 30.7779 1.94684 30.6537 1.58764 30.5696L1.59752 30.508L1.70437 30.4928C1.602 30.3453 1.50143 30.1934 1.39187 30.0459C1.31169 29.9642 1.23671 29.8777 1.16737 29.7867C1.05781 29.5973 0.969803 29.3962 0.863837 29.1808L1.14133 29.1102L0.888984 28.9868L1.12426 28.7804C1.11169 28.7625 1.0623 28.7026 1.06769 28.6973C1.18174 28.5811 1.1979 28.413 1.27872 28.2915C1.35954 28.1699 1.52298 28.1074 1.66397 28.0511C2.12824 27.8643 2.60688 27.8723 3.10617 27.892C3.68269 27.917 4.26551 27.8178 4.84563 27.7615C5.66372 27.682 6.48449 27.6176 7.29629 27.4934C7.68962 27.4353 8.07398 27.2833 8.44845 27.1359C9.26834 26.8195 10.0703 26.4557 10.8973 26.159C11.7109 25.8677 12.5398 25.6147 13.3713 25.3806C14.3116 25.1124 15.2626 24.889 16.2082 24.6468C16.7982 24.4949 17.3837 24.3295 17.9781 24.1999C18.4415 24.0971 18.9184 24.0516 19.3835 23.9532C20.568 23.7021 21.7426 23.3973 22.9334 23.1855C24.5498 22.8986 26.1797 22.6689 27.806 22.433C28.7525 22.302 29.6903 22.1143 30.6141 21.8708C31.8605 21.5339 33.1177 21.2452 34.366 20.91C35.4041 20.6357 36.4404 20.3506 37.4686 20.0404C38.636 19.6901 39.7935 19.3254 40.943 18.9322C42.5587 18.3727 44.1214 17.6716 45.6127 16.8372C46.0617 16.5879 46.5178 16.3144 47.0064 16.183C47.7113 15.9944 48.2528 15.569 48.8186 15.1668C49.3843 14.7647 49.9644 14.3625 50.4987 13.9156C51.192 13.332 51.8332 12.6858 52.5246 12.1004C53.1263 11.591 53.7585 11.1173 54.3925 10.6472C55.3031 9.97328 56.2289 9.31906 57.1458 8.65322C57.3254 8.52452 57.4871 8.37884 57.6963 8.20635L57.4215 8.12859C57.4556 8.0276 57.4871 7.93912 57.5113 7.84885C57.5903 7.59234 57.6631 7.33316 57.7466 7.07844C57.7968 6.89364 57.8648 6.71406 57.9495 6.54219C58.1821 6.12839 58.0869 5.70654 58.016 5.28201C58.0118 5.26433 58.0037 5.24782 57.9922 5.23373C57.9807 5.21964 57.9661 5.20834 57.9495 5.20068C57.5805 5.09075 57.2096 4.90486 56.8378 4.90307C56.4831 4.90307 56.1194 5.06752 55.7737 5.20426C55.3112 5.38301 54.9969 5.76821 54.652 6.10962C54.2282 6.52968 54.0342 7.08112 53.7441 7.57715C53.5798 7.85868 53.3257 8.12144 53.2673 8.42174C53.2152 8.68987 53.1344 8.94637 52.9566 9.08133C52.7757 9.22383 52.6293 9.40496 52.5282 9.61132C52.1897 10.2423 51.7317 10.7794 51.2306 11.279C50.9598 11.5518 50.6626 11.7973 50.3434 12.0119C49.7844 12.3935 49.1728 12.6925 48.5276 12.8994C48.4028 12.9378 48.2645 12.9325 48.1361 12.9629C47.8271 13.037 47.5236 13.1488 47.2111 13.1934C46.9021 13.2447 46.5873 13.252 46.2763 13.2149C45.7375 13.1345 45.1699 13.1559 44.6814 12.8359L44.6491 12.894L44.8359 12.9924L44.7811 13.0656C44.5755 12.9521 44.3518 12.8628 44.1687 12.7216C43.8206 12.4681 43.4941 12.1865 43.1925 11.8796C42.8396 11.4989 42.5433 11.0663 42.2137 10.6633C42.1869 10.6337 42.1542 10.6099 42.1177 10.5934C42.0813 10.577 42.0418 10.5682 42.0018 10.5676C41.0346 10.657 40.0692 10.7526 39.1012 10.8357C38.9216 10.8509 38.874 10.9332 38.8641 11.0833C38.7967 12.0459 38.4842 12.9378 38.0559 13.7923C37.8395 14.2239 37.6069 14.6503 37.3563 15.0632C37.2091 15.3054 37.007 15.5154 36.8319 15.7415C36.8055 15.7832 36.7824 15.8268 36.7627 15.872C36.7242 15.9602 36.6734 16.0427 36.6119 16.1169C36.3802 16.3385 36.1216 16.5325 35.8998 16.7622C35.4466 17.22 34.8857 17.5579 34.2681 17.7453C33.8463 17.8822 33.4177 17.9971 32.9839 18.0894C32.6667 18.1651 32.3354 18.1591 32.0211 18.072C31.7069 17.9849 31.4201 17.8196 31.1879 17.5916C31.0209 17.4352 30.8592 17.2716 30.6985 17.1081C30.1058 16.5057 29.9181 15.7308 29.7879 14.9389C29.6577 14.1471 29.4889 13.3463 29.1763 12.5866C29.0551 12.2854 28.836 12.1031 28.6007 11.9333C28.4301 11.8099 28.2415 11.9449 28.0933 12.0343C27.6776 12.2809 27.3902 12.6545 27.1639 13.071C26.4751 14.3383 25.9624 15.6816 25.4981 17.0419C25.2711 17.688 24.9097 18.2791 24.4375 18.7767C24.2283 19.0037 23.9625 19.2048 23.606 19.1896C23.5153 19.1862 23.4263 19.2153 23.3554 19.2718C23.1184 19.4944 22.8867 19.413 22.6478 19.2888C22.6089 19.2614 22.5633 19.245 22.5158 19.2414C21.9861 19.3228 21.4452 19.2924 20.9281 19.1521C20.8074 19.1132 20.6908 19.0629 20.5797 19.0019C20.4629 18.9429 20.3534 18.8705 20.2402 18.8044L20.1864 18.8661L20.48 19.0359L20.4073 19.1199C20.276 19.0338 20.1519 18.9373 20.0364 18.8312C19.4275 18.1752 18.9327 17.4441 18.7001 16.5727C18.5852 16.1437 18.5583 15.6924 18.4586 15.2589C18.3194 14.6583 18.3391 14.0505 18.3302 13.4446C18.3302 13.1559 18.3625 12.8672 18.3356 12.5732C18.3257 12.6626 18.3158 12.7519 18.3032 12.8637C18.2817 12.7108 18.2628 12.5786 18.2377 12.4078C18.0455 12.4713 17.8839 12.5196 17.7267 12.5785C16.7339 12.9571 15.6947 13.2015 14.6366 13.3052C14.4726 13.3186 14.3077 13.3186 14.1436 13.3052C14.1149 13.2984 14.0851 13.2978 14.0562 13.3033C14.0272 13.3089 13.9998 13.3205 13.9757 13.3374C13.9516 13.3543 13.9314 13.3761 13.9163 13.4014C13.9013 13.4266 13.8919 13.4547 13.8886 13.4839C13.586 14.6619 13.1316 15.7862 12.6493 16.8998C12.1258 18.1108 11.5933 19.3129 10.7941 20.3854C10.1924 21.1898 9.51978 21.9164 8.57148 22.3088C8.18264 22.4687 7.80098 22.7074 7.34479 22.6466C6.82305 22.5787 6.35697 22.4089 5.97981 22.0147C5.80739 21.836 5.59367 21.693 5.40239 21.5285C5.31259 21.449 5.14377 21.4114 5.21291 21.2238C5.22279 21.1969 5.18058 21.1433 5.15184 21.1102C4.78366 20.6911 4.70284 20.1825 4.69116 19.6525C4.65883 18.4951 4.87076 17.378 5.22997 16.2822C5.43561 15.6504 5.6727 15.0256 5.83344 14.3821C6.02202 13.6269 6.1684 12.8556 6.01304 12.0709C5.98072 11.9136 5.943 11.7232 5.83344 11.624C5.51824 11.3193 5.42035 10.8786 5.10604 10.5721C4.77108 10.2468 4.40559 10.0171 3.93863 10.1529C3.75903 10.2048 3.61624 10.4166 3.48962 10.581C3.1196 11.0508 2.87883 11.6083 2.79098 12.1987C2.75666 12.4424 2.67912 12.6782 2.56198 12.8949L3.03523 12.9459C3.0056 12.9807 2.98045 13.0353 2.95531 13.0353C2.8614 13.0425 2.76698 13.0307 2.67783 13.0004C2.54043 12.9378 2.5081 13.0156 2.46858 13.113C2.44807 13.156 2.4231 13.1967 2.39405 13.2346C2.33168 13.3239 2.24859 13.3969 2.15182 13.4475C2.05506 13.498 1.94747 13.5246 1.83818 13.525C1.7867 13.5359 1.73883 13.5596 1.69899 13.5938C1.41522 13.7923 1.23831 13.811 0.971605 13.6099C0.798289 13.4794 0.68334 13.2524 0.496554 13.1631C0.328625 13.0871 0.332217 12.9378 0.22715 12.8503C-0.0691937 12.5929 -0.0242918 12.2684 0.037671 11.9422C0.103226 11.5927 0.201112 11.2487 0.24242 10.8974C0.301689 10.3987 0.552234 9.98401 0.792003 9.56931C1.0328 9.15083 1.30634 8.75188 1.61009 8.37616C1.79415 8.16459 2.01926 7.99222 2.27192 7.8694C3.0065 7.49492 3.80482 7.39215 4.62291 7.40555C4.58789 7.19284 4.62291 7.16424 4.82586 7.19105C5.42843 7.2697 5.93581 7.54319 6.42703 7.89086C6.98703 8.27578 7.47358 8.75699 7.86384 9.31191C8.41612 10.1163 8.84087 10.9877 8.89027 11.9637C8.92546 12.6464 8.86501 13.3307 8.71066 13.9969C8.47808 14.98 8.11708 15.9283 7.82433 16.8962C7.60521 17.622 7.40406 18.353 7.20559 19.0841C7.18027 19.2084 7.17875 19.3364 7.20111 19.4613C7.23613 19.7491 7.38071 19.8268 7.59534 19.64C7.91476 19.3735 8.21179 19.0815 8.48346 18.7668C9.56736 17.4816 10.2112 15.9623 10.7734 14.4036C10.8515 14.1873 10.953 13.979 11.0302 13.7628C11.0661 13.6627 11.0527 13.5447 11.0886 13.4446C11.2089 13.105 11.3382 12.768 11.4694 12.432C11.5592 12.1933 11.499 11.9851 11.3733 11.7778C10.9951 11.1647 10.8254 10.4467 10.8892 9.73018C10.8991 9.5997 10.8758 9.46742 10.874 9.33604C10.8795 9.30003 10.8927 9.2656 10.9126 9.23505C11.0162 9.03269 11.1062 8.82369 11.182 8.60943C11.2592 8.33149 11.401 8.07554 11.596 7.86226C11.7441 7.69781 11.8654 7.53068 12.0899 7.45292C12.3494 7.36355 12.5946 7.37963 12.8586 7.3984C13.1657 7.41985 13.4144 7.55839 13.6605 7.70138C13.7719 7.76663 13.8401 7.91141 13.92 8.02403C14.405 8.6997 14.5091 9.46832 14.4669 10.2727C14.4642 10.3096 14.4642 10.3466 14.4669 10.3835C14.4703 10.3976 14.4758 10.4112 14.4831 10.4237L14.5181 10.506ZM43.7654 6.65749C44.0169 6.35987 44.3644 6.21598 44.4695 5.84686C44.5746 5.47775 44.4776 5.12382 44.1731 4.94507C43.8795 5.45897 43.5553 5.95411 43.7654 6.65749ZM50.0461 12.0718L50.0102 12.0057L48.8338 12.6509L48.8661 12.7117L50.0461 12.0718Z" fill="black"/>
<path id="Vector_3" d="M21.3956 3.20137L21.6435 3.40515C21.6552 3.41408 21.6731 3.42034 21.6776 3.43196C21.7939 3.71692 21.8932 4.00849 21.9748 4.30515C22.0144 4.47943 21.9506 4.67426 21.9515 4.86016C21.9515 4.91557 22.0153 4.97009 22.0566 5.03891C21.8689 5.2543 21.6381 5.4554 21.4953 5.70565C21.401 5.87278 21.3067 5.96394 21.1361 5.97377C20.8838 5.98539 20.7284 6.2696 20.4455 6.1981C20.1627 6.1266 19.8286 6.11945 19.5619 5.99432C19.3643 5.90495 19.226 5.67168 19.0815 5.48847C19.0168 5.40535 19.015 5.27665 18.9584 5.18459C18.7582 4.86105 18.8686 4.53662 18.9288 4.20683C18.997 3.84933 19.2548 3.59283 19.4236 3.28985C19.4452 3.25142 19.5403 3.25678 19.5987 3.23533C19.8942 3.12898 20.1833 3.00296 20.4842 2.91626C20.7266 2.84566 20.9179 3.01904 21.1253 3.11199C21.2137 3.14686 21.3039 3.1767 21.3956 3.20137Z" fill="black"/>
<path id="Vector_4" d="M34.2402 26.6783L34.4378 26.1662L34.3839 26.1429L35.0601 25.562L35.0709 25.4244L35.1382 25.4976C35.3071 25.4583 35.4606 25.4083 35.6178 25.3895C36.1234 25.3243 36.5355 25.5495 36.875 25.8802C37.0393 26.0401 37.1211 26.2931 37.2144 26.5147C37.3617 26.866 37.2351 27.2235 37.1426 27.5533C37.056 27.817 36.883 28.0442 36.6514 28.1985C36.6083 28.2289 36.5876 28.2879 36.5526 28.3326C36.5176 28.3773 36.4853 28.4372 36.4565 28.4345C36.2033 28.4122 35.968 28.6401 35.7058 28.4828C35.6824 28.4685 35.633 28.4828 35.6016 28.4988C35.325 28.6222 35.1724 28.3809 34.973 28.2852C34.9027 28.2395 34.8382 28.1855 34.7808 28.1244C34.7422 28.035 34.691 27.9081 34.6237 27.783C34.5304 27.627 34.4462 27.4659 34.3713 27.3003C34.3273 27.1788 34.3417 27.0322 34.3255 26.9044C34.3166 26.8275 34.2986 26.7507 34.2842 26.6747L34.2402 26.6783Z" fill="black"/>
<path id="Vector_5" d="M54.8282 15.9998C54.7186 16.0678 54.654 16.1384 54.6001 16.1321C54.5462 16.1258 54.4429 16.0427 54.4474 15.9971C54.4528 15.9373 54.5372 15.8407 54.5866 15.839C54.636 15.8372 54.715 15.9194 54.8282 15.9998Z" fill="black"/>
<path id="Vector_6" d="M46.5195 0.0607446C46.718 -0.0554423 46.806 0.00890703 46.8222 0.135819C46.8311 0.199275 46.7575 0.274348 46.7207 0.34406C46.6569 0.252898 46.5923 0.162632 46.5195 0.0607446Z" fill="black"/>
<path id="Vector_7" d="M62.9523 8.30738C62.8697 8.37799 62.823 8.44771 62.7682 8.45486C62.7134 8.462 62.6694 8.3914 62.6191 8.35476C62.6622 8.29369 62.7146 8.2397 62.7745 8.19477C62.7987 8.18226 62.8679 8.25197 62.9523 8.30738Z" fill="black"/>
<path id="Vector_8" d="M50.375 27.447C50.4163 27.362 50.4531 27.2834 50.4917 27.2056C50.4917 27.2012 50.5052 27.2056 50.5196 27.1985L50.7046 27.447H50.375Z" fill="black"/>
<path id="Vector_9" d="M11.3587 52.8615H10.0664V52.8284H11.3506L11.3587 52.8615Z" fill="white"/>
</g>
<defs>
<clipPath id="clip0_626_6438">
<rect width="63.9878" height="53" fill="white"/>
</clipPath>
</defs>
</svg>
