<svg width="45" height="50" viewBox="0 0 45 50" fill="none" xmlns="http://www.w3.org/2000/svg">
<g id="address-book">
<path id="Vector" d="M14.9945 50C12.8864 50.0182 10.7839 49.7778 8.73426 49.2842C8.25961 49.1658 7.83812 48.8922 7.53675 48.5069C7.23538 48.1215 7.07143 47.6465 7.07092 47.1573C7.07092 33.3519 6.60155 19.3587 5.69214 5.56791C5.66216 5.10499 5.7781 4.64432 6.02363 4.25074C6.10577 2.81328 6.72182 1.63985 7.78378 0.982722C8.49683 0.574059 9.30918 0.370973 10.1306 0.396006C20.8881 0.102647 31.8157 -0.0323062 42.5702 0.0204983C43.1473 0.0220429 43.7004 0.25181 44.1087 0.659606C44.5171 1.0674 44.7475 1.62014 44.7499 2.19723L44.9024 25.2757C44.9494 32.3721 44.9963 39.706 44.0223 46.9432C43.988 47.2287 43.8972 47.5046 43.7551 47.7547C43.613 48.0047 43.4225 48.2239 43.1947 48.3995C42.9669 48.5751 42.7065 48.7036 42.4285 48.7774C42.1505 48.8512 41.8606 48.8689 41.5757 48.8295C38.9249 48.4479 36.2534 48.2265 33.5758 48.1665C30.6423 48.1665 27.7087 48.6124 24.6138 49.07C21.4572 49.5247 18.2361 50 14.9945 50ZM11.4537 45.362C15.4492 45.978 19.6032 45.362 23.9713 44.7224C27.0897 44.2619 30.3137 43.7866 33.5553 43.772C35.6877 43.7903 37.8172 43.9333 39.9329 44.2003C40.5959 37.943 40.5519 31.5243 40.5196 25.2963L40.3818 4.38567C30.4076 4.35634 20.3542 4.48836 10.4211 4.76705V4.96068C10.501 5.58065 10.4097 6.21066 10.1571 6.78242C10.9785 19.5816 11.4126 32.5452 11.4537 45.362ZM9.69354 4.20673L7.87766 5.42417L9.73462 4.25074C9.72261 4.23548 9.70988 4.22078 9.69648 4.20673H9.69354Z" fill="black"/>
<path id="Vector_2" d="M24.9454 22.1591C24.4096 22.1648 23.881 22.0357 23.4082 21.7837C22.9452 21.5158 22.545 21.1516 22.2348 20.7158C21.4707 19.7102 20.8001 18.6369 20.2312 17.5094C20.0639 17.1782 19.9851 16.8093 20.0023 16.4386C20.1138 13.5256 20.2135 11.0144 22.2319 9.69139C23.2536 9.06169 24.4792 8.85146 25.6524 9.10468C28.6153 9.65619 30.8977 12.3903 30.9593 15.4676C31.0209 18.545 28.8588 21.37 25.9223 22.0476C25.6022 22.123 25.2743 22.1604 24.9454 22.1591ZM24.3998 16.028C24.6931 16.5658 25.0163 17.0868 25.3679 17.5886C25.7258 17.381 26.024 17.0846 26.2337 16.7279C26.4434 16.3712 26.5574 15.9664 26.5648 15.5527C26.5472 14.5758 25.7404 13.5784 24.8427 13.4112C24.7884 13.4013 24.7336 13.3944 24.6785 13.3907C24.5171 13.8865 24.4408 15.1391 24.3998 16.028Z" fill="black"/>
<path id="Vector_3" d="M8.28869 41.0202C6.49325 41.0246 4.76429 40.3412 3.45708 39.1104C2.49392 38.1726 1.81938 36.9787 1.51318 35.6697C1.20699 34.3607 1.28195 32.9914 1.7292 31.7237C1.99745 30.9205 2.44202 30.1874 3.03034 29.5783C3.61865 28.9692 4.3358 28.4994 5.12922 28.2034C5.49768 27.8315 5.98639 27.6027 6.50801 27.558C6.79513 27.5335 7.08427 27.5659 7.35883 27.6534C7.63339 27.741 7.88795 27.8819 8.10792 28.068C8.32788 28.2542 8.50891 28.482 8.64062 28.7383C8.77233 28.9946 8.85212 29.2744 8.87541 29.5616C8.90768 29.9254 8.93995 31.7677 6.59015 32.3427C6.41054 32.4271 6.2514 32.5495 6.12376 32.7014C5.99612 32.8534 5.90301 33.0313 5.85089 33.2227C5.69236 33.6895 5.66769 34.1914 5.77968 34.6715C5.89167 35.1516 6.13584 35.5908 6.48454 35.9392C6.84931 36.2715 7.29946 36.4956 7.78448 36.5863C8.2695 36.6769 8.77019 36.6307 9.23037 36.4526C10.1104 36.0918 10.8673 35.2205 11.5772 34.358C11.9521 33.9223 12.483 33.6511 13.0558 33.6027C13.6286 33.5543 14.1975 33.7326 14.6402 34.0992C15.0829 34.4658 15.364 34.9915 15.4232 35.5632C15.4824 36.135 15.3149 36.7071 14.9567 37.1567C13.9358 38.3859 12.7008 39.7588 10.9084 40.501C10.078 40.8452 9.18763 41.0217 8.28869 41.0202Z" fill="black"/>
<path id="Vector_4" d="M7.77767 21.5179C6.24865 21.5158 4.7504 21.0881 3.45063 20.2829C1.49686 19.0713 0.223689 17.1029 0.0242056 15.0024C-0.210481 12.4414 1.28271 9.97718 3.57677 9.13524C4.51434 8.83253 5.50096 8.71107 6.48396 8.77735C6.77174 8.78156 7.05588 8.84241 7.32015 8.95644C7.58441 9.07047 7.82362 9.23543 8.02412 9.44192C8.22462 9.64841 8.38248 9.89237 8.48868 10.1599C8.59488 10.4274 8.64734 10.7132 8.64307 11.001C8.62841 12.2126 7.60458 13.075 6.41942 13.1601C5.96826 13.1267 5.51465 13.1593 5.0729 13.2569C4.66513 13.4036 4.33951 14.0402 4.39231 14.5888C4.45685 15.2928 4.9937 16.0556 5.76229 16.5337C6.1889 16.7981 6.66349 16.9756 7.15884 17.0561C7.65419 17.1367 8.16057 17.1186 8.64894 17.0031C9.11184 16.8835 9.54414 16.6672 9.91732 16.3684C10.2905 16.0695 10.5961 15.695 10.8139 15.2694C10.9366 15.0057 11.1104 14.769 11.3254 14.5733C11.5404 14.3775 11.7922 14.2264 12.0662 14.1289C12.3402 14.0314 12.6308 13.9895 12.9211 14.0054C13.2115 14.0214 13.4958 14.0949 13.7574 14.2218C14.019 14.3488 14.2528 14.5265 14.445 14.7447C14.6373 14.9628 14.7842 15.2171 14.8772 15.4926C14.9702 15.7681 15.0074 16.0594 14.9868 16.3494C14.9661 16.6395 14.8878 16.9225 14.7567 17.182C14.2638 18.1863 13.5596 19.0721 12.6921 19.7785C11.8247 20.4849 10.8147 20.9952 9.73143 21.2744C9.09297 21.4372 8.43656 21.519 7.77767 21.5179Z" fill="black"/>
<g id="Group 522">
<path id="Vector_5" d="M24.5449 40.4827C22.869 40.4615 21.199 40.2798 19.5578 39.94C19.1643 39.8646 18.799 39.6829 18.5016 39.4145C18.2042 39.146 17.9861 38.8012 17.871 38.4175C16.3162 33.2544 18.4577 27.3432 22.949 24.3656C23.4355 24.0446 24.0291 23.9287 24.6006 24.0429C24.718 24.0429 24.894 24.0429 25.07 24.0429C26.1672 24.0429 28.0036 24.0048 29.7373 24.6443C31.0544 25.1513 32.2333 25.962 33.1778 27.0106C34.1224 28.0592 34.8061 29.316 35.1733 30.6787C35.41 31.5827 35.5293 32.5134 35.5282 33.448C35.5712 34.3765 35.2704 35.2883 34.6834 36.009C33.0435 38.2121 30.4326 39.7141 27.3259 40.2451C26.4073 40.4027 25.477 40.4822 24.5449 40.4827ZM21.8137 35.877C23.3926 36.1493 25.0048 36.1682 26.5896 35.9327C28.5492 35.5983 30.2185 34.6772 31.1689 33.4011C31.144 32.8707 31.0674 32.3441 30.9401 31.8287C30.757 31.1409 30.4166 30.5052 29.9456 29.9716C29.4747 29.4381 28.8862 29.0213 28.2265 28.7542C27.2526 28.3963 25.9853 28.4139 25.1375 28.4257H24.8148C23.7414 29.3259 22.9061 30.4766 22.3827 31.7762C21.8593 33.0757 21.6639 34.4841 21.8137 35.877Z" fill="black"/>
<circle id="Ellipse 262" cx="27" cy="31.9294" r="7" fill="black"/>
</g>
<ellipse id="Ellipse 263" cx="25.5508" cy="15.0247" rx="3" ry="3.5" fill="black"/>
</g>
</svg>
