<svg width="51" height="41" viewBox="0 0 51 41" fill="none" xmlns="http://www.w3.org/2000/svg">
<path id="arrow-left" d="M24.2558 40.4205C23.7845 40.4198 23.325 40.2726 22.941 39.9993L2.15247 25.1604C1.71421 24.8459 0.540742 24.0063 0.376394 22.48C0.351863 22.2547 0.351863 22.0273 0.376394 21.802C0.333191 21.4868 0.35706 21.166 0.446505 20.8607C0.53595 20.5554 0.688961 20.2724 0.895399 20.0304C6.98443 12.8522 13.7789 6.3044 21.1764 0.485763C21.6339 0.126393 22.2116 -0.0439641 22.7907 0.00969782C23.3699 0.0633597 23.9065 0.336964 24.2903 0.774287C24.6726 1.21291 24.872 1.78167 24.8473 2.36315C24.8227 2.94462 24.5758 3.49442 24.1577 3.89902L8.37173 19.1908C22.2605 19.1187 35.3419 18.9023 48.0485 18.6888L48.0861 18.6888C48.6817 18.688 49.2536 18.9218 49.6783 19.3397C50.1029 19.7576 50.3461 20.3261 50.3552 20.922C50.3601 21.2202 50.3064 21.5164 50.1969 21.7938C50.0874 22.0712 49.9244 22.3243 49.7172 22.5387C49.51 22.753 49.2626 22.9244 48.9891 23.0431C48.7157 23.1617 48.4215 23.2253 48.1235 23.2302C35.2871 23.4466 22.0587 23.6659 8.00266 23.738L25.5907 36.2831C25.834 36.4564 26.0408 36.6761 26.1991 36.9296C26.3574 37.1832 26.4642 37.4654 26.5132 37.7603C26.5622 38.0552 26.5526 38.3568 26.4848 38.648C26.4171 38.9391 26.2925 39.214 26.1183 39.4568C25.9082 39.7555 25.6292 39.9991 25.305 40.1669C24.9807 40.3346 24.6208 40.4216 24.2558 40.4205Z" fill="black"/>
</svg>
