<svg width="15" height="12" viewBox="0 0 15 12" fill="none" xmlns="http://www.w3.org/2000/svg">
<path id="Vector" d="M8.11093 -3.20876e-05C8.24727 0.000873915 8.37991 0.045566 8.49034 0.127813L14.4824 4.49502C14.6176 4.58227 14.733 4.69827 14.821 4.83523C14.909 4.97218 14.9675 5.12692 14.9926 5.28906C15.0025 5.35596 15.0025 5.42402 14.9926 5.49093C15.0047 5.58438 14.9975 5.6794 14.9716 5.76982C14.9457 5.86023 14.9016 5.94404 14.8421 6.0158C13.0895 8.14234 11.1323 10.0812 9.00057 11.8029C8.8687 11.9091 8.70226 11.9592 8.53553 11.9429C8.3688 11.9266 8.21449 11.8452 8.10439 11.7154C7.99549 11.5855 7.93891 11.4178 7.94621 11.2464C7.9535 11.0751 8.02412 10.9131 8.14364 10.7935L12.7227 6.25805C8.71929 6.25805 4.95139 6.34553 1.28814 6.40609C1.11465 6.40609 0.948263 6.3352 0.825586 6.209C0.702909 6.08281 0.63399 5.91165 0.63399 5.73318C0.63399 5.55471 0.702909 5.38355 0.825586 5.25736C0.948263 5.13116 1.11465 5.06027 1.28814 5.06027C4.98409 4.9997 8.79779 4.93241 12.847 4.91223L7.78386 1.19775C7.71362 1.14624 7.65398 1.08095 7.60837 1.00563C7.56276 0.930316 7.53208 0.846464 7.5181 0.758905C7.50411 0.671345 7.5071 0.581809 7.52689 0.495443C7.54668 0.409076 7.58288 0.327586 7.6334 0.255668C7.69081 0.180635 7.76308 0.119032 7.84541 0.0749439C7.92774 0.0308555 8.01826 0.00529894 8.11093 -3.20876e-05Z" fill="black"/>
</svg>
