<svg width="51" height="41" viewBox="0 0 51 41" fill="none" xmlns="http://www.w3.org/2000/svg">
<path id="arrow-right" d="M26.4552 0.579478C26.9265 0.580222 27.3859 0.727415 27.77 1.00072L48.5585 15.8396C48.9967 16.1541 50.1702 16.9937 50.3345 18.52C50.3591 18.7453 50.3591 18.9727 50.3345 19.198C50.3778 19.5132 50.3539 19.834 50.2644 20.1393C50.175 20.4446 50.022 20.7276 49.8155 20.9696C43.7265 28.1478 36.9321 34.6956 29.5346 40.5142C29.0771 40.8736 28.4994 41.044 27.9202 40.9903C27.341 40.9366 26.8044 40.663 26.4206 40.2257C26.0383 39.7871 25.8389 39.2183 25.8636 38.6368C25.8883 38.0554 26.1352 37.5056 26.5532 37.101L42.3392 21.8092C28.4504 21.8813 15.369 22.0977 2.66241 22.3112L2.62489 22.3112C2.02929 22.312 1.45733 22.0782 1.03268 21.6603C0.608034 21.2423 0.364878 20.6739 0.355786 20.078C0.350822 19.7798 0.404555 19.4835 0.514028 19.2061C0.623501 18.9287 0.786517 18.6756 0.993754 18.4613C1.20099 18.247 1.44839 18.0756 1.72183 17.9569C1.99527 17.8383 2.28944 17.7747 2.58744 17.7698C15.4238 17.5534 28.6523 17.3341 42.7083 17.262L25.1203 4.71693C24.8769 4.54358 24.6702 4.32385 24.5119 4.07034C24.3536 3.81684 24.2468 3.53456 24.1978 3.23969C24.1487 2.94482 24.1584 2.64316 24.2261 2.35203C24.2939 2.0609 24.4184 1.78601 24.5926 1.54315C24.8027 1.24445 25.0817 1.00088 25.406 0.833117C25.7302 0.665352 26.0902 0.578343 26.4552 0.579478Z" fill="black"/>
</svg>
