<svg width="35" height="50" viewBox="0 0 35 50" fill="none" xmlns="http://www.w3.org/2000/svg">
<path id="attachment" d="M17.5726 50C13.0762 50 8.12874 48.5626 4.92342 44.4849C2.52833 41.4407 1.72998 37.6808 1.22247 34.0724C0.527548 29.1319 0.249549 24.1416 0.391447 19.1545C0.513131 14.9402 0.985019 10.0814 3.57599 6.00963C6.16695 1.93788 11.5151 -1.25477 16.7653 0.485597C19.9053 1.53101 22.5586 4.34649 23.8556 8.02621C24.9418 11.103 25.0427 14.3313 25.0427 17.3755C25.0427 19.9593 24.9893 22.5788 24.8795 25.1596C24.7756 27.5356 24.5026 30.2501 22.5823 32.2369C20.1873 34.7168 15.967 34.9099 12.9694 32.6913C10.6604 30.9807 9.20315 28.0553 8.96869 24.6726C8.77874 21.8868 9.38418 19.1604 9.92137 16.7578C10.049 16.1924 10.3949 15.7005 10.8837 15.3895C11.3724 15.0785 11.9644 14.9735 12.5302 15.0976C12.8104 15.1597 13.0756 15.2766 13.3107 15.4416C13.5457 15.6066 13.7458 15.8163 13.8997 16.0588C14.0535 16.3014 14.158 16.5719 14.2072 16.8549C14.2564 17.1379 14.2492 17.4279 14.1862 17.7081C13.6935 19.9267 13.1831 22.2194 13.3344 24.3696C13.4769 26.4486 14.3139 28.2513 15.5722 29.1839C16.7772 30.0748 18.5846 30.0749 19.4305 29.2047C20.2763 28.3345 20.4277 26.6297 20.5019 24.9785C20.6087 22.463 20.6621 19.9118 20.6592 17.3903C20.6592 14.6135 20.5791 11.9198 19.7243 9.49037C18.8696 7.06098 17.2461 5.27012 15.3793 4.64941C12.2897 3.61885 8.89152 5.80174 7.25621 8.36775C5.23508 11.5426 4.8581 15.6708 4.75423 19.2911C4.61921 24.031 4.88334 28.7739 5.54373 33.4695C5.96517 36.472 6.59732 39.5578 8.35134 41.7852C11.3014 45.5362 16.7801 46.053 20.579 45.3491C22.4607 45.0046 25.016 44.2087 26.5148 42.3792C28.156 40.3745 28.438 37.4105 28.6161 34.0248L29.732 13.1552C29.7627 12.5742 30.0224 12.0291 30.4541 11.6394C30.8859 11.2497 31.4544 11.0472 32.0351 11.0763C32.3227 11.0904 32.6047 11.1611 32.865 11.2845C33.1252 11.4079 33.3585 11.5815 33.5515 11.7954C33.7445 12.0092 33.8935 12.2591 33.9897 12.5307C34.086 12.8023 34.1278 13.0902 34.1126 13.378L32.9997 34.2476C32.8275 37.461 32.593 41.8684 29.9071 45.1442C28.0314 47.437 25.1585 48.9516 21.3803 49.6466C20.1244 49.8794 18.8499 49.9977 17.5726 50Z" fill="black"/>
</svg>
