<svg width="53" height="50" viewBox="0 0 53 50" fill="none" xmlns="http://www.w3.org/2000/svg">
<g id="bin">
<path id="Vector" d="M2.63488 12.0472C2.0434 12.0467 1.4752 11.8164 1.05016 11.4048C0.625114 10.9932 0.376454 10.4325 0.356611 9.84097C0.337529 9.23715 0.558082 8.65033 0.970104 8.20877C1.38213 7.76722 1.9521 7.50684 2.5554 7.48457L50.4226 5.80268C51.0234 5.79496 51.6038 6.01991 52.0427 6.43052C52.4815 6.84113 52.7448 7.4056 52.7774 8.00592C52.7965 8.61024 52.5755 9.19749 52.1628 9.63913C51.7502 10.0808 51.1794 10.3408 50.5756 10.3623L2.71141 12.0442L2.63488 12.0472Z" fill="black"/>
<path id="Vector_2" d="M19.4236 5.39614C18.8434 5.39585 18.2852 5.17469 17.8621 4.77754C17.4389 4.38039 17.1827 3.83701 17.1453 3.2577C17.1261 2.95811 17.1661 2.65768 17.263 2.37356C17.3599 2.08944 17.5117 1.8272 17.7099 1.60181C17.9081 1.37643 18.1486 1.19232 18.4179 1.05999C18.6872 0.927668 18.9799 0.849721 19.2793 0.830604L32.2601 0.00291637C32.8622 -0.0273214 33.4524 0.178514 33.9053 0.576704C34.3582 0.974894 34.6381 1.53407 34.6856 2.13546C34.7047 2.43529 34.6646 2.73595 34.5676 3.02025C34.4705 3.30455 34.3184 3.56692 34.1199 3.79234C33.9214 4.01776 33.6805 4.20182 33.4109 4.33398C33.1412 4.46614 32.8482 4.54382 32.5486 4.56256L19.5707 5.3932L19.4236 5.39614Z" fill="black"/>
<path id="Vector_3" d="M32.2374 50C30.7496 49.9833 29.2638 49.885 27.7868 49.7055C22.983 49.1871 18.0203 48.3741 14.7707 44.6981C13.0311 42.7246 12.1804 40.3594 11.3945 37.9058C8.75367 29.6549 6.71825 21.222 5.3044 12.6746C5.25515 12.3784 5.26472 12.0755 5.33264 11.783C5.40056 11.4906 5.52543 11.2145 5.70015 10.9704C5.87486 10.7264 6.09596 10.5192 6.35079 10.3608C6.60563 10.2023 6.88921 10.0958 7.18526 10.0472C7.78229 9.9501 8.39344 10.0936 8.88496 10.4464C9.37648 10.7991 9.7083 11.3323 9.80789 11.9293C11.1875 20.2559 13.1708 28.4711 15.742 36.5096C16.4014 38.5715 17.0401 40.3623 18.1969 41.676C20.3633 44.1355 24.2016 44.7305 28.2754 45.1694C32.0872 45.5759 36.3583 45.8174 38.6748 43.4669C40.0494 42.0737 40.6205 39.8793 41.1297 37.5612C43.0219 28.9657 44.2277 20.2332 44.7355 11.4463C44.7516 11.1462 44.8269 10.8523 44.957 10.5814C45.087 10.3106 45.2693 10.0681 45.4934 9.86802C45.7174 9.66792 45.9788 9.51411 46.2624 9.41545C46.5461 9.31678 46.8464 9.27521 47.1462 9.29311C47.7492 9.33103 48.3127 9.60648 48.7132 10.0592C49.1137 10.5118 49.3186 11.1049 49.2832 11.7084C48.7612 20.7381 47.522 29.712 45.5773 38.545C44.9474 41.4198 44.1438 44.4183 41.9156 46.6775C39.2517 49.3756 35.4959 50 32.2374 50Z" fill="black"/>
<path id="Vector_4" d="M22.997 39.0397C22.5206 39.0385 22.0564 38.8885 21.6691 38.6108C21.2819 38.3331 20.9908 37.9415 20.8365 37.4904C18.9135 31.8352 17.7407 25.9518 17.3484 19.9911C17.3097 19.3862 17.5123 18.7907 17.9118 18.3351C18.3114 17.8796 18.8752 17.6012 19.4795 17.5611C20.0831 17.5262 20.6761 17.7304 21.1304 18.1294C21.5848 18.5284 21.8641 19.0903 21.9079 19.6936C22.2677 25.2527 23.3574 30.7402 25.1487 36.0147C25.2455 36.299 25.2853 36.5996 25.2659 36.8993C25.2465 37.199 25.1683 37.492 25.0357 37.7614C24.9032 38.0309 24.7188 38.2715 24.4932 38.4696C24.2677 38.6677 24.0053 38.8194 23.7211 38.916C23.488 38.9961 23.2435 39.0379 22.997 39.0397Z" fill="black"/>
<path id="Vector_5" d="M29.939 39.0368C29.3577 39.0363 28.7986 38.8138 28.3757 38.4148C27.9528 38.0157 27.6982 37.4701 27.6637 36.8895L26.5746 18.7717C26.5563 18.4723 26.597 18.1722 26.6947 17.8885C26.7923 17.6049 26.9449 17.3433 27.1437 17.1187C27.3424 16.8941 27.5834 16.7109 27.853 16.5796C28.1225 16.4483 28.4153 16.3714 28.7145 16.3534C29.3179 16.3203 29.9099 16.5265 30.3623 16.9274C30.8147 17.3283 31.091 17.8915 31.1311 18.4948L32.2202 36.6156C32.2385 36.915 32.1977 37.2151 32.1 37.4987C32.0024 37.7824 31.8499 38.044 31.6511 38.2685C31.4524 38.4931 31.2114 38.6763 30.9418 38.8076C30.6723 38.939 30.3795 39.0158 30.0803 39.0338L29.939 39.0368Z" fill="black"/>
<path id="Vector_6" d="M37.6261 37.5964C37.4988 37.5958 37.3719 37.5849 37.2464 37.564C36.9506 37.5148 36.6673 37.4076 36.413 37.2487C36.1586 37.0898 35.938 36.8822 35.7639 36.6379C35.5897 36.3936 35.4654 36.1173 35.398 35.8249C35.3307 35.5325 35.3216 35.2296 35.3714 34.9337C35.6363 33.3461 35.4803 29.8733 35.3419 26.81C35.18 23.1988 35.027 19.7908 35.3714 17.729C35.4184 17.4318 35.5241 17.147 35.6822 16.8911C35.8403 16.6353 36.0477 16.4134 36.2924 16.2385C36.537 16.0636 36.8139 15.9392 37.1071 15.8724C37.4002 15.8057 37.7037 15.798 37.9999 15.8497C38.5954 15.9527 39.1259 16.2877 39.4751 16.7812C39.8243 17.2748 39.9639 17.8867 39.8632 18.483C39.5982 20.0707 39.7543 23.5434 39.8926 26.6067C40.0545 30.2179 40.2075 33.6259 39.8632 35.6907C39.7744 36.2212 39.5013 36.7032 39.092 37.0519C38.6827 37.4006 38.1636 37.5934 37.6261 37.5964Z" fill="black"/>
</g>
</svg>
