<svg width="52" height="50" viewBox="0 0 52 50" fill="none" xmlns="http://www.w3.org/2000/svg">
<g id="chat">
<path id="Vector" d="M47.5294 50C47.4636 50 47.3949 50 47.3292 50C46.8609 49.957 46.4185 49.766 46.0658 49.4548C45.7131 49.1435 45.4684 48.7281 45.3673 48.2685C44.8925 46.0705 42.8619 44.0014 40.0705 42.8652C37.6538 41.8778 34.7653 41.4943 30.7298 41.5916C29.4972 41.6231 28.2645 41.6946 27.0318 41.7662C24.7982 41.8921 22.4816 42.0295 20.1678 41.9322C17.8541 41.8349 14.4479 41.4428 12.177 39.1074C10.4296 37.3101 9.93768 34.9433 9.70316 33.0802C9.66884 32.794 9.64023 32.482 9.62021 32.1815L9.59731 31.8953C9.56017 31.4436 9.66226 30.9913 9.8898 30.5993C10.1173 30.2074 10.4594 29.8946 10.87 29.7031C14.9483 27.8113 19.3727 27.7226 22.31 27.8113C23.6713 27.8543 25.027 27.9487 26.3855 28.0432C28.7364 28.2063 30.9614 28.3666 33.1722 28.2549C35.7977 28.1262 37.4622 27.5023 38.426 26.2916C39.4356 25.0181 39.7617 22.9403 39.9304 21.2747C40.0191 20.4161 40.082 19.5575 40.1191 18.7132C40.1328 18.3874 40.2187 18.0687 40.3706 17.7801C40.5224 17.4915 40.7364 17.2403 40.9972 17.0447C41.2562 16.8463 41.5563 16.7084 41.8755 16.6411C42.1947 16.5737 42.5248 16.5786 42.8419 16.6555C43.8271 16.8734 44.7792 17.2208 45.6733 17.6886C49.2597 19.6405 51.4276 23.859 51.4619 28.9733C51.449 30.5995 51.3459 32.2238 51.153 33.8386C50.9671 35.6788 50.7927 37.4132 50.9585 38.8441C51.3442 42.1709 50.8665 45.541 49.5714 48.6291C49.4052 49.0345 49.1223 49.3813 48.7587 49.6254C48.3951 49.8695 47.9673 49.9999 47.5294 50ZM31.9596 37.1413C35.9636 37.1413 39.0267 37.6507 41.7379 38.7554C43.5671 39.4848 45.2333 40.5705 46.6399 41.9493C46.6897 41.0902 46.6649 40.2284 46.5656 39.3736C46.3396 37.459 46.5398 35.4899 46.7514 33.4064C46.9248 31.9444 47.0203 30.4741 47.0374 29.0019C47.0374 27.8085 46.7944 24.0193 44.2919 22.056C44.0459 24.2683 43.5254 26.9757 41.8867 29.0391C40.102 31.2915 37.3106 32.4734 33.3867 32.6738C30.9469 32.7444 28.5051 32.6718 26.0738 32.4563C24.7725 32.3647 23.4711 32.2731 22.167 32.2302C18.938 32.13 16.344 32.4191 14.159 33.1403C14.3878 34.5426 14.7482 35.4298 15.323 36.0022C16.201 36.9066 17.8341 37.3931 20.3223 37.4933C22.4387 37.5763 24.5408 37.4561 26.7659 37.3302C28.0443 37.2558 29.3227 37.1842 30.6011 37.1499C31.072 37.1441 31.5249 37.1413 31.9596 37.1413Z" fill="black"/>
<path id="Vector_2" d="M4.38864 43.1456C3.92733 43.1455 3.47761 43.0012 3.10227 42.7329C2.72693 42.4645 2.4447 42.0855 2.2951 41.6488C0.972041 37.7385 0.491527 33.5922 0.885146 29.4827C1.07105 27.5108 0.885157 25.1898 0.682098 22.7657C0.513358 20.7624 0.344579 18.6789 0.356019 16.5496C0.373179 13.5216 0.985248 6.10061 6.25049 2.58901C8.95319 0.78598 12.0763 0.605675 14.5845 0.462578C21.1625 0.084801 27.117 -0.198532 33.1373 0.176383C36.1203 0.359548 39.4693 0.914765 41.7001 3.61072C43.3474 5.61408 43.8737 8.18983 44.1683 10.4622C44.5353 13.2585 44.6578 16.0816 44.5343 18.8992C44.5222 19.1897 44.4529 19.4749 44.3304 19.7386C44.2079 20.0022 44.0346 20.239 43.8205 20.4355C43.6064 20.632 43.3555 20.7843 43.0825 20.8836C42.8094 20.9829 42.5195 21.0273 42.2292 21.0142C41.6435 20.9882 41.0919 20.7307 40.6957 20.2983C40.2994 19.8658 40.0908 19.2937 40.1156 18.7075C40.2271 16.1461 40.1171 13.5799 39.7868 11.0375C39.5837 9.48915 39.2148 7.56879 38.2881 6.42687C37.2013 5.10751 35.3366 4.73546 32.8541 4.58092C27.0741 4.2289 21.2712 4.50364 14.8362 4.86711C12.7598 4.98731 10.4032 5.12182 8.70153 6.25802C6.27339 7.87788 4.80337 11.7301 4.77763 16.561C4.77763 18.4986 4.92916 20.4733 5.08646 22.3851C5.30382 25.0295 5.50972 27.5366 5.28092 29.8891C5.15128 31.262 5.136 32.6434 5.23518 34.0189C6.6486 32.2899 8.41314 30.8812 10.4118 29.8862C10.5262 29.829 10.6463 29.7803 10.7636 29.7288C11.3053 29.4964 11.9158 29.4821 12.4678 29.6889C13.0198 29.8958 13.4706 30.3079 13.7265 30.8393C13.8496 31.0931 13.9212 31.3688 13.9372 31.6505C13.9532 31.9321 13.9132 32.2142 13.8196 32.4803C13.7259 32.7464 13.5806 32.9914 13.3918 33.2009C13.203 33.4105 12.9746 33.5805 12.7198 33.7012C12.694 33.7012 12.4996 33.7985 12.4738 33.81C9.32785 35.3697 7.10852 38.2259 6.56226 41.3054C6.4775 41.788 6.23481 42.2287 5.8724 42.5582C5.50999 42.8877 5.04842 43.0873 4.56026 43.1256L4.38864 43.1456Z" fill="black"/>
</g>
</svg>
