<svg width="51" height="50" viewBox="0 0 51 50" fill="none" xmlns="http://www.w3.org/2000/svg">
<path id="chat-bubble" d="M2.55068 50C1.97563 49.9999 1.42343 49.7744 1.01257 49.3718C0.756911 49.1197 0.566675 48.8089 0.458317 48.4665C0.349959 48.1241 0.326804 47.7604 0.390842 47.407L2.37513 36.4546C2.7827 34.2069 2.863 31.6735 2.94928 28.9942C3.14563 22.8526 3.36578 15.8954 7.78957 10.2093C14.3345 1.79924 25.9369 -2.0411 35.3616 1.07583C38.8834 2.26834 42.0634 4.2984 44.6284 6.99168C47.1934 9.68495 49.0668 12.961 50.0878 16.5384C51.0684 20.131 51.1661 23.9076 50.3725 27.5461C49.5789 31.1846 47.9175 34.5771 45.5301 37.434C43.1134 40.2565 40.0462 42.4475 36.5936 43.8179C33.141 45.1883 29.4068 45.6967 25.7138 45.2993C24.4346 45.1534 23.185 44.9003 21.9742 44.6562C19.5943 44.1769 17.366 43.7244 15.3103 44.1442C13.4658 44.5223 11.7225 45.6089 9.87801 46.761C7.79553 48.0709 5.6149 49.4254 2.99097 49.9583C2.84596 49.9869 2.69847 50.0008 2.55068 50ZM6.70075 37.2375L5.41852 44.3139C6.12359 43.9209 6.82864 43.4803 7.55453 43.0278C9.63702 41.7209 11.8147 40.3664 14.4387 39.8335C17.369 39.2381 20.1536 39.7978 22.846 40.3425C24.0181 40.5777 25.1218 40.801 26.2136 40.938C32.0802 41.6167 38.3515 39.119 42.1803 34.5999C46.0091 30.0808 47.4579 23.451 45.8603 17.7322C44.2628 12.0133 39.6129 7.11617 33.9872 5.25852C26.2523 2.70723 16.7085 5.92537 11.2613 12.9213C7.71517 17.4762 7.52777 23.4064 7.3463 29.143C7.25408 31.9891 7.16783 34.6803 6.70373 37.2494L6.70075 37.2375Z" fill="black"/>
</svg>
