<svg width="50" height="50" viewBox="0 0 50 50" fill="none" xmlns="http://www.w3.org/2000/svg">
<path id="checkbox-on" d="M47.4853 2.15146C45.6731 0.297878 43.0584 0.277809 41.4969 0.264425L8.83731 0.000102956C7.39959 0.000102956 5.60745 -0.0266648 3.90225 0.783023C1.5785 1.89049 0.294579 4.37644 0.893071 6.58803C0.374824 17.4854 0.224361 28.5198 0.471783 39.4138C0.518592 41.4514 0.595513 44.8608 2.83234 47.2531C5.06916 49.6453 8.42609 50 11.462 50H12.0906L37.0935 49.7122C40.0592 49.6788 43.4162 49.4312 45.643 46.9486C47.5621 44.8073 47.6892 41.9299 47.7694 40.0094L49.1503 8.19736C49.2139 6.74193 49.3309 4.04185 47.4853 2.15146ZM41.0689 14.792C35.5534 22.8339 29.1738 30.2468 22.0443 36.8978C21.426 37.5419 20.615 37.967 19.7339 38.109C19.601 38.1276 19.4668 38.1366 19.3326 38.1357C18.0253 38.1357 17.0591 37.3595 16.6244 37.0082L6.79438 29.0418C6.32174 28.6568 6.0211 28.0999 5.95841 27.4933C5.89572 26.8867 6.07611 26.28 6.46002 25.8064C6.64996 25.5719 6.88425 25.3773 7.14946 25.2335C7.41467 25.0898 7.70566 24.9998 8.00567 24.9687C8.30568 24.9376 8.60887 24.9661 8.89788 25.0524C9.18689 25.1387 9.45603 25.2812 9.68993 25.4718L10.6027 26.2112L19.2557 33.2374C25.0334 27.7821 30.2941 21.8032 34.9703 15.3775C35.7427 14.3235 36.5352 13.2863 37.2707 12.209C37.6159 11.7071 38.1458 11.3626 38.7443 11.2509C39.3428 11.1393 39.9612 11.2696 40.4638 11.6134C40.963 11.9564 41.3066 12.4828 41.42 13.0781C41.5333 13.6733 41.4071 14.2893 41.0689 14.792Z" fill="black"/>
</svg>
