<svg width="50" height="50" viewBox="0 0 50 50" fill="none" xmlns="http://www.w3.org/2000/svg">
<path id="checkbox-off" d="M11.4601 50C8.41707 50 5.09951 49.6918 2.81303 47.253C0.576769 44.8712 0.499771 41.4609 0.469642 39.4207C0.228608 28.5232 0.369214 17.4917 0.891456 6.5909C0.295565 4.37991 1.58443 1.90092 3.90439 0.788721C5.60167 -0.0219753 7.39603 -0.00522483 8.83554 0.00147514L41.4957 0.266124C43.0557 0.266124 45.6703 0.299623 47.4847 2.15552C49.2992 4.01141 49.2088 6.74164 49.1586 8.18549L47.776 40.0103C47.6956 41.9232 47.5651 44.8109 45.6535 46.9482C43.4206 49.4372 40.0696 49.6818 37.1001 49.7153L12.0995 50H11.4601ZM5.54473 5.1638C4.96223 16.4868 4.79484 27.9772 5.04592 39.3169C5.09279 41.2599 5.20999 43.089 6.16408 44.1074C7.32908 45.3502 9.80972 45.4306 12.0159 45.4005L37.0165 45.1124C39.0251 45.0923 41.2178 44.975 42.202 43.8762C42.9586 43.032 43.0825 41.5312 43.1562 39.806L44.5388 7.99789C44.5689 7.24414 44.6325 5.83715 44.1772 5.3715C43.7219 4.90585 42.1686 4.8757 41.4421 4.869L8.78197 4.601C7.69731 4.601 6.60597 4.601 5.86613 4.936C5.74974 4.99461 5.64348 5.07152 5.55143 5.1638H5.54473Z" fill="black"/>
</svg>
