<svg width="58" height="50" viewBox="0 0 58 50" fill="none" xmlns="http://www.w3.org/2000/svg">
<path id="checkmark" d="M19.8659 50H19.5989C16.9318 49.8555 15.3042 47.6634 14.5174 46.6088L0.857464 28.223C0.455255 27.6812 0.284426 27.0019 0.382552 26.3341C0.480677 25.6664 0.839711 25.065 1.38075 24.6621C1.9227 24.2594 2.60216 24.0884 3.27 24.1866C3.93785 24.2847 4.53945 24.6441 4.94277 25.1858L18.6028 43.5716C19.4112 44.6551 19.7541 44.8826 19.8876 44.9187C19.9706 44.8934 20.3423 44.7237 21.2843 43.6005C32.6725 29.9858 43.3722 15.8087 53.3429 1.12268C53.5287 0.844584 53.7679 0.606166 54.0465 0.421252C54.3251 0.236338 54.6376 0.108603 54.966 0.0454492C55.2943 -0.0177049 55.6319 -0.0150154 55.9591 0.0533515C56.2864 0.121718 56.5968 0.254403 56.8725 0.443725C57.1509 0.629714 57.3896 0.869214 57.5747 1.14831C57.7598 1.42741 57.8876 1.74055 57.9508 2.06951C58.0139 2.39848 58.011 2.73672 57.9424 3.06458C57.8738 3.39244 57.7407 3.70338 57.5509 3.97933C47.4852 18.8079 36.6833 33.1224 25.1856 46.8689C24.3772 47.8331 22.5474 50 19.8659 50Z" fill="black"/>
</svg>
