<svg width="49" height="50" viewBox="0 0 49 50" fill="none" xmlns="http://www.w3.org/2000/svg">
<g id="chevrons-left">
<path id="Vector" d="M46.4325 47.6058C45.8228 47.6057 45.2337 47.3852 44.7736 46.985C38.3502 41.4113 32.0742 35.5153 26.1205 29.4546C25.4932 28.8166 24.3245 27.6298 24.2148 25.8531C24.0948 23.8535 25.3939 22.4232 26.0177 21.7132L42.6621 3.20863C42.8846 2.96103 43.1538 2.75973 43.4541 2.61623C43.7544 2.47274 44.08 2.38986 44.4123 2.37235C44.7446 2.35483 45.0771 2.40301 45.3908 2.51413C45.7045 2.62526 45.9933 2.79715 46.2406 3.01999C46.7395 3.47019 47.0395 4.10007 47.0749 4.7714C47.1102 5.44274 46.8779 6.10068 46.429 6.60085L29.7847 25.1225C29.6133 25.3146 29.4796 25.4655 29.3904 25.589C29.5101 25.6906 29.6245 25.7982 29.7332 25.9114C35.5944 31.8761 41.771 37.683 48.0949 43.1675C48.6021 43.6085 48.9137 44.233 48.9612 44.9037C49.0088 45.5744 48.7884 46.2366 48.3485 46.7449C48.1097 47.0177 47.815 47.2358 47.4843 47.3844C47.1537 47.5329 46.7949 47.6085 46.4325 47.6058Z" fill="black"/>
<path id="Vector_2" d="M23.9463 49.9999C23.61 50.0001 23.277 49.9331 22.9668 49.803C22.6566 49.6728 22.3756 49.4821 22.1399 49.2419L2.39349 29.1493C1.70797 28.4324 0.227272 26.9439 0.364376 24.8104C0.463777 23.2841 1.33786 22.2037 1.86228 21.5554L18.6369 0.934591C19.0614 0.413465 19.6752 0.0821417 20.3435 0.0133358C21.0118 -0.05547 21.68 0.143863 22.2016 0.567588C22.7234 0.99242 23.0552 1.60726 23.124 2.27687C23.1927 2.94647 22.9929 3.616 22.5684 4.13816L5.79716 24.7556C5.73546 24.8276 5.62921 24.9613 5.54009 25.0985C5.63606 25.2152 5.77998 25.3798 6.0062 25.6096L25.7527 45.7022C25.9864 45.9391 26.1712 46.2199 26.2963 46.5284C26.4215 46.8369 26.4847 47.1671 26.4821 47.5001C26.4796 47.833 26.4114 48.1622 26.2815 48.4687C26.1516 48.7753 25.9626 49.0532 25.7252 49.2865C25.2487 49.7486 24.6098 50.0048 23.9463 49.9999Z" fill="black"/>
</g>
</svg>
