<svg width="51" height="32" viewBox="0 0 51 32" fill="none" xmlns="http://www.w3.org/2000/svg">
<path id="chevron-down" d="M26.3702 31.1638C26.0836 31.1654 25.7994 31.1105 25.534 31.002C25.2686 30.8936 25.0272 30.7339 24.8237 30.532L0.64436 6.57059C0.44019 6.36809 0.278178 6.12716 0.167588 5.86172C0.056998 5.59627 0 5.31155 0 5.02399C0 4.73643 0.056998 4.4517 0.167588 4.18625C0.278178 3.9208 0.44019 3.67988 0.64436 3.47737C1.05249 3.07166 1.60463 2.84395 2.18011 2.84395C2.75559 2.84395 3.30766 3.07166 3.71579 3.47737L26.2831 25.9358C33.3967 17.9343 40.0581 9.54198 46.2364 0.798057C46.5854 0.372047 47.0827 0.0939945 47.6283 0.0198458C48.174 -0.0543029 48.7275 0.0809478 49.1774 0.398398C49.6274 0.715849 49.9404 1.19194 50.0535 1.73086C50.1667 2.26978 50.0714 2.83155 49.7871 3.30312C43.0878 12.8218 35.8132 21.9223 28.004 30.5538C27.8053 30.7741 27.5637 30.9515 27.294 31.0751C27.0243 31.1987 26.7322 31.266 26.4356 31.2727L26.3702 31.1638Z" fill="black"/>
</svg>
