<svg width="48" height="50" viewBox="0 0 48 50" fill="none" xmlns="http://www.w3.org/2000/svg">
<path d="M21.5204 23.0563C20.8062 23.0563 20.0933 22.9963 19.3892 22.8769C16.5705 22.4017 12.882 19.4694 11.8149 15.5836C10.7747 11.7725 11.8986 7.39652 14.7501 4.16234C16.717 1.93548 19.2338 0.497734 21.8791 0.106165C26.3986 -0.566376 31.0854 2.0132 33.0612 6.23377C34.9503 10.263 34.212 15.2937 31.214 18.749C28.8526 21.478 25.2059 23.0563 21.5204 23.0563ZM20.1305 18.48C22.985 18.9612 26.0249 17.927 27.8423 15.8317C29.6596 13.7363 30.1588 10.556 29.023 8.13482C27.8871 5.71367 25.1073 4.15337 22.5337 4.52402C20.9435 4.76015 19.3653 5.68079 18.0979 7.11853C16.2566 9.21089 15.4825 12.0655 16.1221 14.4059C16.7618 16.7463 19.1112 18.2917 20.1305 18.477V18.48Z" fill="black"/>
<path d="M27.412 50C18.5706 49.9749 9.79978 48.4258 1.48475 45.4207C1.20141 45.3199 0.941336 45.163 0.720139 44.9593C0.498943 44.7555 0.321182 44.5092 0.19752 44.2351C0.0738573 43.961 0.00684277 43.6647 0.000497178 43.364C-0.00584841 43.0634 0.0486055 42.7645 0.160592 42.4854C3.74748 33.5182 12.64 26.996 22.2797 26.2458C31.9195 25.4955 41.6938 30.571 46.6287 38.8746C47.4149 40.1958 48.3833 42.2074 47.7138 44.3715C46.6945 47.6595 42.8894 48.3918 41.64 48.631C36.9517 49.5388 32.1874 49.9972 27.412 50ZM5.31376 42.0072C17.0309 45.7734 28.9514 46.5267 40.7881 44.252C43.0419 43.8186 43.3916 43.2237 43.4424 43.0563C43.4932 42.8889 43.4962 42.3599 42.7848 41.1613C38.6957 34.2864 30.5744 30.1017 22.6145 30.6995C15.4288 31.2585 8.74223 35.7002 5.31376 42.0072Z" fill="black"/>
</svg>
