<svg width="47" height="50" viewBox="0 0 47 50" fill="none" xmlns="http://www.w3.org/2000/svg">
<g id="copy">
<path id="Vector" d="M24.7515 41.2206C24.5899 42.8284 24.2874 44.3361 23.4063 45.0151C22.5986 45.6411 21.1535 45.6705 19.6262 45.6411C15.7638 45.5735 11.7664 45.503 8.05968 44.6036C6.67041 44.2685 5.83625 43.8365 5.58659 43.3221C5.42677 42.8487 5.34543 42.3523 5.34576 41.8526C4.73403 32.893 4.586 23.9077 4.90225 14.9329V14.5772C4.92868 13.5838 4.96685 12.0819 5.66002 11.2736C6.35319 10.4654 7.91281 10.2596 9.1846 10.1656C10.2772 10.0872 11.3718 10.047 12.4683 10.0451C14.6208 10.0566 16.7696 10.2246 18.8978 10.5477C18.8978 10.0862 18.8978 9.62769 18.9271 9.16625C18.9139 8.15914 19.0124 7.15367 19.2208 6.16832C15.788 5.68476 12.3137 5.56458 8.85564 5.80974C6.73208 5.96551 4.0681 6.39757 2.33225 8.42558C0.596392 10.4536 0.569945 13.0489 0.520013 14.4655V14.783C0.198865 23.9087 0.347884 33.0449 0.966465 42.1553C0.987285 43.219 1.21892 44.268 1.6479 45.2414C2.79633 47.5927 5.25472 48.4157 7.0082 48.8419C11.1848 49.8529 15.4261 49.9294 19.5293 49.9999C19.7848 49.9999 20.0609 49.9999 20.3487 49.9999C22.0552 49.9999 24.2639 49.8353 26.0497 48.4598C28.1527 46.8374 28.7871 44.3597 29.0603 41.8261C27.6134 41.709 26.1746 41.5068 24.7515 41.2206Z" fill="black"/>
<path id="Vector_2" d="M36.5977 44.3274C36.304 44.3274 36.0367 44.3274 35.7812 44.3274C31.6692 44.2539 27.4338 44.1804 23.2572 43.1664C21.4949 42.7432 19.0453 41.9055 17.8969 39.5689C17.4659 38.5952 17.2351 37.5446 17.2184 36.4798C16.5988 27.3705 16.4488 18.2352 16.769 9.11043V8.79006C16.8043 7.37339 16.8718 4.73697 18.5812 2.75011C20.2907 0.763241 22.987 0.292977 25.1076 0.137202C29.1306 -0.164986 33.1754 0.0324592 37.1499 0.725032C39.6524 1.16297 42.7452 2.0065 44.4928 4.65174C45.8116 6.64155 45.8732 8.97524 45.9232 10.6799C46.1699 19.8736 45.9907 27.9475 45.368 35.3688C45.2094 37.2528 44.9157 40.7563 42.2811 42.7872C40.5129 44.1598 38.3042 44.3274 36.5977 44.3274ZM28.7173 4.35488C27.6218 4.35488 26.5292 4.39309 25.4336 4.47539C24.1501 4.56944 22.5875 4.7693 21.909 5.58345C21.2306 6.39759 21.1777 7.89069 21.1542 8.88706V9.24269C20.8394 18.2186 20.9874 27.2047 21.5977 36.1653C21.5984 36.659 21.6788 37.1493 21.8356 37.6173C22.0911 38.1346 22.9223 38.5666 24.3116 38.9046C28.0183 39.804 32.0158 39.8716 35.881 39.9392C37.4054 39.9657 38.8476 39.9392 39.6611 39.3132C40.6363 38.5637 40.9094 36.7943 41.0622 34.9926C41.6672 27.7388 41.8434 19.8236 41.6026 10.7946C41.5615 9.27209 41.4793 7.93477 40.8977 7.05891C40.0636 5.80095 38.0721 5.31011 36.4332 5.02208C33.8853 4.57835 31.3035 4.35805 28.7173 4.3637V4.35488Z" fill="black"/>
<path id="Vector_3" d="M31.1367 17.5635C31.2346 21.0905 31.4432 24.6223 31.7623 28.1591L31.1367 17.5635Z" fill="black"/>
<path id="Vector_4" d="M31.7589 30.343C31.2147 30.3423 30.6904 30.1381 30.2888 29.7705C29.8873 29.4029 29.6374 28.8985 29.5884 28.3561C29.2653 24.7997 29.0538 21.1904 28.9539 17.6253C28.9381 17.0465 29.1526 16.4852 29.5503 16.0647C29.948 15.6441 30.4962 15.3988 31.0746 15.3827C32.1789 15.3004 33.2833 16.2968 33.3185 17.5048C33.4155 20.9788 33.6122 24.4941 33.9353 27.9623C33.9612 28.2479 33.9306 28.5358 33.8452 28.8096C33.7599 29.0834 33.6214 29.3376 33.4379 29.5579C33.2543 29.7781 33.0292 29.9601 32.7754 30.0932C32.5216 30.2264 32.2441 30.3083 31.9586 30.3342C31.8911 30.34 31.8264 30.343 31.7589 30.343Z" fill="black"/>
<path id="Vector_5" d="M25.8398 22.5952L37.4092 23.1272L25.8398 22.5952Z" fill="black"/>
<path id="Vector_6" d="M37.414 25.3257H37.3112L25.7447 24.7908C25.1665 24.7641 24.6225 24.5089 24.2321 24.0813C23.8417 23.6537 23.6368 23.0886 23.6623 22.51C23.6993 21.9346 23.9578 21.3961 24.3834 21.0075C24.809 20.6189 25.3685 20.4105 25.9445 20.4261L37.5139 20.961C37.8003 20.9742 38.0813 21.0438 38.3409 21.1657C38.6004 21.2877 38.8334 21.4596 39.0266 21.6717C39.2197 21.8838 39.3691 22.1319 39.4664 22.4018C39.5636 22.6717 39.6068 22.9582 39.5934 23.2448C39.5669 23.8054 39.3258 24.3344 38.92 24.7218C38.5142 25.1093 37.9749 25.3256 37.414 25.3257Z" fill="black"/>
</g>
</svg>
