<svg width="73" height="73" viewBox="0 0 73 73" fill="none" xmlns="http://www.w3.org/2000/svg">
<g id="cross">
<path id="Vector" d="M51.3838 19.3344C40.415 29.7512 30.0965 40.832 20.4866 52.5141L51.3838 19.3344Z" fill="black"/>
<path id="Vector_2" d="M18.8206 54.1713C18.4083 53.7585 18.1646 53.207 18.1368 52.6241C18.1091 52.0412 18.2993 51.4687 18.6704 51.0181C28.3392 39.2652 38.7199 28.1163 49.754 17.6345C50.2102 17.2136 50.8126 16.9871 51.433 17.0033C52.0534 17.0194 52.6428 17.2769 53.0759 17.7211C53.2883 17.9448 53.4545 18.2083 53.565 18.4963C53.6755 18.7844 53.7281 19.0915 53.7199 19.4C53.7116 19.7085 53.6427 20.0124 53.5169 20.2943C53.3912 20.5763 53.2112 20.8307 52.9871 21.0431C42.0903 31.3943 31.8384 42.404 22.2894 54.0102C22.0934 54.2485 21.8524 54.446 21.5801 54.5913C21.3078 54.7365 21.0096 54.8267 20.7025 54.8567C20.3954 54.8867 20.0855 54.8559 19.7904 54.7662C19.4953 54.6764 19.2208 54.5293 18.9827 54.3334C18.9255 54.2826 18.8713 54.2285 18.8206 54.1713Z" fill="black"/>
<path id="Vector_3" d="M19.25 19.4331L52.1005 54.3353L19.25 19.4331Z" fill="black"/>
<path id="Vector_4" d="M50.4251 56.0088L50.3725 55.9562L17.522 21.054C17.0955 20.6 16.8667 19.9952 16.8858 19.3723C16.9049 18.7495 17.1704 18.1596 17.6239 17.732C18.085 17.3193 18.687 17.0994 19.3053 17.118C19.9236 17.1365 20.511 17.3921 20.9459 17.8317L53.7942 52.7361C54.006 52.9604 54.1715 53.2243 54.2813 53.5127C54.391 53.8011 54.4429 54.1083 54.4338 54.4168C54.4247 54.7253 54.355 55.0291 54.2285 55.3107C54.102 55.5923 53.9213 55.8463 53.6966 56.0581C53.2509 56.4754 52.6607 56.7035 52.0504 56.6943C51.4401 56.6851 50.8574 56.4393 50.4251 56.0088Z" fill="black"/>
</g>
</svg>
