<svg width="48" height="50" viewBox="0 0 48 50" fill="none" xmlns="http://www.w3.org/2000/svg">
<g id="download">
<path id="Vector" d="M22.4091 39.307C21.8082 39.307 21.2318 39.0684 20.8066 38.6435C20.3814 38.2186 20.1421 37.6421 20.1413 37.0408L20.1133 2.27244C20.1133 1.67083 20.3517 1.09377 20.7762 0.667778C21.2008 0.241791 21.7768 0.00164825 22.378 0C22.9794 0 23.5562 0.23909 23.9815 0.664672C24.4068 1.09025 24.6458 1.66747 24.6458 2.26933L24.6738 37.0346C24.6738 37.6362 24.4354 38.2133 24.0108 38.6393C23.5863 39.0652 23.0103 39.3054 22.4091 39.307Z" fill="black"/>
<path id="Vector_2" d="M21.1263 40.381C19.0234 40.381 17.328 39.0486 16.373 38.2953L2.99653 27.7892C2.76215 27.6051 2.56625 27.3766 2.42017 27.1167C2.27408 26.8568 2.18062 26.5707 2.14508 26.2747C2.10955 25.9786 2.1327 25.6785 2.21313 25.3914C2.29357 25.1043 2.42968 24.8359 2.61383 24.6015C2.98531 24.1287 3.52917 23.8229 4.12587 23.7511C4.72257 23.6793 5.32338 23.8474 5.79626 24.2186L19.1728 34.7279C19.6269 35.0828 20.6784 35.8984 21.1886 35.8392C21.5774 35.7832 22.2462 35.117 22.6413 34.7217L36.8826 20.4675C37.093 20.2564 37.3429 20.0889 37.6181 19.9746C37.8932 19.8603 38.1883 19.8015 38.4862 19.8015C38.7842 19.8015 39.0791 19.8603 39.3543 19.9746C39.6295 20.0889 39.8795 20.2564 40.0898 20.4675C40.3008 20.6781 40.4682 20.9282 40.5824 21.2035C40.6966 21.4789 40.7554 21.7741 40.7554 22.0723C40.7554 22.3704 40.6966 22.6656 40.5824 22.941C40.4682 23.2163 40.3008 23.4664 40.0898 23.677L25.8485 37.9311C24.9993 38.7778 23.7207 40.0572 21.8449 40.3312C21.6068 40.3644 21.3667 40.3811 21.1263 40.381Z" fill="black"/>
<path id="Vector_3" d="M2.62324 50C2.02447 50 1.45 49.763 1.02515 49.3408C0.600305 48.9186 0.359629 48.3454 0.355522 47.7462C0.353473 47.4482 0.410074 47.1527 0.522151 46.8766C0.634228 46.6005 0.799531 46.3491 1.00867 46.137C1.21781 45.9248 1.46667 45.7559 1.74103 45.64C2.0154 45.5241 2.30994 45.4634 2.60775 45.4613L45.0858 45.1749H45.1014C45.7002 45.1749 46.2746 45.4119 46.6995 45.8341C47.1243 46.2563 47.3651 46.8295 47.3692 47.4287C47.3725 48.0303 47.1372 48.6087 46.715 49.037C46.2928 49.4653 45.7182 49.7086 45.117 49.7136L2.63881 50H2.62324Z" fill="black"/>
</g>
</svg>
