<svg width="65" height="55" viewBox="0 0 65 55" fill="none" xmlns="http://www.w3.org/2000/svg">
<g id="group-add">
<circle id="Ellipse 273" cx="25" cy="30" r="24.5" fill="black" stroke="black"/>
<circle id="Ellipse 276" cx="50" cy="15" r="14.5" fill="white" stroke="black"/>
<g id="Group 543">
<path id="Vector" d="M56.5742 14.2265C52.5249 14.122 48.4731 14.2663 44.4415 14.6587L56.5742 14.2265Z" fill="black"/>
<path id="Vector_2" d="M43.8153 14.657C43.8154 14.5008 43.8737 14.3502 43.9788 14.2346C44.0839 14.119 44.2283 14.0466 44.3839 14.0315C48.44 13.6369 52.5165 13.4915 56.5905 13.596C56.7566 13.6027 56.9135 13.6739 57.0279 13.7944C57.1423 13.915 57.2052 14.0753 57.2031 14.2414C57.2009 14.324 57.1825 14.4054 57.1489 14.4808C57.1153 14.5563 57.0671 14.6244 57.0071 14.6813C56.9471 14.7381 56.8765 14.7826 56.7993 14.8122C56.7222 14.8417 56.6399 14.8558 56.5573 14.8536C52.534 14.7503 48.5082 14.8938 44.5026 15.2833C44.4204 15.2913 44.3373 15.2831 44.2583 15.259C44.1792 15.235 44.1057 15.1956 44.0418 15.1431C43.978 15.0907 43.9252 15.0262 43.8863 14.9533C43.8474 14.8804 43.8233 14.8006 43.8153 14.7184C43.8141 14.698 43.8141 14.6775 43.8153 14.657Z" fill="black"/>
<path id="Vector_3" d="M50.4766 8.16089L50.0881 20.9896L50.4766 8.16089Z" fill="black"/>
<path id="Vector_4" d="M49.4507 20.9893L49.4507 20.9694L49.8392 8.14073C49.8444 7.97401 49.9156 7.81617 50.0372 7.70186C50.1587 7.58755 50.3207 7.52612 50.4875 7.53104C50.653 7.54019 50.8086 7.61254 50.9221 7.73313C51.0357 7.85372 51.0985 8.01331 51.0976 8.1789L50.7083 21.0076C50.706 21.0902 50.6873 21.1715 50.6535 21.2469C50.6197 21.3222 50.5713 21.3902 50.5112 21.4469C50.4511 21.5036 50.3803 21.5479 50.3031 21.5773C50.2258 21.6067 50.1435 21.6205 50.0609 21.6181C49.8974 21.6127 49.7425 21.5442 49.6287 21.4269C49.5149 21.3096 49.4511 21.1527 49.4507 20.9893Z" fill="black"/>
</g>
<g id="Group 544">
<path id="Vector_5" d="M32.0345 37.4622C31.8211 37.4627 31.6128 37.3966 31.4386 37.2732C31.2644 37.1498 31.133 36.9752 31.0626 36.7736C31.0175 36.646 30.9981 36.5107 31.0054 36.3755C31.0127 36.2404 31.0466 36.108 31.1052 35.986C31.1638 35.864 31.2458 35.7548 31.3467 35.6646C31.4476 35.5745 31.5653 35.5051 31.693 35.4606C32.7817 35.0752 34.1323 34.294 34.3197 33.9356C34.3801 33.7146 34.3351 33.3485 34.2915 32.9939C34.1631 31.9764 34.0347 30.9268 33.7125 29.9966C33.4801 29.335 33.0359 28.4344 32.2335 27.8961C32.121 27.821 32.0244 27.7245 31.9493 27.612C31.8742 27.4994 31.822 27.3732 31.7957 27.2405C31.7695 27.1077 31.7697 26.9711 31.7964 26.8385C31.823 26.7058 31.8756 26.5797 31.951 26.4675C32.0259 26.3548 32.1223 26.258 32.2347 26.1828C32.3471 26.1075 32.4733 26.0551 32.6059 26.0287C32.7385 26.0024 32.8751 26.0025 33.0077 26.029C33.1403 26.0556 33.2664 26.1081 33.3787 26.1835C34.3878 26.8606 35.176 27.9423 35.6549 29.3157C36.0542 30.4565 36.1967 31.6179 36.3341 32.7408C36.397 33.247 36.474 33.8778 36.2879 34.5394C35.8295 36.1518 32.7277 37.2836 32.3747 37.4069C32.2652 37.4444 32.1502 37.4631 32.0345 37.4622Z" fill="white"/>
<path id="Vector_6" d="M31.032 28.3034C30.5906 28.3079 30.1535 28.217 29.7505 28.0369C29.3475 27.8569 28.988 27.5919 28.6967 27.2602L28.6684 27.2255C28.5355 27.1278 28.4281 26.9996 28.3552 26.8516C27.6118 25.3433 28.0843 23.519 29.4323 22.6994C30.7804 21.8797 32.6342 22.2934 33.515 23.582C34.3957 24.8706 34.0889 26.7617 32.8474 27.7085C32.3237 28.1003 31.6859 28.3093 31.032 28.3034ZM30.1436 25.8046C30.1873 25.8412 30.2276 25.8816 30.2642 25.9253C30.4355 26.1007 30.6623 26.211 30.9059 26.2375C31.1494 26.264 31.3946 26.205 31.5995 26.0705C31.7837 25.9086 31.9058 25.6877 31.9449 25.4455C31.9841 25.2033 31.9377 24.9551 31.8139 24.7434C31.662 24.5507 31.4477 24.4171 31.208 24.3655C30.9683 24.314 30.7181 24.3476 30.5005 24.4607C30.1474 24.6753 29.9394 25.247 30.1436 25.8046Z" fill="white"/>
<path id="Vector_7" d="M17.4411 37.6511C17.309 37.6517 17.1782 37.6264 17.0559 37.5766C14.103 36.3934 13.8039 36.0208 13.6588 35.8409C13.1145 35.169 13.0233 34.3468 13.0028 33.707C12.9709 32.309 13.2153 30.9184 13.722 29.6152C14.2288 28.312 14.9879 27.1218 15.9556 26.113C15.6488 24.7884 16.1636 23.3893 17.2972 22.6994C18.6325 21.8901 20.4992 22.2935 21.3799 23.5821C22.2606 24.8706 21.9538 26.7618 20.7123 27.7086C19.6993 28.4794 18.2409 28.4859 17.192 27.8101C15.7751 29.4183 15.0164 31.502 15.0672 33.6453C15.0672 33.7995 15.0839 34.2427 15.2238 34.4855C15.5525 34.6924 16.6938 35.2101 17.8262 35.6649C17.9521 35.7149 18.0668 35.7892 18.1638 35.8837C18.2609 35.9782 18.3383 36.0909 18.3917 36.2155C18.445 36.34 18.4732 36.4739 18.4746 36.6093C18.4761 36.7448 18.4507 36.8793 18.4001 37.0049C18.3235 37.1965 18.1911 37.3606 18.0201 37.4759C17.849 37.5911 17.6473 37.6522 17.4411 37.6511ZM18.0059 25.8046C18.0496 25.8413 18.09 25.8817 18.1266 25.9254C18.2978 26.1008 18.5247 26.2111 18.7682 26.2376C19.0118 26.2641 19.257 26.205 19.4618 26.0706C19.646 25.9087 19.7682 25.6877 19.8073 25.4456C19.8464 25.2034 19.8001 24.9551 19.6762 24.7434C19.5243 24.5508 19.3101 24.4172 19.0704 24.3656C18.8307 24.314 18.5804 24.3477 18.3628 24.4608C18.0098 24.6754 17.8018 25.2471 18.0059 25.8046Z" fill="white"/>
<path id="Vector_8" d="M24.5622 41.9999C22.9432 42.0038 21.3384 41.6986 19.8337 41.1006C19.2368 40.8617 18.4819 40.502 17.9426 39.8352C17.2429 38.9693 17.1248 37.8785 17.0979 37.0268C17.0509 35.0271 17.4079 33.0386 18.1477 31.1805C18.8874 29.3223 19.9945 27.6328 21.4026 26.2132C20.8801 24.421 21.531 22.4746 23.0716 21.5419C24.7971 20.4936 27.2133 21.0152 28.3508 22.6841C29.1686 23.8827 29.1943 25.4835 28.5473 26.7438C29.7952 27.6714 30.7773 29.0846 31.3974 30.8549C31.9572 32.4596 32.16 34.1091 32.3539 35.7061C32.4399 36.396 32.5465 37.2567 32.3013 38.1149C31.9007 39.5281 30.6772 40.6253 28.7617 41.2972C27.4114 41.7665 25.9916 42.0041 24.5622 41.9999ZM22.6146 27.9193C20.3201 30.3629 19.0782 33.6117 19.1572 36.9638C19.1726 37.4931 19.2303 38.1509 19.5423 38.5389C19.7811 38.8331 20.2086 39.0309 20.5976 39.1877C22.9909 40.1345 25.6439 40.1924 28.0761 39.3508C28.7937 39.0939 30.0391 38.5286 30.3177 37.5522C30.4461 37.0949 30.3755 36.5167 30.3074 35.9579C30.1251 34.4689 29.9377 32.931 29.4498 31.5384C29.0929 30.5106 28.4009 29.1218 27.1389 28.2765C27.1338 28.2723 27.1282 28.2689 27.1222 28.2662C26.4206 28.6604 25.6181 28.8379 24.8159 28.7762C24.0136 28.7144 23.2477 28.4163 22.6146 27.9193ZM23.4812 25.919C23.5575 25.9704 23.6262 26.0322 23.6853 26.1027C24.2849 26.808 25.502 26.9391 26.2376 26.3789C26.9733 25.8188 27.1594 24.5944 26.6472 23.8429C26.1349 23.0913 24.9165 22.8292 24.1398 23.3007C23.3412 23.7863 23.0601 24.94 23.4812 25.919Z" fill="white"/>
</g>
</g>
</svg>
