<svg width="53" height="50" viewBox="0 0 53 50" fill="none" xmlns="http://www.w3.org/2000/svg">
<g id="home">
<path id="Vector" d="M24.4707 50C20.2882 50 16.1145 49.9822 11.9498 49.9467C10.9998 49.9467 9.02006 49.92 7.72387 48.4009C6.71475 47.2163 6.69699 45.7534 6.69108 44.9687L6.47209 22.196C5.606 22.806 4.73007 23.4052 3.84425 23.9935C3.35434 24.3193 2.75625 24.4397 2.17855 24.329C1.60085 24.2182 1.08966 23.8851 0.754739 23.4013C0.419704 22.9164 0.28806 22.3194 0.38822 21.7385C0.48838 21.1576 0.812293 20.6393 1.29032 20.2948L7.36285 15.918C7.45713 15.8526 7.55604 15.7942 7.65878 15.7432C12.7301 11.8385 17.4451 7.49095 21.7481 2.75185C22.6359 1.78053 24.5003 -0.245025 27.0749 0.0244573C28.0666 0.169786 29.0103 0.546103 29.83 1.12311C38.4016 6.53784 45.8179 13.596 51.652 21.891C51.8216 22.133 51.9417 22.406 52.0056 22.6945C52.0696 22.9831 52.076 23.2814 52.0246 23.5724C51.9732 23.8634 51.865 24.1414 51.7061 24.3905C51.5472 24.6396 51.3408 24.8549 51.0986 25.0241C50.61 25.3659 50.0057 25.4996 49.4186 25.3957C48.8315 25.2919 48.3096 24.959 47.9676 24.4703C47.2969 23.5108 46.6005 22.5662 45.8784 21.6363L46.8372 47.5302C46.8477 47.8297 46.7984 48.1283 46.6922 48.4084C46.586 48.6886 46.425 48.9448 46.2187 49.1619C46.0124 49.3794 45.7648 49.5535 45.4904 49.6741C45.216 49.7946 44.9203 49.8591 44.6207 49.8638C37.9474 49.9526 31.209 50 24.4707 50ZM11.204 45.404C11.4643 45.4349 11.7262 45.4498 11.9883 45.4484C22.05 45.5343 32.2152 45.5165 42.2592 45.3922L41.176 16.1874C37.0722 11.8817 32.4557 8.09646 27.43 4.91658C27.1767 4.73985 26.9023 4.59559 26.6132 4.48719C26.5688 4.48719 26.1664 4.54938 25.0655 5.76649C20.7372 10.5305 16.0097 14.9154 10.9348 18.8734L11.1893 44.9154C11.1923 45.0279 11.1922 45.2352 11.207 45.404H11.204Z" fill="black"/>
<path id="Vector_2" d="M24.7361 49.3959C24.2017 49.3956 23.6848 49.2057 23.2772 48.8599C23.0513 48.6661 22.8659 48.4294 22.7318 48.1636C22.5978 47.8978 22.5176 47.6081 22.496 47.3111L21.182 29.3802C21.1508 28.9607 21.2381 28.5409 21.4337 28.1687C21.6294 27.7964 21.9257 27.4866 22.2887 27.2747C24.2706 26.1171 26.579 25.6466 28.8555 25.9362C29.3314 25.9971 29.7753 26.2087 30.1225 26.5401C30.4696 26.8715 30.7018 27.3053 30.785 27.7781C31.8869 33.9938 32.3962 40.3002 32.3061 46.6122C32.2984 47.1567 32.0935 47.68 31.7294 48.0847C31.3652 48.4893 30.8667 48.748 30.3263 48.8125C28.6247 49.0168 26.9911 49.2123 24.9285 49.39C24.8634 49.3959 24.8012 49.3959 24.7361 49.3959ZM25.7808 30.624L26.8106 44.6903L27.8198 44.5778C27.787 39.8374 27.4021 35.1059 26.6685 30.4226C26.368 30.4675 26.0713 30.5348 25.7808 30.624Z" fill="black"/>
</g>
</svg>
