<svg width="18" height="50" viewBox="0 0 18 50" fill="none" xmlns="http://www.w3.org/2000/svg">
<g id="info">
<path id="Vector" d="M7.82771 8.65542C10.2178 8.65542 12.1554 6.71784 12.1554 4.32771C12.1554 1.93758 10.2178 0 7.82771 0C5.43758 0 3.5 1.93758 3.5 4.32771C3.5 6.71784 5.43758 8.65542 7.82771 8.65542Z" fill="black"/>
<path id="Vector_2" d="M14.5738 43.8212C13.5939 44.0118 12.614 44.1751 11.6342 44.284V20.3319C11.6688 19.5404 11.4284 18.7614 10.9537 18.1272C10.611 17.744 10.1916 17.4369 9.72277 17.226C9.25393 17.015 8.74602 16.9047 8.23189 16.9023H3.55035C3.19291 16.9023 2.83897 16.9728 2.50875 17.1095C2.17852 17.2463 1.87847 17.4468 1.62572 17.6995C1.37298 17.9523 1.17249 18.2523 1.03571 18.5826C0.898921 18.9128 0.828519 19.2667 0.828519 19.6242C0.828519 20.346 1.11528 21.0384 1.62572 21.5488C2.13616 22.0592 2.82847 22.346 3.55035 22.346H6.27218L6.13608 44.5561C5.10179 44.5561 4.04028 44.5562 2.97876 44.3928C2.26057 44.3246 1.54467 44.5443 0.98837 45.0036C0.432069 45.463 0.0808762 46.1243 0.011967 46.8425C-0.021688 47.2002 0.0158147 47.561 0.122307 47.9042C0.228799 48.2473 0.402176 48.566 0.632437 48.8418C0.862698 49.1176 1.14528 49.3451 1.4639 49.5111C1.78252 49.6772 2.13086 49.7785 2.48883 49.8093C3.87697 49.8093 5.21066 49.9998 6.65323 49.9998C9.65012 49.9959 12.6397 49.7042 15.5808 49.1288C16.2877 48.9905 16.9108 48.5777 17.3139 47.9808C17.7169 47.3839 17.8669 46.6516 17.7311 45.9443C17.5864 45.2481 17.175 44.6362 16.585 44.2395C15.9949 43.8427 15.2731 43.6926 14.5738 43.8212Z" fill="black"/>
</g>
</svg>
