<svg width="51" height="50" viewBox="0 0 51 50" fill="none" xmlns="http://www.w3.org/2000/svg">
<g id="logout">
<path id="Vector" d="M25.6093 50C19.4972 50.0019 13.3941 49.5273 7.35562 48.5807C6.2102 48.3998 5.00447 48.1553 3.98914 47.3361C2.58037 46.209 2.31703 44.6024 2.17425 43.7388C-0.0791252 30.2272 -0.239652 16.4489 1.69831 2.88836C1.7705 2.38912 2.00794 1.92852 2.37263 1.58027C2.73733 1.23202 3.20823 1.01624 3.70996 0.96744C13.8693 0.00354115 24.0839 -0.240485 34.2776 0.237179C34.82 0.262633 35.3348 0.483761 35.7267 0.859663C36.1187 1.23557 36.3613 1.74081 36.4098 2.28192L37.4125 13.5471C37.4653 14.1407 37.2804 14.731 36.8984 15.1883C36.5165 15.6455 35.9686 15.9323 35.3754 15.9855C35.0815 16.0126 34.7853 15.9812 34.5035 15.8933C34.2218 15.8054 33.9601 15.6626 33.7337 15.4732C33.5072 15.2837 33.3204 15.0514 33.184 14.7895C33.0476 14.5276 32.9642 14.2413 32.9387 13.9471L32.1106 4.64417C23.3719 4.31411 14.6212 4.52619 5.90876 5.27919C4.29057 17.8186 4.52576 30.5281 6.60678 42.999C6.63479 43.291 6.70754 43.5769 6.82252 43.8467C7.22081 43.9924 7.63528 44.0894 8.05682 44.1356C15.3253 45.2747 22.6875 45.7 30.0387 45.4057L30.9524 33.5976C31.0002 33.0037 31.281 32.4529 31.7335 32.0655C32.186 31.6782 32.7733 31.4859 33.367 31.5306C33.6614 31.5531 33.9484 31.6335 34.2116 31.7672C34.4749 31.9009 34.7092 32.0852 34.9011 32.3097C35.0929 32.5342 35.2387 32.7943 35.3299 33.0753C35.4211 33.3562 35.456 33.6524 35.4326 33.9469L34.3633 47.7298C34.3226 48.2727 34.0862 48.7822 33.698 49.1636C33.3099 49.5451 32.7965 49.7723 32.2534 49.8031C30.0387 49.9397 27.8208 50 25.6093 50Z" fill="black"/>
<path id="Vector_2" d="M43.4607 32.1276C42.9115 32.1287 42.3813 31.9263 41.9725 31.5592C41.7512 31.3636 41.5706 31.1261 41.4412 30.8605C41.3118 30.5948 41.2361 30.3062 41.2184 30.0112C41.2008 29.7163 41.2415 29.4207 41.3382 29.1415C41.4349 28.8622 41.5858 28.6049 41.7822 28.3842C42.4094 27.6769 42.9963 26.9349 43.54 26.1616C37.1276 26.6664 30.658 26.8824 24.2329 26.822C23.938 26.8191 23.6466 26.7581 23.3754 26.6424C23.1041 26.5267 22.8583 26.3586 22.652 26.1477C22.4457 25.9369 22.283 25.6874 22.1731 25.4136C22.0633 25.1397 22.0085 24.8469 22.0119 24.5519C22.0185 23.9601 22.2582 23.3948 22.6787 22.9787C23.0993 22.5626 23.6669 22.3293 24.2583 22.3293H24.2805C32.0056 22.406 39.7292 22.0636 47.4173 21.3038C47.8139 21.2633 48.214 21.3303 48.5758 21.4979C48.9375 21.6655 49.2476 21.9275 49.4733 22.2563C49.7023 22.5804 49.8414 22.9595 49.8765 23.3549C49.9116 23.7503 49.8415 24.1479 49.6732 24.5074C48.5011 27.0087 46.9751 29.3281 45.1423 31.3941C44.9294 31.628 44.6696 31.8143 44.3798 31.9407C44.09 32.0671 43.7768 32.1308 43.4607 32.1276Z" fill="black"/>
<path id="Vector_3" d="M47.8035 26.0187C47.4248 26.022 47.0515 25.9291 46.7185 25.7486C46.3856 25.5681 46.1038 25.306 45.8997 24.9868L42.3112 19.3701C42.1513 19.1221 42.0419 18.845 41.9892 18.5547C41.9365 18.2643 41.9416 17.9664 42.004 17.678C42.0665 17.3895 42.1852 17.1163 42.3533 16.8738C42.5214 16.6314 42.7358 16.4244 42.9839 16.2649C43.232 16.1049 43.5091 15.9954 43.7995 15.9426C44.0899 15.8898 44.3879 15.8948 44.6764 15.9573C44.9648 16.0198 45.2382 16.1386 45.4807 16.3069C45.7233 16.4752 45.9304 16.6896 46.0901 16.938L49.7009 22.5547C49.8607 22.8027 49.9701 23.0799 50.0228 23.3702C50.0755 23.6606 50.0705 23.9585 50.008 24.2469C49.9455 24.5353 49.8269 24.8086 49.6587 25.0511C49.4906 25.2935 49.2763 25.5004 49.0282 25.6599C48.6638 25.8969 48.238 26.0216 47.8035 26.0187Z" fill="black"/>
</g>
</svg>
