<svg width="45" height="50" viewBox="0 0 45 50" fill="none" xmlns="http://www.w3.org/2000/svg">
<g id="magnifying-glass">
<path id="Vector" d="M21.2242 41.2157C13.6422 41.2157 6.01711 36.856 2.52676 30.0186C-1.69743 21.7527 0.405369 10.861 7.41382 4.68393C11.4993 1.07703 18.6465 -2.30463 29.4444 2.06438L29.503 2.08597C36.459 5.13132 40.3225 11.0492 40.9792 19.6731C41.6945 29.0097 35.1208 38.2043 26.0064 40.5986C24.4456 41.0096 22.8382 41.217 21.2242 41.2157ZM19.7503 4.31367C16.2482 4.28017 12.8619 5.56796 10.2659 7.92057C4.78064 12.7555 3.06633 21.5984 6.36551 28.0562C9.71095 34.6098 17.8479 38.2876 24.9118 36.4333C31.9758 34.5789 37.2453 27.2139 36.681 20.0094C36.1476 13.0085 33.2431 8.44201 27.8041 6.05079C24.9201 4.89477 22.2355 4.31573 19.7503 4.31367Z" fill="black"/>
<path id="Vector_2" d="M38.7321 50.0001C38.475 49.9995 38.2183 49.9788 37.9644 49.9384C35.0691 49.4601 33.7525 46.8282 32.7936 44.906L32.6795 44.6777C31.4678 42.2649 29.9723 40.4876 28.2395 39.3892C27.7574 39.0828 27.4164 38.5978 27.291 38.0403C27.1656 37.4828 27.266 36.8983 27.5704 36.4148C27.8761 35.9319 28.3606 35.59 28.9177 35.4639C29.4749 35.3378 30.0592 35.4379 30.5427 35.7422C32.9477 37.2633 34.9612 39.6175 36.5306 42.7431L36.6509 42.9776C37.2244 44.1285 37.9397 45.5601 38.6643 45.6804C38.9726 45.7391 39.4783 45.449 39.728 44.9646C40.0364 44.3722 40.0703 43.5021 39.8144 42.5734C39.5245 41.5243 38.9326 40.4938 38.3097 39.4016L34.7176 33.1319C34.4333 32.6351 34.3577 32.0457 34.5074 31.4932C34.6572 30.9407 35.02 30.4703 35.5162 30.1853C36.0121 29.9027 36.5996 29.8282 37.1502 29.9779C37.7009 30.1277 38.1699 30.4896 38.4547 30.9844L42.0498 37.2572C42.7436 38.4728 43.5329 39.852 43.9707 41.4256C44.5226 43.425 44.3716 45.3904 43.5484 46.9794C43.0922 47.8706 42.4038 48.6218 41.556 49.1535C40.7082 49.6853 39.7325 49.9778 38.7321 50.0001Z" fill="black"/>
</g>
</svg>
