<svg width="51" height="38" viewBox="0 0 51 38" fill="none" xmlns="http://www.w3.org/2000/svg">
<g id="Layer_1" clip-path="url(#clip0_1105_2097)">
<path id="Vector" d="M47.9224 22.4579H47.6332L36.7899 21.1326C35.585 21.1326 19.3682 21.1326 18.067 21.1326L2.98263 22.5061C2.66595 22.5359 2.3465 22.5027 2.04272 22.4084C1.73893 22.3141 1.45681 22.1606 1.21264 21.9568C0.968466 21.7529 0.76707 21.5028 0.620065 21.2207C0.47306 20.9386 0.383356 20.6302 0.356127 20.3133C0.302703 19.6776 0.503532 19.0467 0.914584 18.5589C1.32563 18.071 1.91336 17.7661 2.5489 17.7109L17.6814 16.3374C19.2959 16.3374 35.6814 16.3374 37.2477 16.3374L48.2116 17.6868C48.8506 17.7251 49.4483 18.0158 49.8731 18.4948C50.2979 18.9738 50.515 19.6019 50.4766 20.241C50.4383 20.8801 50.1476 21.4778 49.6686 21.9025C49.1896 22.3273 48.5615 22.5444 47.9224 22.5061V22.4579Z" fill="black"/>
<path id="Vector_2" d="M25.2728 6.24101C20.1885 6.24101 14.3571 6.24101 13.4415 6.24101L2.47762 4.91571C1.83855 4.83902 1.25611 4.5116 0.858442 4.00548C0.460774 3.49936 0.280451 2.85599 0.35714 2.21692C0.433829 1.57784 0.761249 0.995399 1.26737 0.597732C1.77349 0.200064 2.41686 0.0197454 3.05593 0.0964345L13.8993 1.42173C15.1041 1.42173 31.321 1.42173 32.6222 1.42173L47.6343 0.0241437C47.9507 -0.00433578 48.2696 0.0297918 48.5729 0.124576C48.8761 0.21936 49.1577 0.372945 49.4016 0.576562C49.6455 0.78018 49.8469 1.02984 49.9943 1.31129C50.1418 1.59274 50.2323 1.90048 50.2608 2.21692C50.2892 2.53336 50.2551 2.85231 50.1603 3.15555C50.0655 3.4588 49.912 3.74042 49.7083 3.98431C49.5047 4.2282 49.2551 4.4296 48.9736 4.577C48.6922 4.72441 48.3844 4.81495 48.068 4.84343L32.9355 6.21692L25.2728 6.24101Z" fill="black"/>
<path id="Vector_3" d="M47.9217 37.976H2.76511C2.12603 37.976 1.51313 37.7221 1.06124 37.2702C0.609341 36.8183 0.355469 36.2055 0.355469 35.5664C0.355469 34.9273 0.609341 34.3144 1.06124 33.8625C1.51313 33.4106 2.12603 33.1567 2.76511 33.1567H47.9217C48.5608 33.1567 49.1737 33.4106 49.6256 33.8625C50.0775 34.3144 50.3314 34.9273 50.3314 35.5664C50.3314 36.2055 50.0775 36.8183 49.6256 37.2702C49.1737 37.7221 48.5608 37.976 47.9217 37.976Z" fill="black"/>
</g>
<defs>
<clipPath id="clip0_1105_2097">
<rect width="50" height="37.9518" fill="white" transform="translate(0.355469)"/>
</clipPath>
</defs>
</svg>
