<svg width="38" height="50" viewBox="0 0 38 50" fill="none" xmlns="http://www.w3.org/2000/svg">
<g id="microphone">
<path id="Vector" d="M18.0016 29.1446C17.8149 29.1446 17.625 29.1446 17.4382 29.1197C14.9825 28.8986 12.7259 27.2883 11.4 24.8122C10.3324 22.8095 10.0181 20.5795 9.84377 18.6609C9.56042 15.3972 9.5917 12.1138 9.93716 8.85611C10.099 7.29881 10.3574 5.64806 11.1137 4.09388C12.0723 2.10988 13.7033 0.686505 15.5832 0.200627C19.3182 -0.786702 22.5831 2.14103 23.6538 3.10032C25.2101 4.49255 26.5796 7.41404 27.006 10.211C27.4666 13.2103 27.1274 16.1723 26.7383 18.6764C26.4271 20.757 25.9477 23.1521 24.5596 25.2763C23.0345 27.6714 20.5009 29.1446 18.0016 29.1446ZM17.1394 4.60467C17.0082 4.6048 16.8774 4.62154 16.7504 4.65451C16.1932 4.79778 15.6237 5.35218 15.2595 6.1028C14.8393 6.97177 14.6588 8.02451 14.5187 9.34198C14.2049 12.3058 14.1757 15.2928 14.4316 18.2622C14.5654 19.7884 14.7802 21.3768 15.4556 22.6413C16.0283 23.7128 16.9683 24.4571 17.8522 24.535C18.7859 24.6004 19.9967 23.9121 20.725 22.7753C21.609 21.408 21.9544 19.5766 22.2066 17.9632C22.5427 15.811 22.829 13.2913 22.4742 10.9086C22.1381 8.72841 21.0674 6.94997 20.6067 6.52639C19.1688 5.2494 18.0078 4.60467 17.1394 4.60467Z" fill="black"/>
<path id="Vector_2" d="M18.7056 37.6163C15.2852 37.6341 11.9281 36.6944 9.0133 34.9035C2.70431 30.9729 -0.728777 23.121 0.6625 15.8141C0.777861 15.2147 1.12612 14.6856 1.63085 14.3429C2.13559 14.0001 2.75558 13.8717 3.3548 13.9858C3.95312 14.1013 4.48133 14.4493 4.82376 14.9537C5.1662 15.4581 5.29495 16.0777 5.18182 16.6769C4.1547 22.0714 6.78786 28.095 11.4441 31.004C16.1004 33.9131 22.6677 33.6172 27.0532 30.3126C31.4387 27.008 33.5271 20.7788 32.0332 15.4933C31.9506 15.2027 31.9261 14.8987 31.961 14.5986C31.996 14.2985 32.0897 14.0082 32.2368 13.7444C32.3839 13.4806 32.5816 13.2484 32.8185 13.0611C33.0554 12.8738 33.3269 12.735 33.6174 12.6528C34.2039 12.4866 34.8323 12.5598 35.365 12.8563C35.8976 13.1529 36.2911 13.6487 36.4591 14.235C38.4884 21.3986 35.7619 29.5152 29.8233 33.9878C26.6066 36.3678 22.7059 37.6408 18.7056 37.6163Z" fill="black"/>
<path id="Vector_3" d="M19.9928 49.2898H19.9492C19.6473 49.2842 19.3494 49.219 19.0727 49.098C18.796 48.977 18.5458 48.8026 18.3365 48.5848C18.1272 48.3669 17.9629 48.1099 17.8529 47.8285C17.743 47.547 17.6896 47.2467 17.6958 46.9445L17.9074 36.0434C17.9172 35.4406 18.1637 34.8658 18.5935 34.4433C19.0233 34.0208 19.6019 33.7844 20.2044 33.7853H20.2511C20.8606 33.7976 21.4404 34.0515 21.8629 34.4913C22.2854 34.9311 22.5162 35.5207 22.5046 36.1306L22.2929 47.0317C22.2815 47.6346 22.0341 48.2089 21.604 48.6312C21.1739 49.0534 20.5954 49.2899 19.9928 49.2898Z" fill="black"/>
<path id="Vector_4" d="M21.8688 50C17.151 49.9957 12.4426 49.5789 7.79735 48.7542C7.49958 48.7023 7.21498 48.5921 6.95985 48.4299C6.70472 48.2677 6.48406 48.0567 6.31057 47.809C6.13708 47.5614 6.01416 47.2818 5.94883 46.9865C5.8835 46.6912 5.87705 46.3859 5.92987 46.0881C6.03693 45.4874 6.37733 44.9537 6.8766 44.6035C7.37588 44.2533 7.99341 44.1152 8.59417 44.2193C16.2251 45.568 24.0168 45.7455 31.7012 44.7457C32.0008 44.7055 32.3054 44.7252 32.5974 44.8035C32.8894 44.8819 33.163 45.0173 33.4023 45.2021C33.6416 45.3869 33.842 45.6173 33.9919 45.88C34.1417 46.1428 34.238 46.4326 34.2752 46.7328C34.3145 47.0323 34.2944 47.3366 34.2159 47.6282C34.1375 47.9199 34.0023 48.1932 33.8181 48.4325C33.634 48.6718 33.4044 48.8723 33.1426 49.0227C32.8808 49.173 32.5919 49.2702 32.2925 49.3086C28.8365 49.7639 25.3547 49.9948 21.8688 50Z" fill="black"/>
</g>
</svg>
