<svg width="46" height="50" viewBox="0 0 46 50" fill="none" xmlns="http://www.w3.org/2000/svg">
<path d="M45.7625 3.94529C44.5249 2.6326 43.1165 1.49706 41.5763 0.570046C41.5109 0.427348 41.4125 0.302753 41.2895 0.20682C41.1664 0.110888 41.0224 0.0464477 40.8695 0.0189853C40.6963 -0.0153914 40.5171 -0.00292834 40.3501 0.0551102C40.1831 0.113149 40.0341 0.214725 39.9181 0.349628L24.3831 17.832C19.1504 17.832 9.29656 18.0799 5.35504 17.9422C4.1534 17.7337 2.919 18.0106 1.9164 18.7136C1.15487 19.6315 0.76618 20.8086 0.8291 22.0062C0.285442 29.969 0.0135915 37.9594 0 45.9359C0.0680144 46.6023 0.303696 47.2398 0.684467 47.7874C1.06524 48.335 1.57835 48.7743 2.17464 49.0632C3.33348 49.5645 4.58472 49.8088 5.84435 49.7796C11.8699 50.0735 17.8909 50.0735 23.9074 49.7796C25.4732 49.8989 27.0246 49.4059 28.243 48.4019C29.0717 47.3066 29.495 45.9512 29.4391 44.5721C29.8061 39.2544 31.5186 29.1011 31.0157 23.067C36.1941 17.3498 41.1549 11.3708 45.844 5.15761C45.9585 4.97271 46.0123 4.75581 45.9976 4.53801C45.983 4.32021 45.9007 4.11272 45.7625 3.94529ZM20.7134 36.4164L16.2418 36.2786C16.2418 37.5047 16.3913 38.7309 16.5 39.957C16.5341 40.3205 16.4244 40.6828 16.1951 40.9644C15.9657 41.246 15.6354 41.4237 15.2768 41.4586H15.1545C14.8143 41.46 14.4858 41.332 14.2342 41.0999C13.9826 40.8678 13.826 40.5484 13.7954 40.2049C13.673 38.8273 13.5779 37.5185 13.5099 36.1684L9.36453 36.0444C9.00407 36.0444 8.65834 35.8993 8.40345 35.6409C8.14856 35.3826 8.00539 35.0322 8.00539 34.6668C8.00539 34.3014 8.14856 33.951 8.40345 33.6926C8.65834 33.4343 9.00407 33.2891 9.36453 33.2891L13.3333 33.4131C13.3333 32.0355 13.3333 30.5752 13.3333 29.17C13.3333 28.8046 13.4764 28.4542 13.7313 28.1958C13.9862 27.9375 14.3319 27.7923 14.6924 27.7923C15.0529 27.7923 15.3986 27.9375 15.6534 28.1958C15.9083 28.4542 16.0515 28.8046 16.0515 29.17C16.0515 30.5936 16.0515 32.0125 16.0515 33.4269L20.7134 33.5785C21.0739 33.5785 21.4196 33.7236 21.6745 33.982C21.9293 34.2403 22.0726 34.5907 22.0726 34.9561C22.0837 35.1438 22.0568 35.3319 21.9935 35.5087C21.9302 35.6855 21.8318 35.8473 21.7045 35.9841C21.5771 36.1209 21.4235 36.2299 21.2531 36.3042C21.0826 36.3786 20.899 36.4167 20.7134 36.4164ZM24.9675 26.6213C23.7368 27.2318 22.4705 27.7655 21.1755 28.2194L21.7192 25.3815C21.8014 24.8451 21.9381 24.3188 22.1269 23.8109C22.4822 23.1234 22.9407 22.496 23.486 21.9511L40.7064 2.49875C41.7556 3.15177 42.7349 3.91357 43.6286 4.77187C37.7856 12.3776 31.5569 19.6706 24.9675 26.6213Z" fill="black"/>
</svg>
