<svg width="52" height="50" viewBox="0 0 52 50" fill="none" xmlns="http://www.w3.org/2000/svg">
<g id="pencil">
<path id="Vector" d="M16.3996 41.3784C15.8214 41.3792 15.2628 41.1691 14.8281 40.7875C14.516 40.5135 14.2812 40.1624 14.147 39.7691C14.0128 39.3759 13.984 38.9544 14.0634 38.5466L15.1928 32.702C15.3459 31.7523 15.6024 30.8222 15.9575 29.9283C16.5674 28.5236 17.5419 27.4419 18.3196 26.57L41.4366 0.789385C41.8585 0.320599 42.4488 0.0380638 43.0783 0.00357242C43.7078 -0.030919 44.3253 0.185438 44.7958 0.605327C44.9284 0.724176 45.0475 0.85738 45.1507 1.0025C47.1253 2.21768 48.939 3.67685 50.5492 5.34556C50.9471 5.75695 51.1836 6.29791 51.2156 6.86949C51.2476 7.44108 51.0729 8.00508 50.7235 8.45835C42.852 18.6589 34.4338 28.4249 25.5057 37.7135C25.3198 37.9098 25.1015 38.0725 24.8604 38.1946C22.3766 39.4128 19.8025 40.4373 17.1611 41.259C16.9154 41.3398 16.6582 41.3801 16.3996 41.3784ZM43.5051 5.62649L21.8594 29.77C21.2496 30.4481 20.6203 31.1488 20.3202 31.8398C20.1097 32.4165 19.9562 33.0124 19.862 33.6191L19.5393 35.3789C20.417 35.0301 21.3496 34.6265 22.3789 34.126C30.584 25.5692 38.3512 16.6025 45.6509 7.26038C44.9688 6.67348 44.2522 6.12787 43.5051 5.62649Z" fill="black"/>
<path id="Vector_2" d="M2.73438 47.3005L18.2942 47.152C28.42 47.0551 38.5587 46.9582 48.6652 47.6202" fill="black"/>
<path id="Vector_3" d="M48.6678 50.0001H48.5097C38.5065 49.3543 28.2354 49.4415 18.3193 49.5351L2.75953 49.6837H2.73696C2.10982 49.6837 1.50796 49.4362 1.06209 48.9949C0.616224 48.5535 0.362347 47.954 0.355549 47.3265C0.350381 46.6953 0.595348 46.0877 1.03684 45.6368C1.47833 45.186 2.08035 44.9285 2.71112 44.9208L18.2742 44.7723C28.2774 44.6754 38.6032 44.5786 48.8226 45.247C49.4521 45.2893 50.0391 45.5794 50.4552 46.0539C50.8713 46.5284 51.0825 47.1485 51.0427 47.7785C51.0018 48.3811 50.7339 48.9456 50.293 49.3579C49.8521 49.7703 49.2713 49.9999 48.6678 50.0001Z" fill="black"/>
</g>
</svg>
