<svg width="65" height="55" viewBox="0 0 65 55" fill="none" xmlns="http://www.w3.org/2000/svg">
<g id="person-add">
<circle id="Ellipse 267" cx="25" cy="30" r="24.5" fill="black" stroke="black"/>
<g id="Group 534">
<path id="Vector" d="M23.5141 29.2439C23.2186 29.2439 22.9235 29.2191 22.6322 29.1697C21.4657 28.973 19.9392 27.7595 19.4976 26.1514C19.0672 24.5743 19.5323 22.7633 20.7124 21.4249C21.5263 20.5034 22.5678 19.9084 23.6626 19.7463C25.5329 19.468 27.4725 20.5355 28.2901 22.2821C29.0719 23.9496 28.7664 26.0315 27.5257 27.4614C26.5484 28.5908 25.0393 29.2439 23.5141 29.2439ZM22.9389 27.3501C24.1202 27.5492 25.3783 27.1212 26.1303 26.2541C26.8824 25.387 27.089 24.0708 26.619 23.0689C26.1489 22.0669 24.9985 21.4212 23.9335 21.5746C23.2754 21.6723 22.6223 22.0533 22.0978 22.6483C21.3358 23.5142 21.0154 24.6955 21.2801 25.6641C21.5448 26.6326 22.5171 27.2721 22.9389 27.3488V27.3501Z" fill="white"/>
<path id="Vector_2" d="M25.9495 40.3943C22.2907 40.3839 18.661 39.7428 15.2199 38.4992C15.1027 38.4575 14.995 38.3926 14.9035 38.3083C14.8119 38.224 14.7384 38.122 14.6872 38.0086C14.636 37.8951 14.6083 37.7725 14.6057 37.6481C14.603 37.5237 14.6256 37.4 14.6719 37.2845C16.1563 33.5736 19.8363 30.8745 23.8256 30.564C27.8149 30.2535 31.8598 32.3539 33.9021 35.7902C34.2274 36.337 34.6282 37.1695 34.3511 38.0651C33.9293 39.4257 32.3546 39.7288 31.8376 39.8278C29.8974 40.2035 27.9258 40.3932 25.9495 40.3943ZM16.8045 37.0866C21.6535 38.6452 26.5866 38.9569 31.485 38.0156C32.4177 37.8362 32.5625 37.5901 32.5835 37.5208C32.6045 37.4515 32.6057 37.2326 32.3113 36.7365C30.6192 33.8915 27.2583 32.1597 23.9642 32.4071C20.9905 32.6384 18.2233 34.4766 16.8045 37.0866Z" fill="white"/>
</g>
<circle id="Ellipse 268" cx="50" cy="15" r="14.5" fill="white" stroke="black"/>
<g id="Group 535">
<path id="Vector_3" d="M56.5742 14.2265C52.5249 14.122 48.4731 14.2663 44.4415 14.6587L56.5742 14.2265Z" fill="black"/>
<path id="Vector_4" d="M43.8153 14.657C43.8154 14.5008 43.8737 14.3502 43.9788 14.2346C44.0839 14.119 44.2283 14.0466 44.3839 14.0315C48.44 13.6369 52.5165 13.4915 56.5905 13.596C56.7566 13.6027 56.9135 13.6739 57.0279 13.7944C57.1423 13.915 57.2052 14.0753 57.2031 14.2414C57.2009 14.324 57.1825 14.4054 57.1489 14.4808C57.1153 14.5563 57.0671 14.6244 57.0071 14.6813C56.9471 14.7381 56.8765 14.7826 56.7993 14.8122C56.7222 14.8417 56.6399 14.8558 56.5573 14.8536C52.534 14.7503 48.5082 14.8938 44.5026 15.2833C44.4204 15.2913 44.3373 15.2831 44.2583 15.259C44.1792 15.235 44.1057 15.1956 44.0418 15.1431C43.978 15.0907 43.9252 15.0262 43.8863 14.9533C43.8474 14.8804 43.8233 14.8006 43.8153 14.7184C43.8141 14.698 43.8141 14.6775 43.8153 14.657Z" fill="black"/>
<path id="Vector_5" d="M50.4766 8.16089L50.0881 20.9896L50.4766 8.16089Z" fill="black"/>
<path id="Vector_6" d="M49.4507 20.9893L49.4507 20.9694L49.8392 8.14073C49.8444 7.97401 49.9156 7.81617 50.0372 7.70186C50.1587 7.58755 50.3207 7.52612 50.4875 7.53104C50.653 7.54019 50.8086 7.61254 50.9221 7.73313C51.0357 7.85372 51.0985 8.01331 51.0976 8.1789L50.7083 21.0076C50.706 21.0902 50.6873 21.1715 50.6535 21.2469C50.6197 21.3222 50.5713 21.3902 50.5112 21.4469C50.4511 21.5036 50.3803 21.5479 50.3031 21.5773C50.2258 21.6067 50.1435 21.6205 50.0609 21.6181C49.8974 21.6127 49.7425 21.5442 49.6287 21.4269C49.5149 21.3096 49.4511 21.1527 49.4507 20.9893Z" fill="black"/>
</g>
</g>
</svg>
