<svg width="45" height="50" viewBox="0 0 45 50" fill="none" xmlns="http://www.w3.org/2000/svg">
<path id="phone" d="M33.7734 49.999C31.5632 49.999 29.3785 49.8119 27.2307 49.6304C26.0519 49.5311 24.434 49.3951 23.0059 48.4735C21.8271 47.7108 21.1046 46.639 20.5265 45.777C13.6608 35.5692 6.55995 25.007 0.623665 13.9288C0.35121 13.4194 0.28333 12.8251 0.433839 12.2672C1.00055 10.2257 1.62389 8.49602 2.23594 6.82025C2.80265 5.26924 3.6527 2.92429 5.69002 1.52923C6.48954 1.00361 7.37606 0.624374 8.30822 0.409219C14.2587 -1.12478 21.0111 1.77025 24.0118 7.14633C25.1197 9.13116 25.5589 11.1557 25.2727 13.0016C25.1775 13.8575 24.7747 14.6495 24.1393 15.2303C23.6155 15.6541 22.987 15.9285 22.3202 16.0242C21.0798 16.2577 19.8717 16.6385 18.7215 17.1584L21.8384 22.3077C23.0965 24.3776 24.3887 26.4985 25.7743 28.4578C27.0886 30.3156 28.5246 32.0841 30.0727 33.7517C31.2618 32.8265 32.5273 32.0041 33.8555 31.2933C34.6277 30.8218 35.5255 30.5982 36.4284 30.6525C37.8451 30.7886 38.7548 31.7158 39.245 32.2148C40.8488 33.8367 42.8464 35.8613 43.6823 38.6089C44.3085 40.6703 44.249 43.0379 43.4726 45.6409C43.2204 46.4915 42.8039 47.603 41.8461 48.414C41.0855 49.0094 40.1814 49.3937 39.2251 49.5283C37.4267 49.8565 35.6014 50.0141 33.7734 49.999ZM5.02418 12.6018C10.7706 23.1923 17.6249 33.3916 24.2611 43.2619C24.6465 43.829 25.0461 44.4273 25.4456 44.6796C25.9301 44.9915 26.8227 45.0681 27.6104 45.1333C31.2062 45.4395 34.921 45.7571 38.3779 45.0908C38.5831 45.0648 38.7841 45.0124 38.9758 44.9348C38.956 44.9348 39.0324 44.7874 39.1571 44.3677C39.6728 42.6211 39.7437 41.124 39.3781 39.916C38.8681 38.2346 37.3663 36.7148 36.043 35.3793C36.0232 35.3594 35.992 35.3254 35.9523 35.2885C34.3227 36.1624 32.8108 37.24 31.4527 38.4955C31.026 38.8903 30.4633 39.1045 29.8823 39.0934C29.3013 39.0823 28.7471 38.8467 28.3358 38.4359C26.0505 36.1619 23.9649 33.6954 22.102 31.0636C20.6285 28.9796 19.2968 26.7906 18.0075 24.6753L13.9442 17.9892C13.707 17.6392 13.5531 17.2395 13.4941 16.8208C13.4352 16.402 13.4728 15.9753 13.6042 15.5734C13.8387 14.9339 14.2966 14.4011 14.8934 14.0734C16.7416 12.984 18.7496 12.1927 20.8438 11.7285C20.7726 10.8876 20.511 10.0741 20.0788 9.34949C18.0783 5.76261 13.4002 3.75508 9.43036 4.77869C9.00602 4.87038 8.59996 5.03234 8.22894 5.25789C7.44971 5.79096 6.97078 6.98187 6.46925 8.37692C5.97904 9.7096 5.47471 11.0848 5.02418 12.6018Z" fill="black"/>
</svg>
