<svg width="53" height="50" viewBox="0 0 53 50" fill="none" xmlns="http://www.w3.org/2000/svg">
<g id="picture">
<path id="Vector" d="M3.41999 49.9909C2.84094 49.9911 2.28437 49.7666 1.86739 49.3645C1.65326 49.1578 1.48247 48.9105 1.36509 48.6369C1.2477 48.3633 1.18607 48.0691 1.18376 47.7714C1.07134 32.8215 0.961929 17.5707 0.357294 2.32594C0.34511 2.02438 0.394012 1.72348 0.501053 1.44132C0.608094 1.15917 0.771078 0.901593 0.980174 0.684099C1.18887 0.467623 1.43905 0.295473 1.71573 0.177933C1.99241 0.0603926 2.28994 -0.00012512 2.59052 1.94218e-07L49.0015 0.194588C49.5516 0.196644 50.0816 0.401521 50.4902 0.770042C50.8989 1.13856 51.1574 1.64487 51.2165 2.19216C52.6625 15.7501 53.082 29.398 52.4713 43.0192C52.4318 43.9678 52.3589 45.5549 51.3198 46.8501C49.8462 48.6744 47.4276 48.7534 46.264 48.7838L3.47466 50L3.41999 49.9909ZM4.9118 4.48465C5.41617 18.3004 5.54074 32.0705 5.63797 45.4545L46.1455 44.3113C47.4763 44.2749 47.777 44.1137 47.8469 44.0438C47.9685 43.8674 48.0019 43.08 48.014 42.8276C48.5855 30.0982 48.2413 17.3441 46.984 4.66404L4.9118 4.48465Z" fill="black"/>
<path id="Vector_2" d="M16.181 21.5293C15.4166 21.5076 14.6664 21.3177 13.9837 20.9729C13.301 20.6282 12.7027 20.1372 12.2311 19.5348C11.5299 18.6156 10.9819 17.5888 10.6086 16.4943C9.17757 12.8276 11.1738 10.1094 13.3189 8.91149C14.2958 8.38027 15.4163 8.17407 16.5181 8.32276C17.62 8.47145 18.6459 8.9673 19.4473 9.73849C20.614 10.8939 21.2065 12.5327 21.2703 14.7522C21.3438 16.0731 21.1054 17.3928 20.5745 18.6044C20.2127 19.4017 19.6489 20.0906 18.939 20.6026C18.229 21.1146 17.3977 21.432 16.5274 21.5232C16.3998 21.5232 16.2904 21.5293 16.181 21.5293ZM14.7651 14.8403C14.9796 15.4892 15.2866 16.1036 15.6766 16.6646C15.8001 16.8377 15.9758 16.9667 16.178 17.0325C16.3338 16.9353 16.4566 16.7933 16.5304 16.6251C16.742 16.05 16.827 15.4361 16.7796 14.8251C16.7522 13.5269 16.4757 13.0556 16.2965 12.8884C16.1868 12.7983 16.0542 12.7406 15.9136 12.7218C15.7729 12.703 15.6299 12.7239 15.5004 12.782C14.2456 13.4904 14.6102 14.4299 14.7651 14.8312V14.8403Z" fill="black"/>
<path id="Vector_3" d="M5.5049 38.5528C5.28336 38.5522 5.06316 38.5184 4.85165 38.4524C4.57055 38.367 4.30911 38.2268 4.0823 38.04C3.85549 37.8532 3.66778 37.6233 3.53 37.3637C3.39223 37.104 3.30707 36.8197 3.27943 36.5271C3.25178 36.2344 3.2822 35.9391 3.36892 35.6583C3.91716 33.8865 4.86108 32.2627 6.12919 30.91C7.3973 29.5573 8.95636 28.511 10.6883 27.8504C12.4247 27.2018 14.2857 26.9568 16.1307 27.1337C17.9756 27.3107 19.7562 27.9051 21.3378 28.872C21.6234 29.0483 21.912 29.2399 22.2007 29.4345C22.9238 29.9179 23.8019 30.5169 24.2364 30.4257C24.5828 30.3527 25.1844 29.6625 25.5064 29.2946L35.6607 17.6984C36.4658 16.7863 37.5687 15.5214 39.2155 14.9316C40.6162 14.436 42.9375 14.2536 46.0093 16.2268C46.38 16.464 46.7446 16.7194 47.1122 16.9717C48.0511 17.6224 48.9352 18.2396 49.8103 18.4676C50.0952 18.5415 50.3628 18.6711 50.5975 18.8488C50.8322 19.0265 51.0295 19.2489 51.178 19.5033C51.3266 19.7576 51.4234 20.0387 51.4629 20.3306C51.5025 20.6225 51.484 20.9193 51.4085 21.204C51.335 21.4893 51.2058 21.7572 51.0282 21.9921C50.8506 22.2271 50.6283 22.4245 50.374 22.573C50.1197 22.7214 49.8385 22.8179 49.5467 22.8569C49.2549 22.896 48.9583 22.8767 48.674 22.8002C47.0363 22.3715 45.7237 21.4594 44.56 20.6719C44.238 20.45 43.9159 20.225 43.5908 20.0152C42.3997 19.249 41.3515 18.9389 40.7104 19.1669C40.1574 19.3646 39.5528 20.0578 39.018 20.6689L28.8638 32.2621C28.1103 33.1256 26.9709 34.4299 25.1844 34.8191C22.9117 35.3086 21.0644 34.0772 19.7153 33.1773C19.4723 33.0131 19.2292 32.8519 18.9892 32.703C17.9887 32.0951 16.8646 31.7197 15.6998 31.6045C14.535 31.4892 13.3593 31.6371 12.2592 32.0371C11.1687 32.4604 10.1871 33.1233 9.38671 33.9768C8.58635 34.8303 7.98765 35.8528 7.6348 36.9687C7.49489 37.4254 7.21275 37.8255 6.82959 38.1105C6.44642 38.3954 5.98229 38.5504 5.5049 38.5528Z" fill="black"/>
</g>
</svg>
