<svg width="52" height="54" viewBox="0 0 52 54" fill="none" xmlns="http://www.w3.org/2000/svg">
<g id="pluss">
<path id="Vector" d="M48.4003 25.0382C33.2742 24.8795 18.1526 25.6501 3.1211 27.3457L48.4003 25.0382Z" fill="black"/>
<path id="Vector_2" d="M0.771024 27.3756C0.762459 26.7923 0.971475 26.2266 1.35736 25.7889C1.74325 25.3511 2.27837 25.0726 2.8585 25.0075C17.9816 23.302 33.1952 22.5259 48.4134 22.6834C49.034 22.6989 49.6241 22.9557 50.0582 23.3992C50.4922 23.8427 50.7361 24.4379 50.7378 25.0583C50.7345 25.3668 50.6704 25.6716 50.5491 25.9553C50.4279 26.239 50.2519 26.4961 50.0312 26.7118C49.8105 26.9276 49.5494 27.0977 49.2629 27.2125C48.9764 27.3274 48.67 27.3847 48.3613 27.3812C33.3325 27.2254 18.3083 27.9914 3.37331 29.6749C3.06665 29.7095 2.75616 29.6835 2.45959 29.5982C2.16301 29.5129 1.88615 29.37 1.64483 29.1778C1.4035 28.9855 1.20243 28.7477 1.0531 28.4778C0.903778 28.2079 0.809122 27.9112 0.774534 27.6048C0.768819 27.5285 0.767647 27.452 0.771024 27.3756Z" fill="black"/>
<path id="Vector_3" d="M25.2656 2.7384L24.5485 50.6634L25.2656 2.7384Z" fill="black"/>
<path id="Vector_4" d="M22.1823 50.698L22.1812 50.6236L22.8983 2.69859C22.9082 2.07577 23.165 1.48233 23.6124 1.04853C24.0597 0.614737 24.661 0.376089 25.2843 0.384906C25.9026 0.409612 26.4877 0.670907 26.9187 1.11469C27.3496 1.55848 27.5934 2.15082 27.5995 2.76919L26.8793 50.6942C26.8752 51.0027 26.8103 51.3074 26.6883 51.5908C26.5663 51.8743 26.3896 52.1309 26.1683 52.346C25.947 52.5612 25.6855 52.7307 25.3986 52.8448C25.1118 52.9589 24.8052 53.0154 24.4965 53.011C23.886 53.0003 23.3035 52.7531 22.8719 52.3216C22.4402 51.8901 22.1929 51.308 22.1823 50.698Z" fill="black"/>
</g>
</svg>
