<svg width="15" height="14" viewBox="0 0 15 14" fill="none" xmlns="http://www.w3.org/2000/svg">
<g>
  <path d="M7.54155 14C7.37598 14.0008 7.21602 13.9407 7.09295 13.8313C6.96987 13.7219 6.89253 13.5711 6.87598 13.4084C6.45783 9.17139 6.30223 4.91307 6.41007 0.657277C6.41007 0.482956 6.4802 0.315775 6.60502 0.192511C6.72984 0.0692481 6.89912 0 7.07564 0C7.25216 0 7.42144 0.0692481 7.54626 0.192511C7.67108 0.315775 7.74121 0.482956 7.74121 0.657277C7.63443 4.85822 7.7878 9.06167 8.20046 13.2441C8.20965 13.3305 8.20141 13.4179 8.17621 13.5011C8.15101 13.5843 8.10935 13.6618 8.05365 13.729C7.99795 13.7962 7.92933 13.8519 7.85171 13.8928C7.77409 13.9337 7.689 13.9589 7.60143 13.9671L7.54155 14Z" fill="black"/>
  <path d="M14.2433 8.11086L0.665574 7.70335C0.489052 7.70335 0.319771 7.6341 0.194952 7.51084C0.0701324 7.38757 0 7.22039 0 7.04607C0 6.87175 0.0701324 6.70457 0.194952 6.58131C0.319771 6.45804 0.489052 6.38879 0.665574 6.38879L14.2433 6.7963C14.4198 6.7963 14.5891 6.86555 14.7139 6.98881C14.8387 7.11208 14.9089 7.27926 14.9089 7.45358C14.9089 7.6279 14.8387 7.79508 14.7139 7.91834C14.5891 8.04161 14.4198 8.11086 14.2433 8.11086Z" fill="black"/>
</g>
</svg>
