<svg width="51" height="50" viewBox="0 0 51 50" fill="none" xmlns="http://www.w3.org/2000/svg">
<path id="send" d="M33.0617 50C32.6614 50.0001 32.2675 49.899 31.9165 49.7062C31.5655 49.5134 31.2689 49.2351 31.054 48.8971C27.4497 43.2229 23.9161 37.4196 20.5544 31.641C20.2467 31.1144 20.1533 30.4896 20.2935 29.896C19.9087 29.8959 19.5297 29.8032 19.1883 29.6257C12.9488 26.347 6.97295 22.5887 1.31458 18.3848C0.854646 18.0414 0.533775 17.5437 0.41085 16.9828C0.287925 16.4219 0.371167 15.8355 0.645299 15.3311C0.6412 14.7865 0.823574 14.2569 1.16206 13.8304C1.50054 13.404 1.97474 13.1063 2.50576 12.987C17.7778 9.55226 32.8447 5.26089 47.6352 0.133252C48.0553 -0.0136324 48.5081 -0.0396788 48.9423 0.058071C49.3764 0.155821 49.7745 0.373449 50.0912 0.686234C50.4072 0.996632 50.6303 1.3891 50.7355 1.81949C50.8408 2.24989 50.8239 2.70112 50.6868 3.12243C45.8883 17.8471 40.9241 33.0757 35.3029 48.4363C35.1489 48.8517 34.8818 49.2157 34.5319 49.4871C34.1819 49.7586 33.7631 49.9267 33.3227 49.9724C33.2365 49.9879 33.1493 49.9971 33.0617 50ZM25.5187 30.704C27.7782 34.5564 30.1237 38.4119 32.4846 42.2275C36.8471 30.0527 40.832 17.9577 44.6788 6.17305C32.3986 10.2743 19.8422 13.8349 7.24279 16.7872C11.3759 19.6778 15.673 22.3264 20.1124 24.7195L31.3211 16.7104C31.7937 16.3717 32.374 16.218 32.9522 16.2786C33.5304 16.3392 34.0664 16.6098 34.4586 17.0392C34.852 17.4678 35.0748 18.0259 35.0849 18.6077C35.0951 19.1896 34.892 19.7551 34.5139 20.1973L25.5187 30.704Z" fill="black"/>
</svg>
