<svg width="51" height="50" viewBox="0 0 51 50" fill="none" xmlns="http://www.w3.org/2000/svg">
<path id="send" d="M32.7711 49.5558C32.3743 49.5558 31.9839 49.4557 31.6361 49.2646C31.2882 49.0735 30.9942 48.7977 30.7812 48.4627C27.209 42.8389 23.7068 37.0872 20.375 31.3598C20.07 30.838 19.9774 30.2187 20.1163 29.6304C19.735 29.6303 19.3593 29.5384 19.021 29.3624C12.8369 26.1129 6.91416 22.388 1.30606 18.2214C0.85021 17.8811 0.532191 17.3878 0.410358 16.8319C0.288525 16.276 0.371028 15.6948 0.642724 15.1948C0.638661 14.6551 0.819415 14.1302 1.15489 13.7075C1.49036 13.2849 1.96035 12.9899 2.48665 12.8716C17.623 9.46739 32.556 5.21415 47.2151 0.132068C47.6315 -0.0135113 48.0803 -0.0393263 48.5106 0.0575551C48.9409 0.154436 49.3354 0.370131 49.6493 0.680137C49.9625 0.987777 50.1836 1.37676 50.2879 1.80333C50.3922 2.2299 50.3755 2.67712 50.2396 3.09469C45.4838 17.6886 40.5636 32.7818 34.9924 48.0059C34.8397 48.4176 34.575 48.7784 34.2282 49.0474C33.8814 49.3165 33.4663 49.4831 33.0298 49.5283C32.9444 49.5438 32.8579 49.5529 32.7711 49.5558ZM25.2951 30.4312C27.5346 34.2494 29.8592 38.0707 32.1991 41.8523C36.5229 29.7857 40.4724 17.7982 44.2849 6.1182C32.1139 10.1831 19.6691 13.712 7.1816 16.6381C11.278 19.503 15.5369 22.128 19.9368 24.4998L31.0459 16.562C31.5143 16.2262 32.0895 16.0739 32.6626 16.134C33.2356 16.194 33.7668 16.4622 34.1556 16.8878C34.5455 17.3126 34.7663 17.8657 34.7764 18.4424C34.7865 19.0191 34.5851 19.5796 34.2104 20.0179L25.2951 30.4312Z" fill="black"/>
</svg>
