<svg width="58" height="50" viewBox="0 0 58 50" fill="none" xmlns="http://www.w3.org/2000/svg">
<g id="settings">
<path id="Vector" d="M13.3075 50.0001C12.2822 50.0026 11.2692 49.7771 10.3416 49.3397C8.92905 48.6431 7.79088 47.4923 7.10945 46.0716H6.85826C5.68464 46.0266 4.51476 45.9816 3.33739 45.9178C2.66903 45.879 2.04209 45.581 1.5898 45.0871C1.1375 44.5931 0.895509 43.9422 0.915174 43.2725C0.936579 42.6059 1.21609 41.9737 1.69466 41.5095C2.17323 41.0453 2.81338 40.7855 3.47988 40.7848L6.63704 40.8036C6.69329 40.6272 6.75328 40.4546 6.82452 40.2858C7.54618 38.6267 8.87126 37.3043 10.5312 36.5866C12.1911 35.869 14.0616 35.8098 15.7635 36.4211C17.3962 37.1111 18.7617 38.3117 19.6556 39.843C19.8482 40.1742 20.0077 40.5236 20.1318 40.8861L51.7708 41.07C52.44 41.0738 53.0813 41.3392 53.5577 41.8096C54.034 42.28 54.3078 42.9181 54.3205 43.5877C54.3368 44.2596 54.0891 44.9111 53.6306 45.4023C53.172 45.8934 52.5393 46.1849 51.8683 46.2142C41.3695 46.672 30.4956 46.777 19.5356 46.5369C18.8798 47.5987 17.963 48.4746 16.8727 49.0809C15.7824 49.6872 14.5549 50.0037 13.3075 50.0001ZM11.5115 43.1937C11.561 43.5053 11.6797 43.8019 11.8588 44.0616C12.0379 44.3214 12.2728 44.5376 12.5463 44.6946C13.0087 44.8702 13.5167 44.8846 13.9883 44.7355C14.4598 44.5864 14.8673 44.2825 15.1448 43.8729C15.2262 43.7092 15.2842 43.5349 15.3173 43.3551L15.3398 43.2537V43.1562C15.3795 42.9008 15.3416 42.6394 15.2311 42.4058C14.9256 41.8819 14.4732 41.4592 13.93 41.1901C13.4783 41.0645 12.9972 41.0989 12.568 41.2877C12.1389 41.4764 11.7882 41.8078 11.5752 42.2257C11.4794 42.4948 11.451 42.7834 11.4927 43.0661C11.5077 43.1149 11.5078 43.1637 11.5115 43.1937Z" fill="black"/>
<path id="Vector_2" d="M41.8602 31.9973C41.0452 31.9979 40.2369 31.8491 39.4755 31.5583C37.8404 30.8706 36.4731 29.6696 35.5796 28.1363C35.389 27.8059 35.2308 27.4579 35.1072 27.097L3.46443 26.9094C2.79548 26.9046 2.15479 26.6389 1.67861 26.1687C1.20244 25.6985 0.928393 25.061 0.914738 24.3917C0.899356 23.72 1.14736 23.069 1.6057 22.5781C2.06404 22.0872 2.69624 21.7954 3.36694 21.7652C13.892 21.3037 24.7396 21.1949 35.6996 21.4425C36.6276 19.9293 38.0758 18.8071 39.7722 18.2869C41.4686 17.7666 43.2964 17.8841 44.9124 18.6171C46.3247 19.3123 47.4629 20.4619 48.1445 21.8815H48.392C49.5656 21.9265 50.7392 21.9753 51.9128 22.0391C52.5782 22.0769 53.2028 22.372 53.6548 22.8621C54.1068 23.3522 54.3507 23.9989 54.3351 24.6656C54.3146 25.3325 54.0354 25.9652 53.5566 26.4296C53.0778 26.894 52.4371 27.1536 51.7704 27.1533L48.6169 27.1345C48.5607 27.3109 48.497 27.4835 48.4295 27.6561C47.8819 28.9456 46.9668 30.0451 45.7985 30.8172C44.6301 31.5892 43.2603 31.9997 41.8602 31.9973ZM39.9142 24.7031C39.9142 24.7331 39.9142 24.7631 39.9142 24.7894C39.8768 25.0448 39.9145 25.3056 40.0229 25.5398C40.3269 26.0627 40.7782 26.4842 41.3203 26.7518C41.772 26.8758 42.2526 26.841 42.6818 26.6532C43.111 26.4654 43.4629 26.136 43.6787 25.7199C43.775 25.4521 43.8021 25.1643 43.7575 24.8832C43.7575 24.8419 43.7575 24.8044 43.7575 24.7631C43.7082 24.4514 43.5897 24.1548 43.4106 23.895C43.2314 23.6352 42.9963 23.419 42.7226 23.2623C42.2598 23.0857 41.7509 23.0708 41.2786 23.2199C40.8062 23.3691 40.3981 23.6736 40.1204 24.084C40.0402 24.2479 39.9834 24.4222 39.9517 24.6018L39.9142 24.7031Z" fill="black"/>
<path id="Vector_3" d="M13.3104 13.9982C12.2833 14.0016 11.2686 13.7747 10.3407 13.334C9.15462 12.7628 8.15953 11.8595 7.47603 10.7338H7.0148C5.64995 10.7338 4.2701 10.7338 2.89025 10.7338C2.21884 10.7269 1.57697 10.4565 1.10288 9.98064C0.628797 9.50482 0.360457 8.86173 0.355576 8.18984C0.349424 7.51746 0.607204 6.86951 1.0735 6.38535C1.53979 5.9012 2.17732 5.61951 2.84901 5.60086L6.46737 5.5033C6.5528 5.08568 6.67837 4.6773 6.84233 4.28385C7.56399 2.62476 8.88911 1.30234 10.549 0.58469C12.2089 -0.13296 14.0794 -0.192149 15.7813 0.419137C17.4147 1.108 18.7805 2.30884 19.6734 3.8411C19.9087 4.24609 20.0938 4.67827 20.2246 5.12809L54.7845 4.18629C55.1196 4.16484 55.4556 4.21206 55.7719 4.32508C56.0881 4.43809 56.3779 4.61451 56.6237 4.84354C56.8694 5.07257 57.0658 5.34938 57.2009 5.65703C57.336 5.96467 57.4069 6.29668 57.4092 6.6327C57.4401 7.3043 57.2064 7.9612 56.7584 8.46218C56.3103 8.96316 55.6837 9.2682 55.0132 9.31173C43.3895 10.0622 31.4321 10.5424 19.4372 10.7C18.7705 11.7162 17.8612 12.55 16.7914 13.1259C15.7216 13.7018 14.5251 14.0016 13.3104 13.9982ZM11.5481 7.34561C11.5481 7.37562 11.5481 7.40939 11.5781 7.43941C11.6442 7.70424 11.7638 7.9527 11.9295 8.16952C12.0953 8.38634 12.3036 8.56692 12.5417 8.70012C13.0045 8.87739 13.5135 8.89266 13.986 8.74345C14.4586 8.59424 14.8667 8.28934 15.1439 7.8784C15.2063 7.76913 15.2566 7.65339 15.2939 7.53321C15.2987 7.45652 15.3075 7.38012 15.3201 7.30433C15.3913 7.00566 15.3623 6.69187 15.2377 6.41131C14.9334 5.88739 14.4806 5.46561 13.9366 5.19938C13.4854 5.07346 13.0045 5.10739 12.5755 5.29541C12.1464 5.48344 11.7953 5.81401 11.5818 6.23122C11.4543 6.59 11.4425 6.97976 11.5481 7.34561Z" fill="black"/>
</g>
</svg>
