<svg width="50" height="50" viewBox="0 0 50 50" fill="none" xmlns="http://www.w3.org/2000/svg">
<path id="star" d="M13.2672 50C12.8834 49.9984 12.5067 49.8957 12.1751 49.7022C11.7802 49.4764 11.4653 49.1332 11.2739 48.7203C11.0825 48.3074 11.0242 47.8452 11.107 47.3976L13.2493 35.7522C13.3297 35.3264 13.4606 34.6178 13.3594 34.3438C13.2136 33.9567 12.2436 33.4327 11.7794 33.1826L1.51376 27.6502C1.12435 27.4409 0.806975 27.1189 0.603149 26.7264C0.399323 26.3339 0.31848 25.889 0.371119 25.4498C0.424862 25.0112 0.609505 24.599 0.900923 24.267C1.19234 23.935 1.57699 23.6987 2.0047 23.5888C6.87271 22.3352 11.7586 21.5045 16.4837 20.6975L17.7871 20.4742C19.257 14.12 20.9798 7.75991 22.911 1.5427C23.0484 1.1021 23.321 0.715982 23.69 0.439129C24.0591 0.162276 24.5059 0.00874311 24.9671 0.000309643C25.4285 -0.00743076 25.8808 0.130122 26.2599 0.393531C26.639 0.65694 26.9258 1.03289 27.0797 1.46826L33.8253 20.638H33.9027C38.3699 20.6397 42.8335 20.8951 47.2718 21.4032C47.6876 21.4511 48.0812 21.6166 48.4063 21.8803C48.7315 22.144 48.9748 22.4949 49.1078 22.892C49.2371 23.2912 49.2498 23.7191 49.1443 24.1252C49.0389 24.5314 48.8198 24.899 48.5127 25.1848C45.3617 28.1498 41.9113 30.7793 38.2172 33.0307C40.0803 37.326 41.6026 41.7615 42.7699 46.2959C42.8756 46.7086 42.8591 47.1431 42.7223 47.5466C42.5854 47.95 42.3341 48.3048 41.9992 48.5678C41.6654 48.8297 41.2631 48.9894 40.8407 49.0274C40.4182 49.0655 39.9938 48.9803 39.6187 48.7822C34.4691 46.0456 29.7202 42.613 25.5057 38.5809C22.1806 42.4715 18.568 46.1065 14.6984 49.4551C14.302 49.8025 13.7941 49.9958 13.2672 50ZM25.3628 33.1439C25.6572 33.1441 25.9484 33.2035 26.2193 33.3186C26.4902 33.4337 26.7353 33.6021 26.9399 33.8138C29.9714 36.9508 33.3427 39.7402 36.9913 42.1302C35.9762 39.0418 34.784 36.0145 33.4207 33.0635C33.1901 32.5632 33.1556 31.9945 33.3243 31.47C33.4929 30.9456 33.8523 30.5036 34.3311 30.2318C36.8957 28.7787 39.3467 27.1333 41.663 25.3098C38.5386 25.0954 35.4143 25.0121 32.2989 25.0508H32.2661C31.8101 25.0525 31.3647 24.9125 30.9916 24.6501C30.6185 24.3876 30.3361 24.0158 30.1832 23.5858L25.1665 9.32314C23.8959 13.8133 22.7443 18.3512 21.7237 22.8801C21.6287 23.3041 21.4099 23.6904 21.0953 23.9899C20.7806 24.2894 20.3842 24.4887 19.9563 24.5625L17.2009 25.0359C14.4158 25.5093 11.5741 25.9947 8.73537 26.5664L13.8415 29.3177C14.9246 29.9132 16.7307 30.8749 17.4508 32.8134C17.9804 34.2277 17.7186 35.6301 17.549 36.5592L16.5998 41.7074C19.0827 39.2542 21.4328 36.67 23.64 33.9657C23.8359 33.7255 24.0803 33.5294 24.3572 33.3904C24.6341 33.2513 24.9372 33.1724 25.2467 33.1588L25.3628 33.1439Z" fill="black"/>
</svg>
