<svg width="52" height="50" viewBox="0 0 52 50" fill="none" xmlns="http://www.w3.org/2000/svg">
<g id="stats">
<path id="Vector" d="M3.22103 50C2.62181 50.0007 2.04599 49.7672 1.61621 49.3494C1.39098 49.131 1.21264 48.8688 1.09212 48.5791C0.971604 48.2893 0.911454 47.978 0.91531 47.6641C1.11195 32.6652 0.915307 17.4346 0.357115 2.39122C0.345664 2.08833 0.394027 1.78616 0.499471 1.50202C0.604915 1.21787 0.765369 0.95733 0.971601 0.735332C1.17783 0.513333 1.42579 0.334239 1.7013 0.208302C1.97682 0.0823641 2.27448 0.0120601 2.57719 0.00142175C3.18806 -0.0200211 3.7825 0.201803 4.23017 0.618255C4.67785 1.03471 4.94224 1.6118 4.96537 2.22302C5.50771 16.5269 5.70434 31.0054 5.55845 45.2902C19.9255 44.6777 34.4639 44.2524 48.8088 44.0207C49.1125 44.0109 49.415 44.0624 49.6985 44.1721C49.9819 44.2818 50.2404 44.4474 50.4585 44.6592C50.6766 44.8709 50.8499 45.1244 50.968 45.4046C51.0862 45.6847 51.1468 45.9858 51.1462 46.2899C51.1512 46.5926 51.0965 46.8934 50.9852 47.1749C50.8738 47.4564 50.7081 47.7131 50.4975 47.9304C50.2868 48.1477 50.0354 48.3212 49.7575 48.4411C49.4797 48.561 49.181 48.6248 48.8785 48.629C33.7693 48.867 18.4317 49.324 3.32567 49.9905L3.22103 50Z" fill="black"/>
<path id="Vector_2" d="M10.4242 40.2567C10.0273 40.2574 9.63705 40.1546 9.29196 39.9584C9.02847 39.8099 8.79683 39.6108 8.61034 39.3726C8.42385 39.1343 8.28616 38.8616 8.20515 38.5701C8.12413 38.2785 8.10138 37.9738 8.13821 37.6734C8.17504 37.3731 8.27073 37.0829 8.41978 36.8196L15.2735 24.6707C15.6604 23.9851 16.6848 22.1698 18.7812 22.0555C20.3067 21.9889 21.4009 22.8997 21.9242 23.3504L27.116 27.7936C27.325 27.977 27.5464 28.1456 27.7788 28.2982C27.8232 28.2316 27.874 28.1649 27.9057 28.1173L41.0549 9.1798C41.2274 8.93107 41.4473 8.71879 41.7018 8.55513C41.9564 8.39147 42.2407 8.27962 42.5385 8.22597C42.8363 8.17233 43.1417 8.17794 43.4374 8.2425C43.733 8.30705 44.013 8.42927 44.2613 8.60218C44.7626 8.95141 45.105 9.48544 45.2132 10.087C45.3214 10.6886 45.1867 11.3085 44.8386 11.8108L31.6862 30.7515C31.2929 31.3132 30.6428 32.2463 29.4978 32.7319C27.005 33.7919 24.8325 31.9067 24.1062 31.291L19.1903 27.07L12.4223 39.0698C12.2238 39.4267 11.9343 39.7246 11.5833 39.9331C11.2323 40.1416 10.8323 40.2533 10.4242 40.2567Z" fill="black"/>
</g>
</svg>
