<svg width="67" height="50" viewBox="0 0 67 50" fill="none" xmlns="http://www.w3.org/2000/svg">
<g id="Layer_1" clip-path="url(#clip0_1105_1840)">
<path id="Vector" d="M37.7932 44.3886C37.1782 44.3834 36.5889 44.1414 36.1479 43.7131C35.7068 43.2848 35.448 42.7031 35.4254 42.089L34.8894 29.2525C34.8244 28.4609 35.0633 27.6742 35.5576 27.052C36.0732 26.4621 36.7905 26.0854 37.5693 25.9957C39.2177 25.739 40.9137 25.5593 42.5914 25.4639C43.1605 25.4309 44.9263 25.3282 46.0974 26.6999C46.7627 27.5473 47.0661 28.6229 46.9418 29.6927C46.7993 32.9528 46.8385 36.2183 47.0592 39.4741C47.4037 39.9865 47.5369 40.6121 47.4309 41.2203C47.3249 41.8285 46.9878 42.3723 46.4902 42.7382C46.1215 42.9918 45.695 43.1486 45.2497 43.1941C44.8044 43.2397 44.3548 43.1724 43.9424 42.9986C43.4926 42.779 43.1083 42.4453 42.8281 42.0308C42.5478 41.6163 42.3814 41.1356 42.3455 40.6367C42.0857 37.1907 42.0146 33.7332 42.1326 30.2795C41.3322 30.3381 40.5246 30.4188 39.7279 30.5179L40.2052 41.8873C40.2185 42.2009 40.1698 42.5141 40.0618 42.8089C39.9538 43.1036 39.7887 43.3742 39.5759 43.6052C39.3632 43.8361 39.1069 44.0229 38.8218 44.1548C38.5367 44.2867 38.2283 44.3612 37.9144 44.3739L37.7932 44.3886Z" fill="black"/>
<path id="Vector_2" d="M24.5185 30.0557C23.5158 29.9619 22.5427 29.6649 21.6587 29.1829C20.9434 28.7756 20.3651 28.1654 19.9972 27.4296C19.6292 26.6938 19.4882 25.8655 19.5919 25.0495C19.8342 23.5825 20.8584 22.6876 21.4054 22.2071L34.3718 10.889C34.8234 10.4966 35.6017 9.95011 36.5048 9.32662C37.0518 8.95987 37.6538 8.53445 38.2375 8.10534C38.3624 8.01732 38.557 7.89993 38.7369 7.78624C37.309 6.34291 35.7521 5.03303 34.0855 3.87295C33.667 3.58688 32.5289 2.82035 31.1119 3.04774C30.4402 3.17256 29.8097 3.46106 29.2763 3.88763C28.6853 4.31674 28.0832 4.73116 27.5362 5.11259C26.6331 5.73241 25.8585 6.27521 25.4106 6.66764L12.4367 17.9894C11.8897 18.4699 10.8655 19.3648 10.6306 20.8318C10.5273 21.6468 10.6683 22.4741 11.0355 23.2091C11.4027 23.9442 11.9798 24.554 12.6938 24.9615C13.5779 25.4464 14.5527 25.7436 15.5572 25.8344L17.7599 26.1498L18.3547 38.8762C18.3596 39.2771 18.444 39.6731 18.6027 40.0413C18.7615 40.4095 18.9916 40.7428 19.2798 41.0218C19.8006 41.4912 20.4695 41.7637 21.1704 41.792C23.1932 41.9497 25.2381 42.0377 27.2756 42.1587L26.7249 30.3822L24.5185 30.0557Z" fill="black"/>
<path id="Vector_3" d="M61.9493 24.9982C61.1473 24.3322 60.3024 23.7196 59.4199 23.1644C59.0748 22.9407 58.7297 22.7169 58.392 22.4822C55.7561 20.6484 53.5534 18.2462 51.2186 15.6972C48.7626 13.0089 46.2221 10.2289 43.0539 8.07967C42.6281 7.78993 41.501 7.01974 40.0803 7.25079C39.6011 7.32925 39.1435 7.50661 38.7367 7.77158C38.5568 7.88528 38.3695 8.00264 38.2374 8.09066C37.6537 8.51976 37.0516 8.93421 36.5046 9.31197C35.6015 9.93545 34.8232 10.4819 34.3716 10.8744L21.4052 22.1925C20.8582 22.6729 19.834 23.5641 19.5917 25.0348C19.4881 25.8508 19.6291 26.6792 19.997 27.415C20.3649 28.1508 20.9432 28.761 21.6585 29.1682C22.5425 29.6502 23.5156 29.9473 24.5183 30.0411L26.721 30.3565L27.2717 42.1331L27.3194 43.083C27.3233 43.4863 27.4078 43.8849 27.5679 44.2552C27.728 44.6255 27.9605 44.9602 28.2519 45.2395C28.7717 45.7021 29.436 45.9703 30.1315 45.9987C37.0333 46.5341 44.0268 46.8055 50.9138 46.8055H51.1781C51.883 46.8055 53.19 46.8055 54.3207 45.918C55.6203 44.8947 55.8515 43.325 55.9506 42.6612C56.4706 39.2435 56.6343 35.7811 56.4389 32.3296L59.9596 31.8969C60.6241 31.8162 62.3825 31.5998 63.2636 29.9861C64.1447 28.3723 63.6417 26.4505 61.9493 24.9982ZM53.5534 27.8846C52.927 27.9626 52.3569 28.2846 51.967 28.7805C51.5772 29.2764 51.3992 29.9061 51.4719 30.5325C51.8793 34.3434 51.7904 38.191 51.2075 41.979C51.2057 42.001 51.2057 42.0231 51.2075 42.045H51.1745C49.1039 42.045 47.0261 41.9937 44.9335 41.946C40.6236 41.847 36.31 41.6746 32.0038 41.3629L31.4128 28.8638C31.4036 28.1496 31.1583 27.4585 30.7152 26.898C30.1787 26.2858 29.4294 25.9003 28.619 25.8197L25.1902 25.3282H25.102L37.5068 14.4979C37.8739 14.1898 38.487 13.7644 39.2066 13.2766C39.6471 12.9722 40.117 12.6458 40.653 12.2644C43.2228 14.0761 45.3887 16.4454 47.6795 18.9467C49.7464 21.2059 51.894 23.5091 54.4014 25.4713C54.8163 25.7977 55.2201 26.1351 55.657 26.4395C56.0241 26.6999 56.4132 26.9457 56.795 27.195L57.1879 27.4518L53.5534 27.8846Z" fill="black"/>
<path id="Vector_4" d="M63.247 14.7436C63.6141 13.7864 63.9813 12.7705 63.7977 11.7619C63.687 11.2213 63.4658 10.7094 63.1479 10.2582C62.0686 8.72582 60.549 7.55689 58.7902 6.90604C57.0403 6.26193 55.2203 5.82734 53.368 5.61138C53.439 7.16103 53.7016 8.69597 54.1499 10.1812L52.3914 4.54779C52.3509 4.4552 52.3444 4.3513 52.3731 4.25439C52.4039 4.20697 52.4444 4.16649 52.4918 4.13555C52.5392 4.10461 52.5925 4.08386 52.6484 4.07466L57.9533 2.38392" fill="black"/>
<path id="Vector_5" d="M63.2468 17.1496C62.9596 17.1486 62.6749 17.0965 62.4061 16.9955C61.8122 16.7717 61.3316 16.3215 61.07 15.7437C60.8084 15.166 60.7872 14.5081 61.011 13.9148C61.2239 13.3536 61.514 12.5834 61.4443 12.1947C61.3854 11.9733 61.2844 11.7654 61.1469 11.5822C60.3135 10.3059 58.9148 9.54669 57.8942 9.13225C57.3352 8.91218 56.7626 8.72842 56.1798 8.58212C56.2532 8.89753 56.3377 9.2056 56.4331 9.51734C56.6139 10.1224 56.5479 10.7742 56.2494 11.3308C55.9509 11.8873 55.4442 12.3033 54.8398 12.4881C54.2356 12.6707 53.5838 12.6079 53.0257 12.3134C52.4676 12.0188 52.0483 11.5162 51.8589 10.9147L50.1114 5.26662C49.8871 4.61004 49.9213 3.89283 50.2069 3.26047C50.3705 2.90798 50.6078 2.59463 50.9029 2.34156C51.198 2.08849 51.544 1.90158 51.9176 1.79344L57.2334 0.0990218C57.5325 0.00381282 57.8476 -0.0315808 58.1604 -0.00513593C58.4732 0.0213089 58.7778 0.109073 59.0567 0.253143C59.3356 0.397213 59.5833 0.594759 59.7857 0.834506C59.9881 1.07425 60.1413 1.3515 60.2364 1.6504C60.4053 2.17373 60.388 2.7393 60.1872 3.25129C59.9865 3.76328 59.6148 4.19022 59.1351 4.45977C59.326 4.52579 59.5021 4.59912 59.7041 4.67614C61.9178 5.50996 63.8229 7.00107 65.1631 8.94887C65.6566 9.66816 65.9976 10.4807 66.1653 11.3365C66.4663 13.0235 65.9083 14.5052 65.4971 15.5872C65.3277 16.0467 65.021 16.4431 64.6184 16.7226C64.2159 17.0021 63.737 17.1511 63.2468 17.1496Z" fill="black"/>
<path id="Vector_6" d="M2.97118 30.4262C2.6514 32.1437 2.67862 33.9078 3.05122 35.6146C3.42382 37.3215 4.13425 38.9367 5.14079 40.3653C6.16198 41.7842 7.45673 42.985 8.94898 43.8969C10.4412 44.8089 12.1008 45.4138 13.8304 45.6759L12.6924 39.6978L14.7445 45.8923C14.7799 45.9616 14.7984 46.0382 14.7984 46.116C14.7984 46.1938 14.7799 46.2705 14.7445 46.3398C14.6638 46.4269 14.5543 46.4816 14.4362 46.4938C12.1651 46.9944 9.86674 47.3618 7.55276 47.5941" fill="black"/>
<path id="Vector_7" d="M7.55471 50C6.96306 49.9987 6.39277 49.7788 5.9536 49.3828C5.51444 48.9867 5.23743 48.4423 5.17582 47.8545C5.12113 47.3144 5.25198 46.7718 5.54687 46.3159C5.84177 45.86 6.28312 45.5179 6.79843 45.3459C5.40437 44.3572 4.18582 43.1423 3.19334 41.7516C1.996 40.062 1.15145 38.1489 0.709945 36.1263C0.268444 34.1037 0.239035 32.0129 0.623544 29.9787C0.682072 29.6701 0.801077 29.3761 0.973719 29.1135C1.14636 28.851 1.36923 28.6252 1.62952 28.4489C1.88982 28.2727 2.18242 28.1497 2.49049 28.0868C2.79855 28.0239 3.11606 28.0225 3.42467 28.0826C4.04662 28.2017 4.59579 28.5625 4.95166 29.0858C5.30752 29.6091 5.44095 30.2521 5.32263 30.8736C5.06493 32.275 5.08867 33.7135 5.39245 35.1056C5.69622 36.4977 6.27399 37.8156 7.09214 38.9826C8.04612 40.306 9.29055 41.3937 10.7302 42.1624L10.3447 40.1452C10.2322 39.5494 10.3504 38.9331 10.6755 38.421C11.0007 37.909 11.5084 37.5395 12.0959 37.3872C12.683 37.2347 13.3063 37.3114 13.8389 37.6016C14.3716 37.8919 14.7735 38.3739 14.9631 38.9496L17.0153 45.1405C17.1777 45.5676 17.2328 46.0279 17.1759 46.4812C17.1189 46.9346 16.9515 47.367 16.6885 47.7408C16.2696 48.3084 15.6548 48.7005 14.9631 48.841C12.5997 49.3711 10.2067 49.7593 7.79697 50.0037C7.71622 50.0078 7.63531 50.0066 7.55471 50Z" fill="black"/>
</g>
<defs>
<clipPath id="clip0_1105_1840">
<rect width="65.8824" height="50" fill="white" transform="translate(0.355469)"/>
</clipPath>
</defs>
</svg>
