<svg width="57" height="50" viewBox="0 0 57 50" fill="none" xmlns="http://www.w3.org/2000/svg">
<g id="team">
<path id="Vector" d="M45.6803 39.1959C45.1722 39.1971 44.6763 39.0398 44.2616 38.746C43.8469 38.4521 43.5339 38.0363 43.3663 37.5564C43.259 37.2525 43.2127 36.9305 43.2301 36.6087C43.2475 36.2869 43.3283 35.9717 43.4678 35.6813C43.6072 35.3908 43.8026 35.1307 44.0428 34.916C44.2829 34.7013 44.5631 34.5362 44.8672 34.4302C47.4594 33.5125 50.6751 31.6527 51.1214 30.7993C51.265 30.2732 51.1581 29.4014 51.0541 28.5571C50.7485 26.1345 50.4428 23.6354 49.6755 21.4208C49.1222 19.8455 48.0646 17.7012 46.1541 16.4195C45.8863 16.2408 45.6563 16.0109 45.4774 15.743C45.2986 15.4751 45.1744 15.1746 45.1119 14.8585C45.0494 14.5425 45.05 14.2172 45.1134 13.9014C45.1768 13.5856 45.302 13.2854 45.4816 13.018C45.66 12.7498 45.8895 12.5194 46.1571 12.3401C46.4247 12.1609 46.725 12.0363 47.0408 11.9735C47.3567 11.9107 47.6818 11.9109 47.9975 11.9741C48.3132 12.0374 48.6134 12.1624 48.8807 12.342C51.2834 13.9541 53.1602 16.5296 54.3004 19.7996C55.2511 22.5159 55.5904 25.2811 55.9175 27.9545C56.0672 29.1597 56.2506 30.6616 55.8074 32.237C54.7161 36.0759 47.3309 38.7707 46.4903 39.0644C46.2296 39.1536 45.9558 39.198 45.6803 39.1959Z" fill="black"/>
<path id="Vector_2" d="M43.28 17.3892C42.2292 17.3999 41.1885 17.1835 40.2288 16.7549C39.2692 16.3262 38.4134 15.6953 37.7198 14.9054L37.6525 14.8228C37.3361 14.5903 37.0803 14.285 36.9067 13.9327C35.1368 10.3415 36.2617 5.99792 39.4713 4.04636C42.6809 2.09479 47.0949 3.07975 49.1919 6.1478C51.2889 9.21586 50.5583 13.7185 47.6024 15.9729C46.3554 16.9058 44.8369 17.4034 43.28 17.3892ZM41.1648 11.4397C41.2688 11.5269 41.3649 11.6231 41.4521 11.7272C41.8598 12.1447 42.3998 12.4075 42.9797 12.4705C43.5596 12.5336 44.1434 12.393 44.6312 12.0728C45.0698 11.6875 45.3606 11.1613 45.4537 10.5847C45.5469 10.0081 45.4366 9.41707 45.1416 8.91303C44.78 8.45439 44.2699 8.13627 43.6992 8.01344C43.1284 7.89061 42.5326 7.97075 42.0146 8.24007C41.1739 8.75091 40.6787 10.1121 41.1648 11.4397Z" fill="black"/>
<path id="Vector_3" d="M10.9294 39.6456C10.6151 39.647 10.3035 39.5868 10.0124 39.4682C2.98174 36.6509 2.26952 35.7639 1.9241 35.3356C0.628025 33.7358 0.41096 31.7781 0.362052 30.2548C0.286095 26.9262 0.868097 23.6153 2.07463 20.5124C3.28116 17.4095 5.08845 14.5757 7.39267 12.1738C6.6621 9.0201 7.88785 5.68898 10.587 4.04636C13.7661 2.11927 18.2107 3.07976 20.3076 6.14781C22.4046 9.21587 21.674 13.7185 18.7181 15.9729C16.3063 17.8083 12.8338 17.8235 10.3364 16.2146C6.96284 20.0436 5.1563 25.0048 5.27739 30.108C5.27739 30.4751 5.31712 31.5304 5.65031 32.1085C6.43285 32.601 9.15034 33.8337 11.8464 34.9166C12.1461 35.0355 12.4193 35.2125 12.6503 35.4375C12.8814 35.6624 13.0657 35.9309 13.1927 36.2274C13.3197 36.5239 13.3868 36.8426 13.3903 37.1652C13.3937 37.4877 13.3334 37.8078 13.2128 38.107C13.0305 38.5632 12.7153 38.9539 12.308 39.2283C11.9008 39.5027 11.4204 39.6481 10.9294 39.6456ZM12.2744 11.4397C12.3784 11.5269 12.4745 11.6231 12.5617 11.7272C12.9694 12.1447 13.5094 12.4075 14.0893 12.4705C14.6692 12.5336 15.253 12.393 15.7408 12.0729C16.1794 11.6875 16.4702 11.1613 16.5633 10.5847C16.6565 10.0081 16.5462 9.41708 16.2512 8.91304C15.8896 8.4544 15.3795 8.13628 14.8087 8.01345C14.238 7.89062 13.6422 7.97076 13.1242 8.24008C12.2835 8.75092 11.7883 10.1121 12.2744 11.4397Z" fill="black"/>
<path id="Vector_4" d="M27.8796 49.9999C24.025 50.0091 20.2039 49.2824 16.6215 47.8587C15.2001 47.2897 13.4027 46.4332 12.1188 44.8457C10.4529 42.784 10.1716 40.187 10.1074 38.159C9.99555 33.3979 10.8457 28.6634 12.607 24.2392C14.3682 19.815 17.0042 15.7923 20.3569 12.4124C19.1127 8.14525 20.6625 3.51104 24.3307 1.2903C28.439 -1.20575 34.1919 0.0361636 36.9002 4.00965C38.8474 6.86358 38.9086 10.6749 37.3679 13.6757C40.3391 15.8842 42.6776 19.249 44.154 23.4641C45.4868 27.2846 45.9697 31.2122 46.4313 35.0144C46.6361 36.657 46.8898 38.7065 46.306 40.7498C45.3523 44.1146 42.4391 46.7269 37.8784 48.3267C34.6635 49.4441 31.283 50.0098 27.8796 49.9999ZM23.2425 16.4746C17.7795 22.2927 14.8225 30.0278 15.0105 38.0091C15.0472 39.2693 15.1848 40.8355 15.9276 41.7593C16.4961 42.4597 17.514 42.9308 18.4402 43.304C24.1385 45.5583 30.4551 45.6962 36.246 43.6925C37.9548 43.0807 40.9199 41.7348 41.5833 39.41C41.8889 38.3211 41.7208 36.9446 41.5588 35.614C41.1247 32.0687 40.6785 28.4073 39.5169 25.0914C38.6671 22.6443 37.0195 19.3377 34.0146 17.3249C34.0026 17.315 33.9892 17.3068 33.9749 17.3005C32.3045 18.2392 30.3937 18.6617 28.4836 18.5147C26.5735 18.3677 24.7498 17.6578 23.2425 16.4746ZM25.3059 11.7119C25.4875 11.8342 25.6511 11.9815 25.7918 12.1493C27.2194 13.8286 30.1172 14.1407 31.8688 12.807C33.6203 11.4733 34.0635 8.55819 32.8439 6.76875C31.6242 4.97931 28.7233 4.35529 26.8739 5.4779C24.9726 6.63416 24.3032 9.38103 25.3059 11.7119Z" fill="black"/>
</g>
</svg>
