<svg width="50" height="50" viewBox="0 0 50 50" fill="none" xmlns="http://www.w3.org/2000/svg">
<path fill-rule="evenodd" clip-rule="evenodd" d="M47.5902 40.2907C43.9798 34.7138 40.8539 28.7203 37.8144 22.8926L37.4206 22.1376L37.2478 21.8075C33.931 15.4693 30.5149 8.94123 26.5164 2.85116C26.008 2.05779 24.4448 -0.322312 21.9213 0.0365939C18.4184 0.527728 16.5539 5.19349 14.8025 10.3315L14.8021 10.3328C14.5574 11.0689 14.3504 11.6919 14.1622 12.2205C12.1283 17.1318 9.86832 22.0431 7.47657 26.8223L6.44076 28.8624C3.74806 33.6706 1.6485 38.7895 0.188319 44.1064C0.00932685 44.6526 -0.0430014 45.2326 0.0353258 45.8022C0.113653 46.3718 0.320551 46.916 0.640285 47.3932C1.03036 47.8382 1.51617 48.1885 2.06101 48.4176C2.60586 48.6467 3.19549 48.7485 3.78534 48.7155L47.5902 50C47.9432 50.0007 48.2893 49.9019 48.589 49.7149C48.8886 49.5278 49.1299 49.2601 49.2852 48.9422C50.9801 45.5609 48.7014 42.0096 47.5902 40.2907ZM22.7092 41.6691C24.363 41.6691 25.7036 40.3244 25.7036 38.6656C25.7036 37.0068 24.363 35.6621 22.7092 35.6621C21.0555 35.6621 19.7148 37.0068 19.7148 38.6656C19.7148 40.3244 21.0555 41.6691 22.7092 41.6691ZM21.5107 30.9871C21.8613 31.3212 22.3266 31.5072 22.8102 31.5066V31.2232C23.3097 31.2232 23.7887 31.0242 24.1419 30.67C24.4951 30.3157 24.6935 29.8353 24.6935 29.3343C24.6458 26.8669 24.8286 24.4004 25.2396 21.9673C25.2876 21.5894 25.3392 21.2087 25.3912 20.8254C25.6044 19.2538 25.8235 17.6382 25.8235 15.9981C25.8235 15.4971 25.625 15.0166 25.2718 14.6624C24.9186 14.3081 24.4397 14.1091 23.9402 14.1091C23.4407 14.1091 22.9617 14.3081 22.6085 14.6624C22.2553 15.0166 22.0569 15.4971 22.0569 15.9981C22.0004 17.8869 21.7556 19.7757 21.5108 21.6645L21.5107 21.665C21.0677 24.3234 20.8723 27.0174 20.9269 29.7121C20.9511 30.1965 21.1601 30.653 21.5107 30.9871Z" fill="black"/>
</svg>
